<svg width="117" height="117" viewBox="0 0 117 117" fill="none" xmlns="http://www.w3.org/2000/svg">
<path d="M71.02 10.9701V23.6301H49.25C49.25 23.3601 49.25 23.1101 49.25 22.8501C49.25 17.0201 49.24 11.1901 49.24 5.36007C49.24 3.14007 50.92 1.33007 53.12 1.13007C61.28 0.390075 69.24 1.32007 76.97 4.00007C88.07 7.85007 97.14 14.5201 104.21 23.9101C109.3 30.6701 112.67 38.2201 114.41 46.5001C115.23 50.4401 115.61 54.4301 115.61 58.4601C115.61 75.8801 115.61 93.3101 115.61 110.73C115.61 113.53 113.83 115.3 111.04 115.3C91.85 115.3 72.66 115.3 53.47 115.3C51.02 115.3 49.26 113.54 49.27 111.11C49.28 105.71 49.34 100.31 49.27 94.9101C49.25 93.4301 49.83 92.5901 51.09 92.0101C52.81 91.2201 54.64 90.8801 56.49 90.6801C59.97 90.3001 63.46 90.2701 66.89 91.0801C67.94 91.3301 68.96 91.7801 69.93 92.2701C70.7 92.6501 71.03 93.3701 71.02 94.2901C70.99 97.6601 71.01 101.03 71.01 104.4V105.33C78.16 103.42 84.5 100.12 90.01 95.3301C100.2 86.4701 106.02 75.2701 107.05 61.8101C109.07 35.5001 90.48 15.6801 71.01 10.9801L71.02 10.9701Z" stroke="#F6F6FB" stroke-width="1.75" stroke-linejoin="round"/>
<path d="M64.3899 56.2701C64.1299 55.0401 63.8799 53.8601 63.6099 52.5701C62.6699 52.7601 61.7699 52.9401 60.8699 53.1301C57.1799 53.9001 53.4899 54.6801 49.7999 55.4401C49.5499 55.4901 49.2799 55.4901 49.0199 55.4901C43.4999 55.4901 37.9799 55.4901 32.4599 55.4901C27.7899 55.4901 24.1799 59.1901 24.4299 63.8601C24.4799 64.8801 24.9299 65.8801 25.1999 66.8901C25.2499 67.0901 25.3599 67.2701 25.4699 67.5201H0.889883C0.889883 67.2901 0.889883 67.0701 0.889883 66.8401C0.889883 62.7001 0.899883 58.5701 0.879883 54.4301C0.879883 53.8601 1.02988 53.6801 1.61988 53.6001C5.84988 52.9901 10.0599 52.3201 14.2899 51.6701C18.1799 51.0701 22.0799 50.4901 25.9699 49.8901C28.8699 49.4501 31.7599 48.9001 34.6799 48.6101C36.8599 48.4001 39.0699 48.5101 41.2699 48.5101C49.5399 48.5101 57.8099 48.5001 66.0799 48.5101C71.1199 48.5101 74.9499 51.6801 75.8199 56.5001C76.7199 61.5201 73.2199 66.5201 68.1699 67.3901C67.6299 67.4801 67.0799 67.5401 66.5299 67.5401C55.1799 67.5401 43.8299 67.5501 32.4699 67.5401C30.0299 67.5401 28.2499 65.7201 28.2799 63.3201C28.2999 61.1901 30.0399 59.3601 32.1799 59.3401C36.0999 59.3001 40.0199 59.3201 43.9399 59.3201C45.7999 59.3201 47.6799 59.4301 49.5299 59.2801C51.1099 59.1501 52.6799 58.7501 54.2399 58.4301C57.4199 57.7801 60.5899 57.1101 63.7699 56.4501C63.9699 56.4101 64.1699 56.3301 64.4099 56.2501L64.3899 56.2701Z" stroke="#F6F6FB" stroke-width="1.75" stroke-linejoin="round"/>
<path d="M1.07983 73.9501H95.2098V81.1401H1.07983V73.9501Z" stroke="#F6F6FB" stroke-width="1.75" stroke-linejoin="round"/>
<path d="M97.17 58.24C97.12 63.49 92.92 67.61 87.67 67.56C82.49 67.51 78.41 63.3 78.45 58.04C78.49 52.86 82.75 48.81 88.08 48.87C93.08 48.93 97.21 53.19 97.17 58.23V58.24Z" stroke="#F6F6FB" stroke-width="1.75" stroke-linejoin="round"/>
<path d="M67.8498 24.52C67.8498 26.67 66.0998 28.42 63.9498 28.42H56.4098C54.2598 28.42 52.5098 26.67 52.5098 24.52" stroke="#F6F6FB" stroke-width="1.75" stroke-linejoin="round"/>
</svg>
