<?xml version="1.0" encoding="UTF-8"?>
<svg id="Layer_2" data-name="Layer 2" xmlns="http://www.w3.org/2000/svg" viewBox="0 0 116.48 116.18">
  <defs>
    <style>
      .cls-1 {
        stroke: #0092ce;
      }

      .cls-1, .cls-2 {
        fill: none;
        stroke-linejoin: round;
        stroke-width: 1.75px;
      }

      .cls-2 {
        stroke: #eb8467;
      }
    </style>
  </defs>
  <g id="Layer_1-2" data-name="Layer 1">
    <g>
      <path class="cls-1" d="m71.02,10.97v12.66h-21.77c0-.27,0-.52,0-.78,0-5.83-.01-11.66-.01-17.49,0-2.22,1.68-4.03,3.88-4.23,8.16-.74,16.12.19,23.85,2.87,11.1,3.85,20.17,10.52,27.24,19.91,5.09,6.76,8.46,14.31,10.2,22.59.82,3.94,1.2,7.93,1.2,11.96,0,17.42,0,34.85,0,52.27,0,2.8-1.78,4.57-4.57,4.57-19.19,0-38.38,0-57.57,0-2.45,0-4.21-1.76-4.2-4.19.01-5.4.07-10.8,0-16.2-.02-1.48.56-2.32,1.82-2.9,1.72-.79,3.55-1.13,5.4-1.33,3.48-.38,6.97-.41,10.4.4,1.05.25,2.07.7,3.04,1.19.77.38,1.1,1.1,1.09,2.02-.03,3.37-.01,6.74-.01,10.11v.93c7.15-1.91,13.49-5.21,19-10,10.19-8.86,16.01-20.06,17.04-33.52,2.02-26.31-16.57-46.13-36.04-50.83Z"/>
      <path class="cls-1" d="m64.39,56.27c-.26-1.23-.51-2.41-.78-3.7-.94.19-1.84.37-2.74.56-3.69.77-7.38,1.55-11.07,2.31-.25.05-.52.05-.78.05-5.52,0-11.04,0-16.56,0-4.67,0-8.28,3.7-8.03,8.37.05,1.02.5,2.02.77,3.03.05.2.16.38.27.63H.89c0-.23,0-.45,0-.68,0-4.14.01-8.27-.01-12.41,0-.57.15-.75.74-.83,4.23-.61,8.44-1.28,12.67-1.93,3.89-.6,7.79-1.18,11.68-1.78,2.9-.44,5.79-.99,8.71-1.28,2.18-.21,4.39-.1,6.59-.1,8.27,0,16.54-.01,24.81,0,5.04,0,8.87,3.17,9.74,7.99.9,5.02-2.6,10.02-7.65,10.89-.54.09-1.09.15-1.64.15-11.35,0-22.7.01-34.06,0-2.44,0-4.22-1.82-4.19-4.22.02-2.13,1.76-3.96,3.9-3.98,3.92-.04,7.84-.02,11.76-.02,1.86,0,3.74.11,5.59-.04,1.58-.13,3.15-.53,4.71-.85,3.18-.65,6.35-1.32,9.53-1.98.2-.04.4-.12.64-.2Z"/>
      <path class="cls-1" d="m1.08,73.95h94.13v7.19H1.08v-7.19Z"/>
      <path class="cls-2" d="m97.17,58.24c-.05,5.25-4.25,9.37-9.5,9.32-5.18-.05-9.26-4.26-9.22-9.52.04-5.18,4.3-9.23,9.63-9.17,5,.06,9.13,4.32,9.09,9.36Z"/>
      <path class="cls-2" d="m67.85,24.52c0,2.15-1.75,3.9-3.9,3.9h-7.54c-2.15,0-3.9-1.75-3.9-3.9"/>
    </g>
  </g>
</svg>