<svg width="114" height="118" viewBox="0 0 114 118" fill="none" xmlns="http://www.w3.org/2000/svg">
<path d="M15.8101 58.3901C15.8101 58.8501 15.8101 59.3301 15.8101 59.8201C15.8101 67.1201 15.8101 74.4301 15.8101 81.7301C15.8301 94.0901 23.9301 103.92 36.1301 105.94C39.9301 106.57 43.8701 106.32 47.8701 106.47C47.8501 103.92 47.7801 101.65 49.2601 99.7401C50.7101 97.8701 52.6601 97.0601 55.1001 96.9701C54.9801 94.2701 55.4201 91.7701 57.4001 89.7701C59.3901 87.7601 61.9001 87.3401 64.6701 87.4301V79.8501C64.2901 79.8301 63.8601 79.7901 63.4401 79.7801C61.1101 79.7801 58.7801 79.8001 56.4501 79.7701C50.3201 79.6801 45.3401 74.9701 45.2301 68.8301C45.0801 60.5901 45.0901 52.3401 45.2301 44.0901C45.3301 38.2101 49.9201 33.6401 55.7901 33.2001C56.4201 33.1501 57.0401 33.1201 57.6701 33.1201C71.8301 33.1201 85.9901 33.1401 100.15 33.1001C103.93 33.1001 107.21 34.1501 109.75 37.0601C111.66 39.2501 112.54 41.8401 112.55 44.7101C112.57 52.5501 112.61 60.4001 112.55 68.2401C112.49 74.9101 107.58 79.7201 100.93 79.7601C98.3401 79.7801 95.7501 79.7601 93.0701 79.7601V87.3601C99.5001 87.2301 102.77 90.4201 102.68 96.7101C104.02 97.1501 105.33 97.3701 106.43 97.9701C108.75 99.2401 109.78 101.37 109.83 103.98C109.86 105.86 109.86 107.74 109.83 109.63C109.76 114.04 106.94 116.82 102.53 116.82C87.0701 116.82 71.6101 116.82 56.1501 116.82C50.9501 116.82 48.8201 115.08 47.7901 109.85C45.4801 109.85 43.1101 109.99 40.7701 109.81C37.9701 109.61 35.1101 109.45 32.4201 108.73C20.6801 105.57 12.4701 94.8201 12.3501 82.6501C12.2801 75.0801 12.3301 67.5001 12.3301 59.9301C12.3301 59.4001 12.3301 58.8601 12.3301 58.2701C9.00011 57.7501 7.80011 55.6301 7.43011 52.5601C6.87011 47.9401 6.05011 43.3601 5.32011 38.6001C4.44011 38.6001 3.59011 38.6301 2.75011 38.6001C1.42011 38.5401 0.720113 37.6801 0.940113 36.3601C1.25011 34.5101 1.59011 32.6601 1.94011 30.8101C2.65011 27.1101 5.02011 24.6301 8.82011 24.3401C12.4701 24.0701 16.1701 24.0901 19.8101 24.3901C23.3801 24.6901 25.7501 27.3101 26.3401 30.8701C26.6301 32.6401 26.9201 34.4001 27.1801 36.1801C27.4201 37.8001 26.7801 38.5601 25.1801 38.6101C24.4701 38.6301 23.7601 38.6101 22.9001 38.6101C22.5901 41.0301 22.2901 43.3701 22.0101 45.7101C21.7001 48.2401 21.4401 50.7801 21.1001 53.3101C20.6701 56.4801 19.4101 57.6901 15.8301 58.3601L15.8101 58.3901ZM76.5701 100.58C69.7201 100.58 62.8601 100.58 56.0101 100.58C55.4301 100.58 54.8401 100.58 54.2701 100.66C52.6501 100.89 51.5601 101.99 51.5101 103.62C51.4401 105.81 51.4401 108.01 51.5101 110.2C51.5601 111.9 52.6601 112.99 54.3601 113.22C54.8501 113.28 55.3401 113.29 55.8301 113.29C69.7201 113.29 83.6001 113.29 97.4901 113.29C97.8501 113.29 98.2101 113.29 98.5601 113.27C100.65 113.09 101.8 111.88 101.84 109.77C101.87 108.16 101.84 106.54 101.84 104.93C101.84 101.64 100.79 100.57 97.5201 100.57C90.5301 100.57 83.5401 100.57 76.5601 100.57L76.5701 100.58ZM76.7101 36.7201C70.1701 36.7201 63.6301 36.7201 57.0901 36.7201C52.0401 36.7201 48.7701 39.8401 48.7401 44.8501C48.6901 52.6001 48.6801 60.3501 48.7401 68.0901C48.7801 73.0001 52.0601 76.2501 56.9601 76.2601C70.0801 76.2901 83.2001 76.2901 96.3301 76.2601C101.28 76.2501 104.55 72.9101 104.55 67.9501C104.55 60.2901 104.55 52.6301 104.55 44.9801C104.55 40.0001 101.28 36.7301 96.3201 36.7201C89.7801 36.7101 83.2401 36.7201 76.7001 36.7201H76.7101ZM58.8001 96.9401H94.5001C95.2101 93.4001 93.0301 90.9001 89.3701 90.9801C80.8601 91.1501 72.3501 91.1501 63.8401 90.9801C60.3801 90.9101 58.1001 93.2901 58.8001 96.9401ZM68.2801 79.8501C68.2801 82.0501 68.3201 84.1901 68.2601 86.3201C68.2401 87.2301 68.6001 87.4601 69.4401 87.4501C74.3201 87.4201 79.2101 87.4401 84.0901 87.4301C84.3401 87.4301 84.5901 87.3701 84.8701 87.3301V79.8501H68.2701H68.2801ZM23.3801 35.0301C23.1801 33.7401 23.0101 32.5501 22.8201 31.3701C22.4901 29.3801 21.0401 27.9301 18.9901 27.8701C15.7701 27.7701 12.5501 27.7701 9.33011 27.8701C7.65011 27.9201 6.27011 28.8101 5.73011 30.4401C5.25011 31.8901 5.08011 33.4501 4.76011 35.0401H23.3801V35.0301ZM8.97011 38.7201C9.05011 39.4201 9.08011 39.9501 9.16011 40.4801C9.66011 43.8401 10.1501 47.1901 10.7001 50.5401C11.4501 55.1101 10.6501 54.7101 15.6101 54.7101C15.6501 54.7101 15.7001 54.7101 15.7401 54.7101C16.7901 54.7201 17.4001 54.2801 17.5001 53.1501C17.6601 51.4601 17.9201 49.7801 18.1301 48.1001C18.5001 45.0101 18.8701 41.9101 19.2501 38.7201H8.97011Z" stroke="#F6F6FB" stroke-width="1.75" stroke-linejoin="round"/>
<path d="M26.32 6.50005C26.29 8.23005 25 8.94005 23.81 8.29005C23.5 8.12005 23.24 7.86005 22.97 7.62005C17.74 3.08005 10.41 3.10005 5.22004 7.67005C5.02004 7.85005 4.82004 8.03005 4.62004 8.21005C3.81004 8.89005 2.96004 8.96005 2.24004 8.16005C1.54004 7.39005 1.60004 6.50005 2.33004 5.76005C4.38004 3.67005 6.82004 2.23005 9.66004 1.50005C15.49 4.54187e-05 20.72 1.21005 25.28 5.14005C25.78 5.57005 26.1 6.22005 26.31 6.50005H26.32Z" stroke="#F6F6FB" stroke-width="1.75" stroke-linejoin="round"/>
<path d="M14.0102 8.03003C17.1002 8.06003 19.7202 9.03003 21.9502 11.02C22.9202 11.88 23.1002 12.96 22.4402 13.72C21.7402 14.53 20.8402 14.48 19.7302 13.58C16.1402 10.65 12.0502 10.66 8.50021 13.63C7.41021 14.54 6.50021 14.61 5.79021 13.84C5.06021 13.06 5.24021 12 6.29021 11.06C8.51021 9.06003 11.1302 8.08003 14.0102 8.03003Z" stroke="#F6F6FB" stroke-width="1.75" stroke-linejoin="round"/>
<path d="M14.35 15.5001C16.18 15.4801 17.8 16.1401 19.22 17.3401C20.08 18.0601 20.42 18.9201 19.72 19.9201C19.13 20.7601 18.16 20.7701 17.13 20.0201C14.95 18.4301 13.22 18.4401 11.03 20.1001C10.16 20.7601 9.28004 20.8801 8.52004 20.0401C7.74004 19.1701 8.00004 18.3001 8.80004 17.5601C10.35 16.1201 12.19 15.4301 14.36 15.5101L14.35 15.5001Z" stroke="#F6F6FB" stroke-width="1.75" stroke-linejoin="round"/>
<path d="M23.38 35.03H4.76001C5.08001 33.45 5.25001 31.89 5.73001 30.43C6.27001 28.8 7.65001 27.91 9.33001 27.86C12.55 27.77 15.77 27.76 18.99 27.86C21.03 27.93 22.48 29.38 22.82 31.36C23.02 32.54 23.19 33.73 23.38 35.02V35.03Z" stroke="#F6F6FB" stroke-width="1.75" stroke-linejoin="round"/>
<path d="M8.97021 38.7201H19.2502C18.8702 41.9101 18.5102 45.0001 18.1302 48.1001C17.9302 49.7801 17.6602 51.4601 17.5002 53.1501C17.3902 54.2801 16.7902 54.7201 15.7402 54.7101C15.7002 54.7101 15.6502 54.7101 15.6102 54.7101C10.6602 54.7101 11.4502 55.1101 10.7002 50.5401C10.1502 47.1901 9.67021 43.8301 9.16021 40.4801C9.08021 39.9501 9.04021 39.4201 8.97021 38.7201Z" stroke="#F6F6FB" stroke-width="1.75" stroke-linejoin="round"/>
<path d="M71.8002 108.56C70.9102 108.56 70.0102 108.61 69.1202 108.55C68.1702 108.48 67.6902 107.87 67.6902 106.93C67.6902 105.99 68.1902 105.37 69.1402 105.34C70.9302 105.29 72.7202 105.28 74.5002 105.34C75.4302 105.37 75.9702 105.92 75.9902 106.89C76.0102 107.92 75.4802 108.5 74.4802 108.56C73.5902 108.62 72.6902 108.57 71.8002 108.57C71.8002 108.57 71.8002 108.57 71.8002 108.56Z" stroke="#F6F6FB" stroke-width="1.75" stroke-linejoin="round"/>
<path d="M76.5801 43.1601C70.1301 43.1601 63.6801 43.1901 57.2301 43.1301C56.0001 43.1201 55.6101 43.4801 55.6201 44.7201C55.6701 52.5601 55.6701 60.3901 55.6201 68.2301C55.6201 69.4701 56.0001 69.8401 57.2401 69.8401C70.1801 69.8001 83.1301 69.8001 96.0701 69.8401C97.3401 69.8401 97.6601 69.4301 97.6501 68.2201C97.6001 60.3801 97.6001 52.5501 97.6501 44.7101C97.6501 43.4701 97.2901 43.1201 96.0601 43.1301C89.5701 43.1901 83.0701 43.1601 76.5801 43.1601Z" stroke="#F6F6FB" stroke-width="1.75" stroke-linejoin="round"/>
<path d="M65.6301 55.92C65.6301 55.92 63.6001 58.61 62.5501 60.49C61.9201 61.61 66.2501 63.27 68.0201 63.62C70.2801 64.07 76.9001 64.63 81.6701 63.85C85.8701 63.17 89.1201 62.39 88.8601 60.88C88.7401 60.21 82.7601 50.89 81.9001 50C80.8101 48.87 79.6301 51.09 77.3801 51.48C75.1301 51.87 74.1301 51.56 72.5001 50.62C71.4501 50.02 71.3301 48.94 70.4701 49.73C69.7801 50.37 65.6201 55.91 65.6201 55.91L65.6301 55.92Z" stroke="#F6F6FB" stroke-width="1.75" stroke-linejoin="round"/>
</svg>
