<?xml version="1.0" encoding="UTF-8"?>
<svg id="Layer_2" data-name="Layer 2" xmlns="http://www.w3.org/2000/svg" viewBox="0 0 85.5 115.34">
  <defs>
    <style>
      .cls-1 {
        stroke: #0092ce;
        stroke-width: 1.5px;
      }

      .cls-1, .cls-2 {
        fill: none;
        stroke-linejoin: round;
      }

      .cls-2 {
        stroke: #eb8467;
        stroke-width: 1.11px;
      }
    </style>
  </defs>
  <g id="Layer_1-2" data-name="Layer 1">
    <g>
      <path class="cls-1" d="m36.17,49.02c.16-2.01.16-2-1.46-2.86-4.42-2.36-7.38-5.93-8.81-10.73-.19-.63-.46-.98-1.1-1.24-5.02-2.1-6.3-8.45-2.56-12.4.29-.3.48-.83.49-1.25.04-2.56.08-5.13,0-7.69-.1-3.6,1.5-6.25,4.39-8.21,2.77-1.88,5.91-2.84,9.18-3.34,6.13-.95,12.2-.73,18.1,1.35,2.12.75,4.07,1.81,5.69,3.41,1.77,1.74,2.66,3.84,2.66,6.32,0,2.71-.02,5.43.03,8.14,0,.45.21,1,.51,1.33,3.73,4.02,2.35,10.36-2.75,12.41-.51.21-.72.48-.87,1-1.52,5.13-4.68,8.9-9.51,11.23-1.46.71-1.47.69-1.2,2.55.87,0,1.77,0,2.66,0,2.8-.01,5.61-.07,8.35.68,4.16,1.15,7.64,3.36,10.39,6.69.41.49.82.69,1.45.67,1.84-.04,3.68-.03,5.52-.01,4.21.03,7.4,3.18,7.41,7.38.01,14.23.01,28.47,0,42.7,0,4.17-3.1,7.31-7.27,7.45-.21,0-.42,0-.63,0-22.73,0-45.46,0-68.18,0-4.83,0-7.9-3.07-7.9-7.92,0-14.02,0-28.05,0-42.07,0-3.86,2.63-7.04,6.26-7.46,1.49-.17,3.02-.17,4.51-.06,1.97.15,3.37-.36,4.82-1.93,3.91-4.25,8.98-6.13,14.74-6.13,1.68,0,3.36,0,5.08,0Zm-7.39-26.49c0,2.8-.06,5.65.01,8.51.17,7.37,6.3,13.39,13.7,13.52,7.45.13,13.83-5.68,14.19-13.08.17-3.49-.03-6.99.12-10.49.06-1.58-.34-2.66-1.67-3.54-1.24-.82-2.33-1.86-3.52-2.83-3.04,3.7-7.05,5.47-11.5,6.27-3.7.66-7.44,1.08-11.32,1.63Zm28.31,34.45c.04-.08,6.13-.06,8.74-.15-1.19-.77-2.23-1.7-3.47-2.39-3.37-1.87-7.07-1.98-10.79-1.83-.24,0-.52.26-.71.46-1.04,1.13-2.06,2.28-3.07,3.43-.12.14-.19.31-.3.49,6.17,0,3.63.21,9.61-.01Zm-37.6,0h18.4c-1.36-1.45-2.6-2.8-3.87-4.13-.13-.13-.36-.24-.54-.24-2.41-.04-4.82-.09-7.17.58-2.52.72-4.77,1.91-6.82,3.79Zm-8.62,9.32c1.98,0,3.84,0,5.71,0,1,0,1.58-.52,1.58-1.34,0-.82-.59-1.31-1.6-1.32-2.23,0-4.46,0-6.69,0-1.18,0-1.64.47-1.65,1.64,0,.42,0,.84,0,1.27,0,2.08-.05,4.16.04,6.24.02.46.44,1.05.85,1.31.29.18.99.03,1.28-.23.31-.27.47-.84.48-1.28.05-2.05.02-4.09.02-6.28Zm63.77,0c0,.49,0,.85,0,1.2,0,1.75-.02,3.5,0,5.25.01.91.59,1.51,1.35,1.49.73-.02,1.28-.61,1.29-1.46.01-2.56.02-5.13,0-7.69,0-.95-.51-1.45-1.47-1.45-2.35-.02-4.7-.02-7.05.01-.36,0-.87.16-1.02.42-.23.39-.44,1.05-.25,1.37.24.41.86.8,1.33.82,1.89.09,3.79.04,5.82.04Zm0,38.95c-.38.02-.64.05-.9.05-1.63,0-3.25-.01-4.88,0-.93.01-1.51.54-1.53,1.32-.01.78.57,1.33,1.49,1.33,2.35.01,4.7.02,7.05,0,.87,0,1.4-.48,1.41-1.31.03-2.65.02-5.3,0-7.96,0-.78-.61-1.34-1.33-1.31-.77.04-1.22.49-1.29,1.25-.05.54-.02,1.08-.02,1.63,0,1.65,0,3.3,0,4.99Zm-63.77.05c0-.45,0-.77,0-1.1,0-1.81.02-3.62-.01-5.42-.01-.85-.6-1.44-1.34-1.4-.77.04-1.28.48-1.29,1.24-.04,2.71-.03,5.42,0,8.13,0,.67.47,1.17,1.15,1.18,2.53.04,5.06.04,7.59,0,.69,0,1.1-.48,1.17-1.16.07-.72-.28-1.22-1-1.4-.29-.07-.6-.07-.9-.07-1.74,0-3.49,0-5.37,0Z"/>
      <path class="cls-2" d="m42.81,41.37c-1.33-.03-2.46-.48-3.46-1.26-.63-.49-.75-1.26-.35-1.84.4-.58,1.2-.79,1.84-.33,1.3.93,2.52.95,3.82,0,.64-.46,1.42-.26,1.84.32.42.59.3,1.34-.33,1.84-1,.78-2.13,1.23-3.37,1.27Z"/>
      <path class="cls-2" d="m49.94,24.54c1.38-.02,2.49,1.06,2.5,2.42,0,1.31-1.07,2.42-2.39,2.45-1.35.04-2.47-1.06-2.48-2.44,0-1.36,1.02-2.42,2.37-2.44Z"/>
      <path class="cls-2" d="m37.97,27c-.02,1.36-1.16,2.45-2.52,2.42-1.32-.03-2.36-1.13-2.35-2.48.01-1.39,1.11-2.44,2.49-2.4,1.34.04,2.39,1.13,2.37,2.46Z"/>
      <path class="cls-2" d="m41.44,31.18c0-.39-.02-.78,0-1.17.06-.79.54-1.22,1.28-1.24.7-.02,1.25.37,1.31,1.1.08.89.08,1.8,0,2.69-.07.72-.61,1.09-1.34,1.06-.73-.03-1.16-.45-1.24-1.18-.04-.42,0-.84,0-1.26,0,0,0,0,0,0Z"/>
      <path class="cls-2" d="m57.62,96.61c.66-.13,1.32-.25,1.83.38.54.67.27,1.33-.08,1.93-.8,1.37-1.5,2.84-2.51,4.04-2.25,2.69-5.1,2.96-7.76.69-1.38-1.17-2.54-2.65-3.59-4.13-1.05-1.48-1.84-3.14-2.78-4.8-.35.68-.63,1.38-1.04,1.99-1.27,1.93-2.52,3.88-3.93,5.7-.66.85-1.63,1.52-2.59,2.07-1.89,1.07-3.77.87-5.47-.5-1.89-1.52-3.02-3.58-3.85-5.8-.42-1.12.52-1.82,2.02-1.58l-.03-.02c.37.68.7,1.39,1.12,2.04.68,1.05,1.33,2.16,2.17,3.08.92,1.01,1.99,1.1,3.09.29.91-.66,1.85-1.43,2.44-2.37,1.49-2.36,2.79-4.84,4.13-7.29.13-.24.05-.68-.08-.96-.25-.54-.61-1.03-.95-1.6-2.47.96-5.07,1.44-7.73,1.3-1.24-.07-2.53-.29-3.7-.71-2.39-.86-3.66-3.2-3.29-5.7.14-.94.68-1.44,1.48-1.38.81.06,1.24.64,1.19,1.6-.1,2.03.58,2.98,2.57,3.37,2.33.47,4.61-.02,6.89-.48.59-.12,1.17-.27,1.83-.42-.16-.88-.31-1.73-.44-2.49-1.59.09-3.14.36-4.67.23-1.78-.16-3.61-.44-5.26-1.08-2.72-1.05-3.58-3.66-2.38-6.34.38-.85.92-1.32,1.99-1.07-.48-1.35-.34-2.61.34-3.77.64-1.1,1.22-2.31,2.55-2.59.17-.76.22-1.54.52-2.19.61-1.29,1.97-1.84,3.63-1.48,1.73.37,3.45.82,5.16,1.29,1.55.43,3.07.43,4.63,0,1.62-.46,3.25-.9,4.9-1.23,2.75-.56,4.32.79,4.22,3.57,2.22.64,3.73,3.7,3.09,6.26,1.79.28,2.79,2.1,2.37,4.3-.26,1.4-1.06,2.4-2.31,3.06-1.72.91-3.59,1.22-5.5,1.27-1.55.04-3.11-.09-4.73-.14-.13.72-.29,1.54-.45,2.42,2.58.69,5.13,1.25,7.78,1.03,2.43-.21,3.33-1.22,3.29-3.65-.01-.8.46-1.38,1.18-1.45.78-.07,1.32.4,1.48,1.26.45,2.49-.88,4.9-3.25,5.82-1.75.68-3.58.79-5.43.63-.99-.09-1.98-.21-2.95-.39-.97-.18-1.93-.45-2.9-.69-.38.57-.8,1.15-1.17,1.77-.1.17-.12.46-.04.64,1.28,2.97,2.74,5.84,4.91,8.28.34.38.72.73,1.13,1.04,1.56,1.19,2.87,1.12,4.09-.39.79-.97,1.36-2.12,2.01-3.2.29-.48.54-.99.8-1.48l-.03.02Zm-14.7-6.63c.36-.9.71-1.56.91-2.27,1.05-3.72,1.32-7.52.96-11.36-.1-1.09-.4-2.19-.78-3.22-.15-.41-.76-.92-1.16-.91-.4,0-.91.52-1.16.94-.31.53-.46,1.18-.57,1.79-.58,3.24-.37,6.48.12,9.71.26,1.75.58,3.5,1.68,5.32Zm-4.77-10.18c-3.33.37-6.32-.25-9.07-1.99-.11.29-.22.59-.35.89-.66,1.63-.22,2.67,1.42,3.26.36.13.75.28,1.13.28,2.3.03,4.61.01,6.97.01-.03-.77-.07-1.6-.11-2.45Zm9.31,2.62c.8,0,1.52.03,2.23,0,1.76-.1,3.56-.08,5.28-.4,2.04-.38,2.52-1.56,1.74-3.46-.1-.25-.18-.5-.27-.76-2.66,1.8-5.65,2.21-8.8,2.12-.06.82-.11,1.58-.18,2.51Zm-9.08-7.17c-2.33-.44-4.28-1.45-6.06-3.06-.48.66-.99,1.25-1.36,1.92-.61,1.1-.34,1.8.83,2.28.49.2,1.03.35,1.56.43,1.59.24,3.19.42,4.81.63.07-.73.14-1.44.22-2.2Zm9.2,2.11c1.12-.12,2.11-.2,3.08-.34.89-.13,1.79-.25,2.64-.5,1.72-.52,2-1.38.99-2.88-.33-.49-.74-.93-.95-1.18-2.03,1.05-3.95,2.05-5.95,3.08.04.46.11,1.12.17,1.82Zm-7.36-6.84c-1.77-.44-3.5-.89-5.24-1.29-.31-.07-.66.08-1,.13.12.38.13.85.37,1.11.4.42.92.77,1.45,1.03,1.02.49,2.07.9,3.1,1.33.45-.79.86-1.51,1.31-2.3Zm6.6,2.21c.87-.36,1.73-.64,2.53-1.06.68-.36,1.33-.82,1.91-1.33.22-.19.21-.64.3-.97-.3-.06-.63-.22-.9-.16-1.73.39-3.44.82-5.19,1.25.46.77.87,1.46,1.35,2.26Z"/>
      <path class="cls-2" d="m27.86,96.61c-2.48-1.47-3.42-3.33-2.85-5.61.21-.86.79-1.31,1.55-1.16.81.16,1.11.71,1.08,1.52-.07,1.88.9,3.1,2.78,2.99,1.99-.11,3.99-.73,5.96-1.07.29-.05.54-.08.83-.15.77-.17,1.43.19,1.66.88.22.68-.1,1.42-.88,1.63-1.83.48-3.66,1.04-5.53,1.23-1.52.16-3.03.39-4.63-.28,0,0,.03.02.03.02Z"/>
      <path class="cls-2" d="m57.65,96.46c-3.59,1.28-7.03.18-10.24-.9-.72-.22-.98-.95-.74-1.7.24-.74,1.17-.88,2.01-.66,1.45.37,2.65.72,4.12,1.02.81.16,1.72.2,2.56.14,1.68-.12,2.56-1.31,2.55-2.98.04-1,.35-1.41,1.16-1.47.81-.06,1.13-.05,1.51,1.24.31,2.14-.11,3.51-2.39,5.08,0,0-.53.24-.53.24Z"/>
    </g>
  </g>
</svg>