<svg width="86" height="116" viewBox="0 0 86 116" fill="none" xmlns="http://www.w3.org/2000/svg">
<path d="M36.17 49.02C36.33 47.01 36.33 47.02 34.71 46.16C30.29 43.8 27.33 40.23 25.9 35.43C25.71 34.8 25.44 34.4499 24.8 34.1899C19.78 32.0899 18.5 25.74 22.24 21.79C22.53 21.49 22.72 20.96 22.73 20.54C22.77 17.98 22.81 15.41 22.73 12.85C22.63 9.24995 24.23 6.59995 27.12 4.63995C29.89 2.75995 33.03 1.79995 36.3 1.29995C42.43 0.34995 48.5 0.56995 54.4 2.64995C56.52 3.39995 58.47 4.45995 60.09 6.05995C61.86 7.79995 62.75 9.89995 62.75 12.38C62.75 15.09 62.73 17.81 62.78 20.52C62.78 20.97 62.99 21.52 63.29 21.85C67.02 25.87 65.64 32.2099 60.54 34.2599C60.03 34.4699 59.82 34.7399 59.67 35.2599C58.15 40.3899 54.99 44.16 50.16 46.49C48.7 47.2 48.69 47.18 48.96 49.04C49.83 49.04 50.73 49.04 51.62 49.04C54.42 49.03 57.23 48.97 59.97 49.72C64.13 50.87 67.61 53.08 70.36 56.41C70.77 56.9 71.18 57.1 71.81 57.08C73.65 57.04 75.49 57.05 77.33 57.07C81.54 57.1 84.73 60.2499 84.74 64.4499C84.75 78.6799 84.75 92.9199 84.74 107.15C84.74 111.32 81.64 114.46 77.47 114.6C77.26 114.6 77.05 114.6 76.84 114.6C54.11 114.6 31.38 114.6 8.66001 114.6C3.83001 114.6 0.76001 111.53 0.76001 106.68C0.76001 92.6599 0.76001 78.63 0.76001 64.61C0.76001 60.75 3.39001 57.57 7.02001 57.15C8.51001 56.98 10.04 56.98 11.53 57.09C13.5 57.24 14.9 56.73 16.35 55.16C20.26 50.91 25.33 49.0299 31.09 49.0299C32.77 49.0299 34.45 49.0299 36.17 49.0299V49.02ZM28.78 22.53C28.78 25.33 28.72 28.18 28.79 31.04C28.96 38.41 35.09 44.43 42.49 44.56C49.94 44.69 56.32 38.88 56.68 31.4799C56.85 27.9899 56.65 24.49 56.8 20.99C56.86 19.41 56.46 18.33 55.13 17.45C53.89 16.63 52.8 15.59 51.61 14.62C48.57 18.32 44.56 20.0899 40.11 20.8899C36.41 21.5499 32.67 21.97 28.79 22.52L28.78 22.53ZM57.09 56.9799C57.13 56.8999 63.22 56.92 65.83 56.83C64.64 56.06 63.6 55.1299 62.36 54.4399C58.99 52.5699 55.29 52.46 51.57 52.61C51.33 52.61 51.05 52.87 50.86 53.07C49.82 54.2 48.8 55.35 47.79 56.5C47.67 56.64 47.6 56.81 47.49 56.99C53.66 56.99 51.12 57.1999 57.1 56.9799H57.09ZM19.49 56.9799H37.89C36.53 55.5299 35.29 54.1799 34.02 52.8499C33.89 52.7199 33.66 52.61 33.48 52.61C31.07 52.57 28.66 52.5199 26.31 53.1899C23.79 53.9099 21.54 55.0999 19.49 56.9799ZM10.87 66.2999C12.85 66.2999 14.71 66.2999 16.58 66.2999C17.58 66.2999 18.16 65.7799 18.16 64.9599C18.16 64.1399 17.57 63.6499 16.56 63.6399C14.33 63.6399 12.1 63.6399 9.87001 63.6399C8.69001 63.6399 8.23001 64.1099 8.22001 65.2799C8.22001 65.6999 8.22001 66.1199 8.22001 66.5499C8.22001 68.6299 8.17001 70.7099 8.26001 72.7899C8.28001 73.2499 8.70001 73.8399 9.11001 74.0999C9.40001 74.2799 10.1 74.1299 10.39 73.8699C10.7 73.5999 10.86 73.0299 10.87 72.5899C10.92 70.5399 10.89 68.4999 10.89 66.3099L10.87 66.2999ZM74.64 66.2999C74.64 66.7899 74.64 67.1499 74.64 67.4999C74.64 69.2499 74.62 70.9999 74.64 72.7499C74.65 73.6599 75.23 74.2599 75.99 74.2399C76.72 74.2199 77.27 73.6299 77.28 72.7799C77.29 70.2199 77.3 67.6499 77.28 65.0899C77.28 64.1399 76.77 63.6399 75.81 63.6399C73.46 63.6199 71.11 63.62 68.76 63.65C68.4 63.65 67.89 63.81 67.74 64.07C67.51 64.46 67.3 65.1199 67.49 65.4399C67.73 65.8499 68.35 66.2399 68.82 66.2599C70.71 66.3499 72.61 66.2999 74.64 66.2999ZM74.64 105.25C74.26 105.27 74 105.3 73.74 105.3C72.11 105.3 70.49 105.29 68.86 105.3C67.93 105.31 67.35 105.84 67.33 106.62C67.32 107.4 67.9 107.95 68.82 107.95C71.17 107.96 73.52 107.97 75.87 107.95C76.74 107.95 77.27 107.47 77.28 106.64C77.31 103.99 77.3 101.34 77.28 98.6799C77.28 97.8999 76.67 97.3399 75.95 97.3699C75.18 97.4099 74.73 97.8599 74.66 98.6199C74.61 99.1599 74.64 99.6999 74.64 100.25C74.64 101.9 74.64 103.55 74.64 105.24V105.25ZM10.87 105.3C10.87 104.85 10.87 104.53 10.87 104.2C10.87 102.39 10.89 100.58 10.86 98.7799C10.85 97.9299 10.26 97.3399 9.52001 97.3799C8.75001 97.4199 8.24001 97.8599 8.23001 98.6199C8.19001 101.33 8.20001 104.04 8.23001 106.75C8.23001 107.42 8.70001 107.92 9.38001 107.93C11.91 107.97 14.44 107.97 16.97 107.93C17.66 107.93 18.07 107.45 18.14 106.77C18.21 106.05 17.86 105.55 17.14 105.37C16.85 105.3 16.54 105.3 16.24 105.3C14.5 105.3 12.75 105.3 10.87 105.3Z" stroke="#F6F6FB" stroke-width="1.5" stroke-linejoin="round"/>
<path d="M42.8099 41.3699C41.4799 41.3399 40.3499 40.8899 39.3499 40.1099C38.7199 39.6199 38.5999 38.8499 38.9999 38.2699C39.3999 37.6899 40.1999 37.4799 40.8399 37.9399C42.1399 38.8699 43.3599 38.8899 44.6599 37.9399C45.2999 37.4799 46.0799 37.6799 46.4999 38.2599C46.9199 38.8499 46.7999 39.5999 46.1699 40.0999C45.1699 40.8799 44.0399 41.3299 42.7999 41.3699H42.8099Z" stroke="#F6F6FB" stroke-width="1.11" stroke-linejoin="round"/>
<path d="M49.9401 24.5399C51.3201 24.5199 52.4301 25.5999 52.4401 26.9599C52.4401 28.2699 51.3701 29.3799 50.0501 29.4099C48.7001 29.4499 47.5801 28.3499 47.5701 26.9699C47.5701 25.6099 48.5901 24.5499 49.9401 24.5299V24.5399Z" stroke="#F6F6FB" stroke-width="1.11" stroke-linejoin="round"/>
<path d="M37.9699 26.9999C37.9499 28.3599 36.8099 29.4499 35.4499 29.4199C34.1299 29.3899 33.0899 28.2899 33.0999 26.9399C33.1099 25.5499 34.2099 24.4999 35.5899 24.5399C36.9299 24.5799 37.9799 25.6699 37.9599 26.9999H37.9699Z" stroke="#F6F6FB" stroke-width="1.11" stroke-linejoin="round"/>
<path d="M41.44 31.1799C41.44 30.7899 41.42 30.3999 41.44 30.0099C41.5 29.2199 41.98 28.7899 42.72 28.7699C43.42 28.7499 43.97 29.1399 44.03 29.8699C44.11 30.7599 44.11 31.6699 44.03 32.5599C43.96 33.2799 43.42 33.6499 42.69 33.6199C41.96 33.5899 41.53 33.1699 41.45 32.4399C41.41 32.0199 41.45 31.5999 41.45 31.1799H41.44Z" stroke="#F6F6FB" stroke-width="1.11" stroke-linejoin="round"/>
<path d="M57.6199 96.61C58.2799 96.48 58.9399 96.36 59.4499 96.99C59.9899 97.66 59.7199 98.32 59.3699 98.92C58.5699 100.29 57.8699 101.76 56.8599 102.96C54.6099 105.65 51.7599 105.92 49.0999 103.65C47.7199 102.48 46.5599 101 45.5099 99.52C44.4599 98.04 43.6699 96.38 42.7299 94.72C42.3799 95.4 42.0999 96.1 41.6899 96.71C40.4199 98.64 39.1699 100.59 37.7599 102.41C37.0999 103.26 36.1299 103.93 35.1699 104.48C33.2799 105.55 31.3999 105.35 29.6999 103.98C27.8099 102.46 26.6799 100.4 25.8499 98.18C25.4299 97.06 26.3699 96.36 27.8699 96.6L27.8399 96.58C28.2099 97.26 28.5399 97.97 28.9599 98.62C29.6399 99.67 30.2899 100.78 31.1299 101.7C32.0499 102.71 33.1199 102.8 34.2199 101.99C35.1299 101.33 36.0699 100.56 36.6599 99.62C38.1499 97.26 39.4499 94.78 40.7899 92.33C40.9199 92.09 40.8399 91.65 40.7099 91.37C40.4599 90.83 40.0999 90.34 39.7599 89.77C37.2899 90.73 34.6899 91.21 32.0299 91.07C30.7899 91 29.4999 90.78 28.3299 90.36C25.9399 89.5 24.6699 87.16 25.0399 84.66C25.1799 83.72 25.7199 83.22 26.5199 83.28C27.3299 83.34 27.7599 83.92 27.7099 84.88C27.6099 86.91 28.2899 87.86 30.2799 88.25C32.6099 88.72 34.8899 88.23 37.1699 87.77C37.7599 87.65 38.3399 87.5 38.9999 87.35C38.8399 86.47 38.6899 85.62 38.5599 84.86C36.9699 84.95 35.4199 85.22 33.8899 85.09C32.1099 84.93 30.2799 84.65 28.6299 84.01C25.9099 82.96 25.0499 80.35 26.2499 77.67C26.6299 76.82 27.1699 76.35 28.2399 76.6C27.7599 75.25 27.8999 73.99 28.5799 72.83C29.2199 71.73 29.7999 70.52 31.1299 70.24C31.2999 69.48 31.3499 68.7 31.6499 68.05C32.2599 66.76 33.6199 66.21 35.2799 66.57C37.0099 66.94 38.7299 67.39 40.4399 67.86C41.9899 68.29 43.5099 68.29 45.0699 67.86C46.6899 67.4 48.3199 66.96 49.9699 66.63C52.7199 66.07 54.2899 67.42 54.1899 70.2C56.4099 70.84 57.9199 73.9 57.2799 76.46C59.0699 76.74 60.0699 78.56 59.6499 80.76C59.3899 82.16 58.5899 83.16 57.3399 83.82C55.6199 84.73 53.7499 85.04 51.8399 85.09C50.2899 85.13 48.7299 85 47.1099 84.95C46.9799 85.67 46.8199 86.49 46.6599 87.37C49.2399 88.06 51.7899 88.62 54.4399 88.4C56.8699 88.19 57.7699 87.18 57.7299 84.75C57.7199 83.95 58.1899 83.37 58.9099 83.3C59.6899 83.23 60.2299 83.7 60.3899 84.56C60.8399 87.05 59.5099 89.46 57.1399 90.38C55.3899 91.06 53.5599 91.17 51.7099 91.01C50.7199 90.92 49.7299 90.8 48.7599 90.62C47.7899 90.44 46.8299 90.17 45.8599 89.93C45.4799 90.5 45.0599 91.08 44.6899 91.7C44.5899 91.87 44.5699 92.16 44.6499 92.34C45.9299 95.31 47.3899 98.18 49.5599 100.62C49.8999 101 50.2799 101.35 50.6899 101.66C52.2499 102.85 53.5599 102.78 54.7799 101.27C55.5699 100.3 56.1399 99.15 56.7899 98.07C57.0799 97.59 57.3299 97.08 57.5899 96.59L57.5599 96.61H57.6199ZM42.9199 89.98C43.2799 89.08 43.6299 88.42 43.8299 87.71C44.8799 83.99 45.1499 80.19 44.7899 76.35C44.6899 75.26 44.3899 74.16 44.0099 73.13C43.8599 72.72 43.2499 72.21 42.8499 72.22C42.4499 72.22 41.9399 72.74 41.6899 73.16C41.3799 73.69 41.2299 74.34 41.1199 74.95C40.5399 78.19 40.7499 81.43 41.2399 84.66C41.4999 86.41 41.8199 88.16 42.9199 89.98ZM38.1499 79.8C34.8199 80.17 31.8299 79.55 29.0799 77.81C28.9699 78.1 28.8599 78.4 28.7299 78.7C28.0699 80.33 28.5099 81.37 30.1499 81.96C30.5099 82.09 30.8999 82.24 31.2799 82.24C33.5799 82.27 35.8899 82.25 38.2499 82.25C38.2199 81.48 38.1799 80.65 38.1399 79.8H38.1499ZM47.4599 82.42C48.2599 82.42 48.9799 82.45 49.6899 82.42C51.4499 82.32 53.2499 82.34 54.9699 82.02C57.0099 81.64 57.4899 80.46 56.7099 78.56C56.6099 78.31 56.5299 78.06 56.4399 77.8C53.7799 79.6 50.7899 80.01 47.6399 79.92C47.5799 80.74 47.5299 81.5 47.4599 82.43V82.42ZM38.3799 75.25C36.0499 74.81 34.0999 73.8 32.3199 72.19C31.8399 72.85 31.3299 73.44 30.9599 74.11C30.3499 75.21 30.6199 75.91 31.7899 76.39C32.2799 76.59 32.8199 76.74 33.3499 76.82C34.9399 77.06 36.5399 77.24 38.1599 77.45C38.2299 76.72 38.2999 76.01 38.3799 75.25ZM47.5799 77.36C48.6999 77.24 49.6899 77.16 50.6599 77.02C51.5499 76.89 52.4499 76.77 53.2999 76.52C55.0199 76 55.2999 75.14 54.2899 73.64C53.9599 73.15 53.5499 72.71 53.3399 72.46C51.3099 73.51 49.3899 74.51 47.3899 75.54C47.4299 76 47.4999 76.66 47.5599 77.36H47.5799ZM40.2199 70.52C38.4499 70.08 36.7199 69.63 34.9799 69.23C34.6699 69.16 34.3199 69.31 33.9799 69.36C34.0999 69.74 34.1099 70.21 34.3499 70.47C34.7499 70.89 35.2699 71.24 35.7999 71.5C36.8199 71.99 37.8699 72.4 38.8999 72.83C39.3499 72.04 39.7599 71.32 40.2099 70.53L40.2199 70.52ZM46.8199 72.73C47.6899 72.37 48.5499 72.09 49.3499 71.67C50.0299 71.31 50.6799 70.85 51.2599 70.34C51.4799 70.15 51.4699 69.7 51.5599 69.37C51.2599 69.31 50.9299 69.15 50.6599 69.21C48.9299 69.6 47.2199 70.03 45.4699 70.46C45.9299 71.23 46.3399 71.92 46.8199 72.72V72.73Z" stroke="#F6F6FB" stroke-width="1.11" stroke-linejoin="round"/>
<path d="M27.8601 96.6099C25.3801 95.1399 24.44 93.2799 25.01 90.9999C25.22 90.1399 25.8 89.6899 26.56 89.8399C27.37 89.9999 27.67 90.5499 27.64 91.3599C27.57 93.2399 28.54 94.4599 30.42 94.3499C32.41 94.2399 34.4101 93.6199 36.3801 93.2799C36.6701 93.2299 36.92 93.1999 37.21 93.1299C37.98 92.9599 38.64 93.3199 38.87 94.0099C39.09 94.6899 38.7701 95.4299 37.9901 95.6399C36.1601 96.1199 34.33 96.6799 32.46 96.8699C30.94 97.0299 29.43 97.2599 27.83 96.5899L27.8601 96.6099Z" stroke="#F6F6FB" stroke-width="1.11" stroke-linejoin="round"/>
<path d="M57.65 96.4599C54.06 97.7399 50.62 96.6399 47.41 95.5599C46.69 95.3399 46.43 94.6099 46.67 93.8599C46.91 93.1199 47.84 92.9799 48.68 93.1999C50.13 93.5699 51.33 93.9199 52.8 94.2199C53.61 94.3799 54.52 94.4199 55.36 94.3599C57.04 94.2399 57.92 93.0499 57.91 91.3799C57.95 90.3799 58.26 89.9699 59.07 89.9099C59.88 89.8499 60.2 89.8599 60.58 91.1499C60.89 93.2899 60.47 94.6599 58.19 96.2299L57.66 96.4699L57.65 96.4599Z" stroke="#F6F6FB" stroke-width="1.11" stroke-linejoin="round"/>
</svg>
