<svg width="116" height="117" viewBox="0 0 116 117" fill="none" xmlns="http://www.w3.org/2000/svg">
<g clip-path="url(#clip0_134_194)">
<path d="M37.2799 12.59V16.88H40.3399V15.58C40.3399 11.69 40.3399 7.80002 40.3399 3.91002C40.3399 3.60002 40.3399 3.28002 40.3399 2.97002C40.4399 0.850016 40.6599 0.660016 42.7499 1.03002C55.1999 3.21002 67.6499 5.40002 80.0899 7.59002C81.1699 7.78002 82.2599 7.95002 83.3399 8.15002C84.7099 8.41002 85.0899 8.85002 85.0999 10.2C85.1199 13.7 85.1399 17.2 85.1399 20.69C85.1399 22.38 84.7699 22.73 83.0399 22.74C71.1299 22.76 59.2199 22.77 47.3099 22.78C46.8399 22.78 46.3699 22.78 45.8099 22.78V50.68H80.3499C80.3499 50.8 80.3599 50.91 80.3699 51.03C76.4199 51.84 72.4699 52.63 68.5399 53.47C67.5099 53.69 66.4499 53.93 65.5299 54.41C63.6899 55.35 63.0299 57.18 63.6499 59.1C64.2299 60.89 65.9199 62.08 67.8699 61.75C71.8499 61.08 75.8199 60.27 79.7799 59.49C81.1599 59.22 82.5099 58.84 83.9699 58.49C83.9699 60.67 84.0799 62.85 83.9199 65.01C83.8499 66.06 82.7499 66.28 81.8399 66.37C80.9799 66.45 80.1099 66.42 79.2499 66.42C65.8499 66.42 52.4399 66.42 39.0399 66.42H37.5799V109.52H45.7399V114.67H0.879883V109.81H9.32988V12.59H37.2899H37.2799Z" stroke="#F6F6FB" stroke-width="1.75" stroke-linejoin="round"/>
<path d="M77.23 88.7401C80.78 83.4601 83.17 77.9601 84.25 71.9901C84.99 67.8701 85.38 63.6701 85.74 59.5001C85.88 57.9201 86.54 56.9801 87.84 56.2601C91.35 54.3001 94.4 51.8001 96.56 48.3501C97.28 47.1901 97.91 45.9501 98.38 44.6701C99.15 42.5601 98.13 40.4101 96.13 39.6301C94.07 38.8201 91.91 39.7301 90.98 41.8401C89.33 45.6001 86.36 48.0001 82.85 49.8801C82.3 50.1701 81.74 50.4501 81.18 50.7401C79.05 48.0801 79.41 45.6501 82.27 43.8201C83.09 43.2901 83.98 42.8501 84.84 42.3901C86.3 41.6101 87.43 40.5201 88.26 39.0801C91.3 33.8101 98.38 33.1401 102.45 37.7001C106.5 42.2401 108.7 47.7101 110.33 53.4601C112.35 60.5901 113.21 67.9201 113.88 75.2701C114.15 78.2401 114.28 81.2301 114.57 84.1901C114.76 86.1001 114.15 87.5201 112.59 88.6501C105.29 93.9501 97.26 95.0001 88.74 92.6501C84.9 91.5901 81.18 90.0901 77.23 88.7301V88.7401Z" stroke="#F6F6FB" stroke-width="1.75" stroke-linejoin="round"/>
<path d="M97.49 32.66C91.67 32.64 87.19 28.14 87.2 22.33C87.21 16.63 91.86 12.1 97.66 12.14C103.53 12.19 107.85 16.76 107.79 22.87C107.74 28.32 103.16 32.67 97.49 32.66Z" stroke="#F6F6FB" stroke-width="1.75" stroke-linejoin="round"/>
<path d="M53.9098 31.76C53.9098 29.84 53.9698 28.08 53.8998 26.32C53.8198 24.36 54.3498 23.71 56.2798 23.71C58.6198 23.71 60.9698 23.71 63.3998 23.71V32.51C64.7498 32.64 66.0198 32.77 67.2998 32.87C72.6598 33.27 78.0198 33.66 83.3798 34.05C84.8598 34.16 85.1398 34.51 85.1198 36.33C85.0998 37.73 84.7398 38.13 83.2698 38.13C75.1398 38.13 67.0098 38.11 58.8898 38.1C56.4198 38.1 53.9398 38.14 51.4698 38.13C49.7998 38.13 49.3798 37.68 49.3198 36.04C49.2998 35.57 49.2798 35.1 49.2798 34.63C49.2798 32.35 49.6998 31.9 51.9998 31.77C52.5898 31.74 53.1698 31.77 53.9198 31.77L53.9098 31.76Z" stroke="#F6F6FB" stroke-width="1.75" stroke-linejoin="round"/>
<path d="M68.5999 60.97C65.7799 61 64.3499 59.91 64.2499 57.93C64.1699 56.29 65.0999 55.04 66.9899 54.62C69.8599 53.99 72.7799 53.54 75.6599 52.96C79.0599 52.28 82.3599 51.3 85.3299 49.42C88.1299 47.65 90.2199 45.27 91.5899 42.25C92.4599 40.33 94.1099 39.62 95.9099 40.37C97.5599 41.06 98.2799 42.84 97.5799 44.72C95.8999 49.23 92.6199 52.38 88.6799 54.92C83.2099 58.46 77.0699 59.98 70.6999 60.74C69.8799 60.84 69.0599 60.92 68.5999 60.98V60.97Z" stroke="#F6F6FB" stroke-width="1.75" stroke-linejoin="round"/>
<path d="M92.2199 94.96H101.44C101.25 96.85 101.07 98.67 100.88 100.48C100.5 103.99 100.12 107.5 99.7099 111.01C99.3299 114.31 97.2199 116.14 94.3299 115.71C92.0099 115.37 90.4299 113.46 90.5299 111.1C90.5499 110.67 90.5599 110.24 90.6099 109.81C91.1399 104.9 91.6799 99.98 92.2199 94.95V94.96Z" stroke="#F6F6FB" stroke-width="1.75" stroke-linejoin="round"/>
<path d="M14.4599 28.29C14.4299 27.72 14.3999 27.22 14.3699 26.63H33.7599V28.29H14.4599Z" stroke="#F6F6FB" stroke-width="1.75" stroke-linejoin="round"/>
<path d="M14.4599 33.25C14.4299 32.69 14.3899 32.19 14.3599 31.6H33.7499V33.25H14.4599Z" stroke="#F6F6FB" stroke-width="1.75" stroke-linejoin="round"/>
<path d="M14.72 23.44C14.84 21.99 14.31 21.85 15.98 21.84C21.35 21.83 26.69 21.84 32.06 21.84C32.48 21.84 33.05 21.76 33.34 21.98C33.64 22.21 33.48 22.46 33.54 22.87C33.56 23.02 33.4 23.4 33.16 23.4C27.01 23.43 20.86 23.42 14.73 23.42L14.72 23.44Z" stroke="#F6F6FB" stroke-width="1.75" stroke-linejoin="round"/>
</g>
<defs>
<clipPath id="clip0_134_194">
<rect width="115.49" height="116.65" fill="white"/>
</clipPath>
</defs>
</svg>
