<?xml version="1.0" encoding="UTF-8"?>
<svg id="Layer_2" data-name="Layer 2" xmlns="http://www.w3.org/2000/svg" viewBox="0 0 125.27 112.95">
  <defs>
    <style>
      .cls-1 {
        stroke-width: 1.08px;
      }

      .cls-1, .cls-2 {
        stroke: #eb8467;
      }

      .cls-1, .cls-2, .cls-3 {
        fill: none;
        stroke-linejoin: round;
      }

      .cls-2 {
        stroke-width: .63px;
      }

      .cls-3 {
        stroke: #0092ce;
        stroke-width: 1.75px;
      }
    </style>
  </defs>
  <g id="Layer_1-2" data-name="Layer 1">
    <g>
      <g>
        <path class="cls-3" d="m87.23,80.18c.34,10.68.68,21.2,1.02,31.8-.38.02-.68.06-.97.06-5.37,0-10.74,0-16.11.04-.69,0-.99-.2-1.19-.86-2.78-9.06-5.63-18.11-8.39-27.18-1.34-4.41-.3-8.41,2.78-11.75,1.05-1.14,2.5-2.07,3.95-2.65,7.31-2.92,14.68-5.69,22.03-8.51.31-.12.62-.24,1.01-.38-.74-2.97-1.47-5.91-2.19-8.8-4.69,1.56-9.48,1.42-14.3,1.79v7.27h-18.77v51H14.48v-50.87H.88v-7.43h10.73c.68-2.68,1.02-2.97,3.81-3.31,0-.4,0-.82,0-1.25,0-6.11,0-12.21,0-18.32,0-3.07,1.94-5.04,5.01-5.07,2.52-.03,5.03-.01,7.55-.02.06,0,.13-.03.38-.09,0-1.44.07-2.94-.02-4.42-.08-1.21.3-2.08,1.17-2.92,3.64-3.52,7.22-7.1,10.83-10.65.78-.76,1.24-.76,2.05.02,1.18,1.14,2.36,2.29,3.52,3.45.85.85.85,1.27.02,2.1-1.21,1.2-2.36,2.33-3.51,3.46.83.88,1.51,1.76,2.29,2.54.11.11.38.18.52.11.76-.35,1.28-.01,1.77.51,1.01,1.08,2.02,2.14,3.08,3.27-.7.66-1.5,1.41-2.41,2.26-1.22-1.21-3.05-2.26-3.62-3.79-.35-1.15-2.81-2.8-3.08-3.35-.65.75-1.09,1.18-1.82,2.08.41.31,1.06.78,1.84,1.37-1.25,1.11-2.3,2.02-3.32,2.97-.17.16-.25.5-.26.76-.03,1.27-.01,2.53-.01,3.85-.49.03-.88.06-1.39.1v3.63c-.5.06-.88.11-.99.13-.42,1.15-.69,2.2-1.2,3.11-.19.34-.93.48-1.43.53-.92.09-1.69-.36-2.01-1.21-.27-.73-.27-1.56-.4-2.39-.29-.04-.62-.09-1.07-.15v-3.86c-.96.26-1.8.34-2.5.7-2.01,1.03-3.11,2.73-3.14,5.01-.04,2.42-.02,4.83-.01,7.25,0,3.94,2.63,6.53,6.59,6.53,5.47,0,10.94,0,16.41,0,.36,0,.72,0,1.16,0v4.98h14.9c-.41-.68-.92-.98-1.71-.95-2.07.09-4.02-.25-5.5-1.77-1.08.6-2.07,1.23-3.12,1.73-1.11.54-2.06.27-2.55-.6-.51-.9-.19-1.83.86-2.55,1.32-.91,2.58-1.94,3.97-2.73,1.75-.99,3.73-1.75,5.63-.65,2.37,1.38,4.62,1.19,7.19.62,4.51-1,9.12-1.55,13.69-2.23.64-.1.9-.3,1.05-.92.64-2.74,1.34-5.47,1.99-8.21.11-.45.14-.94.08-1.39-.35-2.76-.41-5.49.76-8.2-1.22-.64-2.39-1.25-3.55-1.85-.52.73-.92,1.39-1.42,1.97-.97,1.11-2.53,1.61-3.9.36-.39-.36-1.09-.36-1.59-.64-.43-.24-.77-.63-1.2-1.01-.41.31-.91.68-1.52,1.14-.71-1.26-1.39-2.48-2.08-3.68-.41-.71-.8-1.44-1.87-1.05-.13.05-.46-.19-.58-.37-.22-.33-.34-.72-.51-1.09-2.16.89-6.62-1.17-6.76-3.64-.07-1.25-.02-2.56.28-3.77,1.09-4.45,3.69-7.83,7.61-10.19,1.18-.71,2.44-1.11,3.84-.7.17.05.39.01.58-.04,1.92-.59,3.74-.27,5.43.7,4.11,2.34,6.82,5.78,7.81,10.46.12.57.02,1.19.02,2.01,1.42.9,3.08,1.96,4.76,3.03,2.27-1.46,4.58-1.33,6.74.06,1.85,1.19,3.7,2.47,5.25,4.01,4.6,4.57,8.48,9.68,10.78,15.85,1.28,3.43,1.62,7.05,2.06,10.64.6,4.94.73,9.89.35,14.87-.28,3.64-1.47,6.79-4.54,9.3,1.72,0,3.23,0,4.73,0,1.61,0,3.22-.05,4.83-.02,2.41.03,4.15,1.73,4.16,3.99,0,2.28-1.82,4.08-4.2,4.09-4.2.02-8.39,0-12.59,0-.36,0-.72,0-1.27,0,1.2,10.66,2.39,21.21,3.59,31.84h-7.31v-31.81h-15.39Zm-9.59-1.08c-.76,1.67-.64,3.22-.23,4.77,1.28,4.86,2.59,9.71,3.9,14.56.06.24.17.46.35.93.61-6.54,1.19-12.81,1.77-19.18-1.99-.01-4.01.31-5.79-1.09Z"/>
        <path class="cls-1" d="m41.73,40.52v1.62h-5.46c-.05.68-.09,1.27-.13,1.91h-4.37c-.04-.63-.08-1.22-.13-1.9h-5.42v-1.63h15.52Z"/>
        <path class="cls-2" d="m47.83,25.47h5.34v.34c0,.52-.42.95-.95.95h-3.45c-.52,0-.95-.42-.95-.95v-.34h0Z" transform="translate(-4.42 40.78) rotate(-42.3)"/>
      </g>
      <rect class="cls-1" x="20.09" y="61.57" width="29.8" height="44.84"/>
    </g>
  </g>
</svg>