<svg width="126" height="114" viewBox="0 0 126 114" fill="none" xmlns="http://www.w3.org/2000/svg">
<path d="M87.35 80.2564C87.69 90.9364 88.03 101.456 88.37 112.056C87.99 112.076 87.69 112.116 87.4 112.116C82.03 112.116 76.66 112.116 71.29 112.156C70.6 112.156 70.3 111.956 70.1 111.296C67.32 102.236 64.47 93.1864 61.71 84.1164C60.37 79.7064 61.41 75.7064 64.49 72.3664C65.54 71.2264 66.99 70.2964 68.44 69.7164C75.75 66.7964 83.12 64.0264 90.47 61.2064C90.78 61.0864 91.09 60.9664 91.48 60.8264C90.74 57.8564 90.01 54.9164 89.29 52.0264C84.6 53.5864 79.81 53.4464 74.99 53.8164V61.0864H56.22V112.086H14.6V61.2164H1V53.7864H11.73C12.41 51.1064 12.75 50.8164 15.54 50.4764C15.54 50.0764 15.54 49.6564 15.54 49.2264C15.54 43.1164 15.54 37.0164 15.54 30.9064C15.54 27.8364 17.48 25.8664 20.55 25.8364C23.07 25.8064 25.58 25.8264 28.1 25.8164C28.16 25.8164 28.23 25.7864 28.48 25.7264C28.48 24.2864 28.55 22.7864 28.46 21.3064C28.38 20.0964 28.76 19.2264 29.63 18.3864C33.27 14.8664 36.85 11.2864 40.46 7.73643C41.24 6.97643 41.7 6.97643 42.51 7.75643C43.69 8.89643 44.87 10.0464 46.03 11.2064C46.88 12.0564 46.88 12.4764 46.05 13.3064C44.84 14.5064 43.69 15.6364 42.54 16.7664C43.37 17.6464 44.05 18.5264 44.83 19.3064C44.94 19.4164 45.21 19.4864 45.35 19.4164C46.11 19.0664 46.63 19.4064 47.12 19.9264C48.13 21.0064 49.14 22.0664 50.2 23.1964C49.5 23.8564 48.7 24.6064 47.79 25.4564C46.57 24.2464 44.74 23.1964 44.17 21.6664C43.82 20.5164 41.36 18.8664 41.09 18.3164C40.44 19.0664 40 19.4964 39.27 20.3964C39.68 20.7064 40.33 21.1764 41.11 21.7664C39.86 22.8764 38.81 23.7864 37.79 24.7364C37.62 24.8964 37.54 25.2364 37.53 25.4964C37.5 26.7664 37.52 28.0264 37.52 29.3464C37.03 29.3764 36.64 29.4064 36.13 29.4464V33.0764C35.63 33.1364 35.25 33.1864 35.14 33.2064C34.72 34.3564 34.45 35.4064 33.94 36.3164C33.75 36.6564 33.01 36.7964 32.51 36.8464C31.59 36.9364 30.82 36.4864 30.5 35.6364C30.23 34.9064 30.23 34.0764 30.1 33.2464C29.81 33.2064 29.48 33.1564 29.03 33.0964V29.2364C28.07 29.4964 27.23 29.5764 26.53 29.9364C24.52 30.9664 23.42 32.6664 23.39 34.9464C23.35 37.3664 23.37 39.7764 23.38 42.1964C23.38 46.1364 26.01 48.7264 29.97 48.7264C35.44 48.7264 40.91 48.7264 46.38 48.7264C46.74 48.7264 47.1 48.7264 47.54 48.7264V53.7064H62.44C62.03 53.0264 61.52 52.7264 60.73 52.7564C58.66 52.8464 56.71 52.5064 55.23 50.9864C54.15 51.5864 53.16 52.2164 52.11 52.7164C51 53.2564 50.05 52.9864 49.56 52.1164C49.05 51.2164 49.37 50.2864 50.42 49.5664C51.74 48.6564 53 47.6264 54.39 46.8364C56.14 45.8464 58.12 45.0864 60.02 46.1864C62.39 47.5664 64.64 47.3764 67.21 46.8064C71.72 45.8064 76.33 45.2564 80.9 44.5764C81.54 44.4764 81.8 44.2764 81.95 43.6564C82.59 40.9164 83.29 38.1864 83.94 35.4464C84.05 34.9964 84.08 34.5064 84.02 34.0564C83.67 31.2964 83.61 28.5664 84.78 25.8564C83.56 25.2164 82.39 24.6064 81.23 24.0064C80.71 24.7364 80.31 25.3964 79.81 25.9764C78.84 27.0864 77.28 27.5864 75.91 26.3364C75.52 25.9764 74.82 25.9764 74.32 25.6964C73.89 25.4564 73.55 25.0664 73.12 24.6864C72.71 24.9964 72.21 25.3664 71.6 25.8264C70.89 24.5664 70.21 23.3464 69.52 22.1464C69.11 21.4364 68.72 20.7064 67.65 21.0964C67.52 21.1464 67.19 20.9064 67.07 20.7264C66.85 20.3964 66.73 20.0064 66.56 19.6364C64.4 20.5264 59.94 18.4664 59.8 15.9964C59.73 14.7464 59.78 13.4364 60.08 12.2264C61.17 7.77643 63.77 4.39643 67.69 2.03643C68.87 1.32643 70.13 0.926432 71.53 1.33643C71.7 1.38643 71.92 1.34643 72.11 1.29643C74.03 0.706433 75.85 1.02643 77.54 1.99643C81.65 4.33643 84.36 7.77643 85.35 12.4564C85.47 13.0264 85.37 13.6464 85.37 14.4664C86.79 15.3664 88.45 16.4264 90.13 17.4964C92.4 16.0364 94.71 16.1664 96.87 17.5564C98.72 18.7464 100.57 20.0264 102.12 21.5664C106.72 26.1364 110.6 31.2464 112.9 37.4164C114.18 40.8464 114.52 44.4664 114.96 48.0564C115.56 52.9964 115.69 57.9464 115.31 62.9264C115.03 66.5664 113.84 69.7164 110.77 72.2264C112.49 72.2264 114 72.2264 115.5 72.2264C117.11 72.2264 118.72 72.1764 120.33 72.2064C122.74 72.2364 124.48 73.9364 124.49 76.1964C124.49 78.4764 122.67 80.2764 120.29 80.2864C116.09 80.3064 111.9 80.2864 107.7 80.2864C107.34 80.2864 106.98 80.2864 106.43 80.2864C107.63 90.9464 108.82 101.496 110.02 112.126H102.71V80.3164H87.32L87.35 80.2564ZM77.76 79.1764C77 80.8464 77.12 82.3964 77.53 83.9464C78.81 88.8064 80.12 93.6564 81.43 98.5064C81.49 98.7464 81.6 98.9664 81.78 99.4364C82.39 92.8964 82.97 86.6264 83.55 80.2564C81.56 80.2464 79.54 80.5664 77.76 79.1664V79.1764Z" stroke="#F6F6FB" stroke-width="1.75" stroke-linejoin="round"/>
<path d="M41.8501 40.5964V42.2164H36.3901C36.3401 42.8964 36.3001 43.4864 36.2601 44.1264H31.8901C31.8501 43.4964 31.8101 42.9064 31.7601 42.2264H26.3401V40.5964H41.8601H41.8501Z" stroke="#F6F6FB" stroke-width="1.08" stroke-linejoin="round"/>
<path d="M48.2181 27.5046L52.1677 23.9107L52.3965 24.1622C52.7465 24.5468 52.7253 25.1475 52.3333 25.5042L49.7815 27.8261C49.3969 28.1761 48.7962 28.1548 48.4395 27.7628L48.2107 27.5114L48.2181 27.5046Z" stroke="#F6F6FB" stroke-width="0.63" stroke-linejoin="round"/>
<path d="M50.01 61.6465H20.21V106.486H50.01V61.6465Z" stroke="#F6F6FB" stroke-width="1.08" stroke-linejoin="round"/>
</svg>
