<?xml version="1.0" encoding="UTF-8"?>
<svg id="Layer_2" data-name="Layer 2" xmlns="http://www.w3.org/2000/svg" viewBox="0 0 117.6 117.25">
  <defs>
    <style>
      .cls-1 {
        stroke: #0092ce;
      }

      .cls-1, .cls-2 {
        fill: none;
        stroke-linejoin: round;
        stroke-width: 2px;
      }

      .cls-2 {
        stroke: #eb8467;
      }
    </style>
  </defs>
  <g id="Layer_1-2" data-name="Layer 1">
    <g>
      <path class="cls-1" d="m85.55,56.7v-24.75h-3.66v7.41h-3.69c0-3.39-.15-6.77.06-10.13.12-1.8,1.48-3.11,3.11-3.88,3.29-1.55,6.62-3,10.11-4.57.52,3.67,3.46,5.35,5.62,7.86,2.2-2.43,5.06-4.14,5.73-7.96,3.76,1.82,7.39,3.43,10.85,5.34.99.54,2,1.87,2.15,2.96.47,3.43.54,6.91.76,10.43h-4.03v-3.71h-3.8v21h-23.22Zm15.57-23.1h7.42v-3.61h-7.42v3.61Z"/>
      <path class="cls-2" d="m66.41,64.44c-7.22,0-14.17-.15-21.1.08-2.54.08-3.81-.88-4.96-2.91-4.33-7.65-3.61-17.2,1.97-24.05,5.45-6.7,14.71-9.43,22.9-6.68.47.16,1.08.82,1.08,1.26.08,8.39.08,16.78.1,25.17,0,2.32,0,4.64,0,7.14Z"/>
      <path class="cls-1" d="m99.1,68.42h-3.88c0,6.74,0,13.41,0,20.09s0,13.27,0,20.03h-6.96c-.78-15.9-3.08-31.75-2.7-47.88h23.14c.46,16.06-1.95,31.9-2.76,47.92h-6.83v-40.15Z"/>
      <path class="cls-1" d="m78.41,11.53c-1.04,1.55-2.08,3.09-3.02,4.49-3.35-.96-6.59-1.88-9.82-2.82-.09-.03-.2-.08-.26-.16-2.34-3.05-5.7-2.44-8.83-2.31-1.13.05-2.47.57-3.27,1.33-1.04,1-2.2,1.27-3.46,1.61-15.42,4.24-25.22,14.15-28.63,29.71-3.46,15.8,3.67,31.61,17.4,40.17,1.11.69,1.62,1.44,1.7,2.76.1,1.65.49,3.28.82,5.29-13.56-6.48-22.28-16.63-25.49-31.03-4.04-18.12,3.28-36,18.48-46.34,14.28-9.71,32.52-9.2,44.38-2.72Z"/>
      <path class="cls-1" d="m37.64,78.15c-7.78-3.95-14.49-19.27-13.61-29.31,1.49-16.97,13.72-28.7,26.93-31.55.14.34.29.69.44,1.05.77,1.84,2.02,3.3,4.03,3.54,2.08.25,4.25.32,6.32.06,2.52-.32,3.88-2.18,4.64-4.8,2.25.74,4.47,1.48,7.03,2.32-1.99,2.86-3.82,5.49-5.45,7.84-3.33-.42-6.46-1.12-9.59-1.15-10.23-.12-19.75,6.71-23.13,16.39-2.79,8-1.77,15.55,2.95,22.57.56.83.82,1.42.17,2.4-.49.74-.67,1.8-.7,2.72-.09,2.58-.03,5.16-.03,7.92Z"/>
      <path class="cls-1" d="m56.95,102.85c-.05.46-.1.75-.11,1.04-.01.86,0,1.71,0,2.74h13.37v3.81h-22.63c-1.3-8.9-2.59-17.78-3.9-26.82h1.57c8.16,0,16.33.02,24.49-.02,1.08,0,1.59.31,2.2,1.26,1.29,2,1.64,3.93,1.11,6.27-.8,3.5-1.28,7.06-1.88,10.61-.14.84-.54,1.14-1.43,1.13-3.7-.05-7.4-.02-11.1-.02-.54,0-1.09,0-1.68,0Z"/>
      <path class="cls-1" d="m11.54,60.51H1c0-.56,0-1.05,0-1.54,0-13.89,0-27.78,0-41.67,0-2.32.48-2.8,2.73-2.8,7.35,0,14.71,0,22.06,0,.43,0,.87.05,1.47.08-13.49,12.56-18.68,27.8-15.73,45.93Z"/>
      <path class="cls-1" d="m1.1,102.77v-3.74h28.6v-3.84H1.09v-17.22c.43-.04.82-.1,1.2-.1,5.12,0,10.24.02,15.36-.03.92,0,1.47.29,1.99,1.02,5.31,7.36,12.1,12.89,20.51,16.35,1.17.48,1.73,1.11,1.81,2.41.11,1.69.47,3.37.73,5.15H1.1Zm3.87-19.04v5.57h3.6v-5.57h-3.6Z"/>
      <path class="cls-2" d="m102.89,8.67c.04,2.35-.58,4.38-2.15,6.07-2.07,2.23-5.14,2.23-7.24,0-2.87-3.05-2.88-8.94-.01-12.02,2.28-2.44,5.55-2.29,7.63.34,1.31,1.67,1.84,3.58,1.77,5.59Z"/>
      <path class="cls-2" d="m16.26,73.99H1.11v-9.56c3.69,0,7.32,0,10.95.02.23,0,.58.24.66.45,1.19,2.98,2.34,5.98,3.54,9.1Z"/>
      <path class="cls-1" d="m81.85,43.39v1.51c0,8.81,0,17.62-.01,26.43,0,.64,0,1.43-.37,1.87-.42.5-1.26.99-1.84.92-.59-.07-1.14-.81-1.62-1.32-.16-.18-.1-.58-.1-.88,0-9.32,0-18.63,0-27.95,0-.15.04-.3.09-.57h3.85Z"/>
      <path class="cls-1" d="m112.55,43.36h3.77c.03.53.08,1.06.08,1.6,0,8.81,0,17.62,0,26.44,0,.45.12,1.07-.12,1.32-.57.59-1.27,1.3-2.01,1.42-1.03.18-1.61-.65-1.7-1.7-.03-.35-.01-.71-.01-1.06,0-8.76,0-17.52,0-26.28,0-.55,0-1.09,0-1.73Z"/>
      <path class="cls-1" d="m41.47,79.69v-3.62h24.82v3.62h-24.82Z"/>
      <path class="cls-1" d="m66.36,68.28v3.71h-24.76c-.69-2.76.04-3.71,2.88-3.71,6.64,0,13.29,0,19.93,0,.6,0,1.19,0,1.94,0Z"/>
      <path class="cls-1" d="m95.18,112.58v3.67h-8.6c.53-1.29,1.01-2.43,1.52-3.67h7.08Z"/>
      <path class="cls-1" d="m99.15,116.21v-3.59h6.95c.5,1.13,1.02,2.28,1.6,3.59h-8.55Z"/>
      <path class="cls-1" d="m58.8,14.51c.66,0,1.32-.02,1.98,0,1.19.04,1.9.88,1.76,1.85-.1.7-.94,1.72-1.59,1.84-1.47.27-3.06.27-4.53,0-.64-.12-1.44-1.15-1.55-1.87-.14-.88.53-1.74,1.65-1.8.76-.04,1.52,0,2.28,0,0,0,0,0,0-.01Z"/>
      <path class="cls-1" d="m88.53,14c.76,1.2,1.35,2.13,2.01,3.17-2.15.93-4.21,1.82-6.28,2.71-.1-.11-.2-.21-.29-.32,1.49-1.82,2.99-3.64,4.57-5.57Z"/>
      <path class="cls-1" d="m97.21,23.72c-.9-1.36-1.54-2.33-2.35-3.55h4.41c-.68,1.17-1.26,2.16-2.07,3.55Z"/>
      <path class="cls-1" d="m101.12,33.6v-3.61h7.42v3.61h-7.42Z"/>
      <path class="cls-1" d="m4.97,83.73h3.6v5.57h-3.6v-5.57Z"/>
    </g>
  </g>
</svg>