<svg width="118" height="118" viewBox="0 0 118 118" fill="none" xmlns="http://www.w3.org/2000/svg">
<path d="M85.5501 56.6999V31.9499H81.8901V39.3599H78.2001C78.2001 35.9699 78.0501 32.5899 78.2601 29.2299C78.3801 27.4299 79.7401 26.1199 81.3701 25.3499C84.6601 23.7999 87.9901 22.3499 91.4801 20.7799C92.0001 24.4499 94.9401 26.1299 97.1001 28.6399C99.3001 26.2099 102.16 24.4999 102.83 20.6799C106.59 22.4999 110.22 24.1099 113.68 26.0199C114.67 26.5599 115.68 27.8899 115.83 28.9799C116.3 32.4099 116.37 35.8899 116.59 39.4099H112.56V35.6999H108.76V56.6999H85.5401H85.5501ZM101.12 33.5999H108.54V29.9899H101.12V33.5999Z" stroke="#F6F6FB" stroke-width="2" stroke-linejoin="round"/>
<path d="M66.4099 64.4399C59.1899 64.4399 52.2399 64.2899 45.3099 64.5199C42.7699 64.5999 41.4999 63.6399 40.3499 61.6099C36.0199 53.9599 36.7399 44.4099 42.3199 37.5599C47.7699 30.8599 57.0299 28.1299 65.2199 30.8799C65.6899 31.0399 66.2999 31.6999 66.2999 32.1399C66.3799 40.5299 66.3799 48.9199 66.3999 57.3099C66.3999 59.6299 66.3999 61.9499 66.3999 64.4499L66.4099 64.4399Z" stroke="#F6F6FB" stroke-width="2" stroke-linejoin="round"/>
<path d="M99.1001 68.4199H95.2201C95.2201 75.1599 95.2201 81.8299 95.2201 88.5099C95.2201 95.1899 95.2201 101.78 95.2201 108.54H88.2601C87.4801 92.6399 85.1801 76.7899 85.5601 60.6599H108.7C109.16 76.7199 106.75 92.5599 105.94 108.58H99.1101V68.4299L99.1001 68.4199Z" stroke="#F6F6FB" stroke-width="2" stroke-linejoin="round"/>
<path d="M78.4099 11.53C77.3699 13.08 76.3299 14.62 75.3899 16.02C72.0399 15.06 68.7999 14.14 65.5699 13.2C65.4799 13.17 65.3699 13.12 65.3099 13.04C62.9699 9.98997 59.6099 10.6 56.4799 10.73C55.3499 10.78 54.0099 11.3 53.2099 12.06C52.1699 13.06 51.0099 13.33 49.7499 13.67C34.3299 17.91 24.5299 27.82 21.1199 43.38C17.6599 59.18 24.7899 74.99 38.5199 83.55C39.6299 84.24 40.1399 84.99 40.2199 86.31C40.3199 87.96 40.7099 89.59 41.0399 91.6C27.4799 85.12 18.7599 74.97 15.5499 60.57C11.5099 42.45 18.8299 24.57 34.0299 14.23C48.3099 4.51997 66.5499 5.02997 78.4099 11.51V11.53Z" stroke="#F6F6FB" stroke-width="2" stroke-linejoin="round"/>
<path d="M37.64 78.1499C29.86 74.1999 23.15 58.8799 24.03 48.8399C25.52 31.8699 37.75 20.1399 50.96 17.2899C51.1 17.6299 51.25 17.9799 51.4 18.3399C52.17 20.1799 53.42 21.6399 55.43 21.8799C57.51 22.1299 59.68 22.1999 61.75 21.9399C64.27 21.6199 65.63 19.7599 66.39 17.1399C68.64 17.8799 70.86 18.6199 73.42 19.4599C71.43 22.3199 69.6 24.9499 67.97 27.2999C64.64 26.8799 61.51 26.1799 58.38 26.1499C48.15 26.0299 38.63 32.8599 35.25 42.5399C32.46 50.5399 33.48 58.0899 38.2 65.1099C38.76 65.9399 39.02 66.5299 38.37 67.5099C37.88 68.2499 37.7 69.3099 37.67 70.2299C37.58 72.8099 37.64 75.3899 37.64 78.1499Z" stroke="#F6F6FB" stroke-width="2" stroke-linejoin="round"/>
<path d="M56.9499 102.85C56.8999 103.31 56.8499 103.6 56.8399 103.89C56.8299 104.75 56.8399 105.6 56.8399 106.63H70.2099V110.44H47.5799C46.2799 101.54 44.9899 92.66 43.6799 83.62H45.2499C53.4099 83.62 61.5799 83.64 69.7399 83.6C70.8199 83.6 71.3299 83.91 71.9399 84.86C73.2299 86.86 73.5799 88.79 73.0499 91.13C72.2499 94.63 71.7699 98.19 71.1699 101.74C71.0299 102.58 70.6299 102.88 69.7399 102.87C66.0399 102.82 62.3399 102.85 58.6399 102.85C58.0999 102.85 57.5499 102.85 56.9599 102.85H56.9499Z" stroke="#F6F6FB" stroke-width="2" stroke-linejoin="round"/>
<path d="M11.54 60.51H1C1 59.95 1 59.46 1 58.97C1 45.08 1 31.19 1 17.3C1 14.98 1.48 14.5 3.73 14.5C11.08 14.5 18.44 14.5 25.79 14.5C26.22 14.5 26.66 14.55 27.26 14.58C13.77 27.14 8.58 42.38 11.53 60.51H11.54Z" stroke="#F6F6FB" stroke-width="2" stroke-linejoin="round"/>
<path d="M1.10009 102.77V99.03H29.7001V95.19H1.09009V77.97C1.52009 77.93 1.91009 77.87 2.29009 77.87C7.41009 77.87 12.5301 77.89 17.6501 77.84C18.5701 77.84 19.1201 78.13 19.6401 78.86C24.9501 86.22 31.7401 91.75 40.1501 95.21C41.3201 95.69 41.8801 96.32 41.9601 97.62C42.0701 99.31 42.4301 100.99 42.6901 102.77H1.10009ZM4.97009 83.73V89.3H8.57009V83.73H4.97009Z" stroke="#F6F6FB" stroke-width="2" stroke-linejoin="round"/>
<path d="M102.89 8.66994C102.93 11.0199 102.31 13.0499 100.74 14.7399C98.67 16.9699 95.6 16.9699 93.5 14.7399C90.63 11.6899 90.62 5.79994 93.49 2.71994C95.77 0.279941 99.04 0.429941 101.12 3.05994C102.43 4.72994 102.96 6.63994 102.89 8.64994V8.66994Z" stroke="#F6F6FB" stroke-width="2" stroke-linejoin="round"/>
<path d="M16.2601 73.9899H1.11011V64.4299C4.80011 64.4299 8.43011 64.4299 12.0601 64.4499C12.2901 64.4499 12.6401 64.6899 12.7201 64.8999C13.9101 67.8799 15.0601 70.8799 16.2601 73.9999V73.9899Z" stroke="#F6F6FB" stroke-width="2" stroke-linejoin="round"/>
<path d="M81.8499 43.3899V44.8999C81.8499 53.7099 81.8499 62.5199 81.8399 71.3299C81.8399 71.9699 81.8399 72.7599 81.4699 73.1999C81.0499 73.6999 80.2099 74.1899 79.6299 74.1199C79.0399 74.0499 78.4899 73.3099 78.0099 72.7999C77.8499 72.6199 77.9099 72.2199 77.9099 71.9199C77.9099 62.5999 77.9099 53.2899 77.9099 43.9699C77.9099 43.8199 77.9499 43.6699 77.9999 43.3999H81.8499V43.3899Z" stroke="#F6F6FB" stroke-width="2" stroke-linejoin="round"/>
<path d="M112.55 43.36H116.32C116.35 43.89 116.4 44.42 116.4 44.96C116.4 53.77 116.4 62.58 116.4 71.4C116.4 71.85 116.52 72.47 116.28 72.72C115.71 73.31 115.01 74.02 114.27 74.14C113.24 74.32 112.66 73.49 112.57 72.44C112.54 72.09 112.56 71.73 112.56 71.38C112.56 62.62 112.56 53.86 112.56 45.1C112.56 44.55 112.56 44.01 112.56 43.37L112.55 43.36Z" stroke="#F6F6FB" stroke-width="2" stroke-linejoin="round"/>
<path d="M41.47 79.6899V76.0699H66.29V79.6899H41.47Z" stroke="#F6F6FB" stroke-width="2" stroke-linejoin="round"/>
<path d="M66.36 68.2799V71.9899H41.6C40.91 69.2299 41.64 68.2799 44.48 68.2799C51.12 68.2799 57.77 68.2799 64.41 68.2799C65.01 68.2799 65.6 68.2799 66.35 68.2799H66.36Z" stroke="#F6F6FB" stroke-width="2" stroke-linejoin="round"/>
<path d="M95.1801 112.58V116.25H86.5801C87.1101 114.96 87.5901 113.82 88.1001 112.58H95.1801Z" stroke="#F6F6FB" stroke-width="2" stroke-linejoin="round"/>
<path d="M99.1499 116.21V112.62H106.1C106.6 113.75 107.12 114.9 107.7 116.21H99.1499Z" stroke="#F6F6FB" stroke-width="2" stroke-linejoin="round"/>
<path d="M58.8 14.51C59.46 14.51 60.1199 14.49 60.7799 14.51C61.9699 14.55 62.68 15.39 62.54 16.36C62.44 17.06 61.6 18.08 60.95 18.2C59.48 18.47 57.8899 18.47 56.4199 18.2C55.7799 18.08 54.9799 17.05 54.8699 16.33C54.7299 15.45 55.4 14.59 56.52 14.53C57.28 14.49 58.04 14.53 58.8 14.53C58.8 14.53 58.8 14.53 58.8 14.52V14.51Z" stroke="#F6F6FB" stroke-width="2" stroke-linejoin="round"/>
<path d="M88.53 14C89.29 15.2 89.88 16.13 90.54 17.17C88.39 18.1 86.33 18.99 84.26 19.88C84.16 19.77 84.06 19.67 83.97 19.56C85.46 17.74 86.96 15.92 88.54 13.99L88.53 14Z" stroke="#F6F6FB" stroke-width="2" stroke-linejoin="round"/>
<path d="M97.2101 23.7199C96.3101 22.3599 95.6701 21.3899 94.8601 20.1699H99.2701C98.5901 21.3399 98.0101 22.3299 97.2001 23.7199H97.2101Z" stroke="#F6F6FB" stroke-width="2" stroke-linejoin="round"/>
<path d="M101.12 33.6V29.99H108.54V33.6H101.12Z" stroke="#F6F6FB" stroke-width="2" stroke-linejoin="round"/>
<path d="M4.96997 83.73H8.56997V89.3H4.96997V83.73Z" stroke="#F6F6FB" stroke-width="2" stroke-linejoin="round"/>
</svg>
