<?xml version="1.0" encoding="UTF-8"?>
<svg id="Layer_2" data-name="Layer 2" xmlns="http://www.w3.org/2000/svg" viewBox="0 0 115.68 115.52">
  <defs>
    <style>
      .cls-1 {
        fill: #fff;
      }

      .cls-2 {
        stroke: #0092ce;
      }

      .cls-2, .cls-3 {
        fill: none;
        stroke-linejoin: round;
        stroke-width: 1.09px;
      }

      .cls-4 {
        fill: #eb8467;
      }

      .cls-3 {
        stroke: #eb8467;
      }
    </style>
  </defs>
  <g id="Layer_1-2" data-name="Layer 1">
    <g>
      <path class="cls-2" d="m11.37,94.97v18.4c.35.02.71-.06.96.07.31.17.53.51.79.78-.27.25-.54.7-.82.71-1.5.07-3.01.03-4.51.03-1.95,0-3.9,0-5.85,0-.6,0-1.27.04-1.26-.78,0-.8.67-.8,1.27-.78.13,0,.25-.02.45-.04v-51.15c-.57-.04-1.12-.07-1.76-.11,0-.74.05-1.44,0-2.13-.35-4.15.32-8.16,1.53-12.11.22-.72.29-1.5.3-2.26.03-4.61.01-9.21.01-13.82,0-1.66.45-2.1,2.1-2.11.47,0,.95,0,1.52,0V.59h45.27c.03.52.05,1.05.08,1.73.35,0,.69,0,1.02,0,3.93,0,7.87,0,11.8,0,.32,0,.69-.08.95.05.3.15.68.49.69.76,0,.25-.39.59-.69.74-.26.13-.63.06-.95.06-3.87,0-7.74,0-11.61,0-.38,0-.75,0-1.2,0v12.97c.32,0,.65,0,.99,0,2.27,0,4.54,0,6.81,0,.57,0,1.17.02,1.19.77.02.77-.57.79-1.15.79-2.24,0-4.48,0-6.72,0-.35,0-.69,0-1.15,0v36.41H2.3v5.75c.37,0,.71,0,1.06,0,15.44,0,30.89,0,46.33,0,.32,0,.68-.07.95.05.3.14.51.45.76.69-.26.26-.5.72-.78.75-.88.1-1.78.04-2.76.04v31.26c.37,0,.71,0,1.05,0,3.42,0,6.85,0,10.27,0,.58,0,1.28-.09,1.29.74,0,.88-.72.82-1.34.82-15.48,0-30.97,0-46.45,0-.41,0-.82,0-1.3,0Zm38.36-41.7V2.14H7.75v27.45c.91,0,1.77,0,2.62,0,5.57,0,11.13,0,16.7,0,.35,0,.71-.02,1.05.03.94.13,1.45.75,1.44,1.7,0,4.16.11,8.32-.05,12.47-.13,3.31,1,6.33,1.66,9.47h18.56ZM4.08,113.36h5.62v-51.11h-5.62v51.11Zm14.7-29.25h-7.38v9.23h16.53v-9.25h-7.37c-.35.6.27,1.76-.94,1.7-1.08-.05-.63-1.06-.84-1.68Zm0-10.94h-7.38v9.23h16.51v-9.22h-7.38c-.26.64.25,1.7-.88,1.69-1.1-.01-.66-1.03-.86-1.69Zm1.75-10.96c-.25.71.22,1.75-.88,1.75-1.12,0-.65-1.1-.89-1.74h-7.35v9.27h16.48v-9.27h-7.37Zm9.05,9.29h16.54v-9.28h-7.38c-.28.64.25,1.7-.84,1.73-1.19.03-.66-1.14-.93-1.72h-7.4v9.27Zm.03,12.57v9.29h16.49v-9.25h-7.38c-.25.64.24,1.63-.78,1.68-1.22.07-.72-1.08-.96-1.73h-7.37Zm-.03-1.65h16.51v-9.23h-7.39c-.24.64.27,1.63-.78,1.68-1.22.06-.7-1.1-.95-1.69h-7.4v9.24Zm-1.45-34.82h-1.08c-4.19,0-8.37,0-12.56,0-3.26,0-6.52-.01-9.78.02-.31,0-.84.18-.9.39-.5,1.73-.92,3.49-1.37,5.28h27.1c-.48-1.91-.94-3.76-1.42-5.69ZM4.12,31.27v14.72h1.52v-13.2h22.28v-1.51H4.12Z"/>
      <path class="cls-3" d="m73.59,18.76c-3.31-2.89-4-6.52-3.69-10.43.33-4.16,4.45-7.96,8.39-7.78,2.8.13,4.77,1.7,6.14,4.03,1.02,1.74,1.76,3.58,1.61,5.7-.14,1.94-1.05,3.58-2.78,4.22-1.8.66-3.46.35-4.86-1.03-.07-.07-.13-.14-.2-.21-.07-.06-.14-.12-.28-.23-1.47,1.72-3.29,2.19-5.66,1.36.24.47.38.79.56,1.09,2.32,3.82,6.53,4.25,9.52.95.46-.51.77-1.19,1.3-1.62.49-.4,1.17-.57,1.72-.82-.58,4.38-5.08,7-10.22,5.79v38.89h5.61c.01-.3.04-.55.04-.79,0-11.84,0-23.67,0-35.51,0-.16,0-.32,0-.48.05-1.81.29-2.17,2.01-2.76.25-.08.61.04.88.16,2.14.91,4.28,1.82,6.4,2.76,1.31.58,2.62,1.18,3.89,1.86,3.07,1.64,4.55,4.28,4.72,7.7.04.86.06,1.73.06,2.59,0,11.96-.1,23.93.06,35.89.06,4.19-4.11,6.27-7.01,4.16-.04-.03-.12-.02-.18-.02-.04.05-.1.09-.11.14-.26,2.07-.59,4.13-.76,6.2-.64,7.74-1.12,15.5-1.89,23.23-.28,2.87.25,5.36,1.69,7.76.26.43.48.91.63,1.39.39,1.25-.17,1.98-1.48,1.99-3.55,0-7.1,0-10.65,0-4.22,0-8.45,0-12.67,0-1.54,0-2.11-.79-1.55-2.22.43-1.1,1.01-2.14,1.49-3.21.55-1.2.85-2.42.74-3.79-.75-9.43-1.43-18.87-2.16-28.31-.04-.5-.41-.98-.49-1.49-.11-.67-.02-1.3.67-1.74.32-.21.5-.64.88-1.15.04.79.06,1.42.09,2.09h4.02c1.14-3.98,2.41-7.94,3.36-11.98.39-1.67.11-3.5.11-5.26,0-12,0-23.99-.01-35.99,0-.37,0-.75,0-1.4-3.91,1.73-7.69,3.27-11.35,5.05-2.33,1.13-3.3,3.3-3.4,5.84-.06,1.63-.07,3.26-.07,4.89,0,9.08,0,18.17,0,27.25,0,.19.02.38.03.64h5.64c0-.87,0-1.73,0-2.58,0-8.92,0-17.85,0-26.77,0-.29-.06-.62.06-.85.14-.27.48-.64.69-.62.29.03.59.36.8.63.11.14.05.43.05.66,0,11.93.01,23.86,0,35.79,0,2.18-1.26,3.94-3.11,4.47-1.9.55-3.96-.11-4.96-1.8-.47-.78-.78-1.79-.78-2.7-.05-12.38-.04-24.76,0-37.14,0-1.4.2-2.81.45-4.18.34-1.84,1.33-3.41,2.95-4.31,2.33-1.3,4.79-2.38,7.22-3.5,1.88-.86,3.79-1.64,5.84-2.52Zm3.54,87.3c0-.51,0-.94,0-1.38,0-10.49,0-20.98,0-31.48,0-.26-.09-.56.02-.76.19-.34.46-.8.77-.87.59-.13.82.34.83.9,0,.16,0,.32,0,.48-.01,10.65-.02,21.3-.03,31.96,0,.37,0,.75,0,1.15h8.36c.77-9.79,1.53-19.52,2.29-29.29-1.34,0-2.56-.06-3.76.02-.8.05-1.11-.25-1.31-.98-.62-2.34-1.34-4.66-1.96-7.01-.71-2.7-1.87-5.32-1.54-8.22,0-.04-.07-.1-.11-.15h-5.55c-.08,1.2.03,2.36-.25,3.42-1.08,4.07-2.29,8.11-3.42,12.17-.16.57-.41.76-.99.74-1.33-.04-2.66-.01-4.04-.01.74,9.86,1.47,19.58,2.2,29.32h8.49Zm20.04-41.85c0-.5,0-.88,0-1.26,0-8.28,0-16.57,0-24.85,0-2.01,0-4.03-.04-6.04-.05-3.24-1.5-5.62-4.42-7.06-1.12-.55-2.25-1.07-3.4-1.54-2.27-.93-4.55-1.82-6.88-2.74v14.35h7.39c.2-.68-.23-1.78.95-1.69,1.07.08.68,1.08.68,1.7.02,9.31.02,18.62.02,27.92,0,.4,0,.81,0,1.22h5.71Zm-14.75-20.2c-.02.33-.05.61-.05.89,0,4.51.08,9.01-.03,13.52-.07,3,.12,5.92,1.17,8.75.17.45.26.92.4,1.38.63,2.2,1.27,4.41,1.9,6.6h3.99v-31.13h-7.39Zm-3.79-33.6c.08.27.15.52.22.76.45,1.44,1.57,2.19,3.04,2.05,1.33-.13,2.37-1.18,2.53-2.59.05-.44.03-.89.03-1.34,0-1.48-.26-1.75-1.71-1.75-2.84,0-5.68.03-8.52,0-3.11-.05-2.83.14-2.76,3.06.03,1.38,1.16,2.49,2.47,2.63,1.45.15,2.66-.64,3.08-2.02.08-.27.15-.53.23-.79h1.4Zm-1.54,102.95v-5.61h-8.33c-.85,1.93-1.65,3.76-2.46,5.61h10.79Zm1.68-.02h10.71c-.75-1.82-1.47-3.59-2.23-5.34-.08-.17-.46-.29-.7-.3-1.18-.03-2.37-.01-3.55-.01-1.4,0-2.79,0-4.22,0v5.65Zm3.63-71.01h7.42v-5.6h-7.42v5.6Zm9.12,23.53c0,1.75-.08,3.47.03,5.18.09,1.37,1.21,2.32,2.54,2.41,1.36.09,2.77-.75,2.91-2.09.19-1.81.05-3.65.05-5.49h-5.53Zm-27.22.01h-5.55c0,1.8-.09,3.56.03,5.3.09,1.34,1.4,2.31,2.77,2.29,1.35-.02,2.66-1.05,2.73-2.35.09-1.72.02-3.44.02-5.24Zm8.21-60.02h10.8c-1.28-2.35-3.01-3.88-5.67-3.74-2.42.12-3.97,1.62-5.13,3.74Z"/>
      <path class="cls-2" d="m104.48,54.88v-16.05h8.79v14.45c.65.03,1.2.06,1.82.1v8.74c-.54.03-1.09.06-1.72.09v51.17c.33.02.69-.06.94.07.32.16.55.5.82.76-.27.25-.54.73-.82.73-3.61.05-7.23.05-10.84,0-.27,0-.53-.48-.8-.73.27-.26.5-.58.81-.75.22-.12.56-.02.9-.02v-18.45c-1.22,0-2.43,0-3.63,0-1.44,0-2.88,0-4.32,0-.58,0-1.05-.15-1.04-.83,0-.65.49-.74,1.01-.74,2.27,0,4.54,0,6.81,0,.38,0,.75,0,1.23,0v-32.77h9.06v-5.77h-9.03Zm1.61,7.34v51.12h5.59v-51.12h-5.59Zm0-21.86v12.9h5.58v-12.9h-5.58Z"/>
      <path class="cls-2" d="m109.87,3.92c-.43,0-.8,0-1.18,0-5.66,0-11.33,0-16.99,0-.26,0-.55.08-.76-.02-.38-.19-.95-.45-1-.76-.1-.62.44-.83,1.02-.83,2.08,0,4.16,0,6.24,0,4.38,0,8.77,0,13.15,0,.35,0,.69,0,1.16,0,0,.42,0,.76,0,1.1,0,9.37,0,18.75,0,28.12,0,.29.08.64-.05.84-.19.27-.54.56-.84.58-.2.02-.51-.37-.64-.65-.11-.24-.04-.56-.04-.85,0-3.93,0-7.87,0-11.8,0-.35,0-.69,0-1.15-.41-.02-.75-.05-1.08-.05-3.97,0-7.93,0-11.9,0-.29,0-.62.08-.85-.04-.29-.15-.67-.48-.66-.72,0-.27.37-.68.65-.75.48-.13,1.01-.05,1.53-.05,3.71,0,7.42,0,11.13,0,.35,0,.7,0,1.12,0V3.92Z"/>
      <path class="cls-4" d="m4.12,31.27h23.79v1.51H5.64v13.2h-1.52v-14.72Z"/>
      <path class="cls-1" d="m82.4,42.33v-5.6h7.42v5.6h-7.42Z"/>
      <path class="cls-1" d="m106.09,62.22h5.59v51.12h-5.59v-51.12Z"/>
      <path class="cls-1" d="m106.1,40.35h5.58v12.9h-5.58v-12.9Z"/>
      <path class="cls-4" d="m44.49,45.05c-.53.37-.88.79-1.13.74-.31-.07-.71-.5-.76-.82-.03-.23.48-.75.72-.74.33.02.64.43,1.17.82Z"/>
      <path class="cls-4" d="m38.97,31.38c-.21-.33-.58-.67-.56-.99.01-.26.48-.71.75-.7.27,0,.75.44.75.71.01.32-.37.66-.58.99-.12,0-.24,0-.36,0Z"/>
      <path class="cls-4" d="m21.61,8.61c-.58.37-.91.76-1.23.74-.28-.02-.53-.48-.79-.75.29-.27.55-.69.88-.75.25-.05.58.37,1.14.76Z"/>
      <path class="cls-4" d="m24.73,8.64c-.58.35-.93.73-1.25.71-.27-.02-.51-.5-.76-.78.3-.26.58-.68.9-.72.26-.03.58.39,1.11.79Z"/>
      <path class="cls-4" d="m21.54,23.19c-.5.36-.86.79-1.09.74-.33-.08-.57-.52-.85-.81.3-.26.58-.67.92-.72.24-.04.56.41,1.03.79Z"/>
      <path class="cls-4" d="m23.49,24.32c-.35-.57-.73-.91-.72-1.24.01-.26.58-.73.79-.68.32.08.72.51.76.84.03.25-.42.57-.83,1.08Z"/>
      <path class="cls-4" d="m34.03,8.55c-.49.4-.81.84-1.05.8-.33-.05-.61-.47-.91-.73.28-.28.53-.7.86-.78.24-.05.58.35,1.1.71Z"/>
      <path class="cls-4" d="m37.23,23.2c-.61.37-.96.75-1.29.73-.27-.02-.7-.52-.7-.8,0-.26.49-.73.76-.73.33,0,.65.4,1.23.8Z"/>
      <path class="cls-4" d="m21.54,15.98c-.53.33-.9.72-1.14.66-.32-.09-.55-.54-.81-.83.31-.24.61-.64.95-.67.24-.02.54.43,1.01.85Z"/>
      <path class="cls-4" d="m40.34,37.69c-.56.41-.88.81-1.19.81-.26,0-.76-.51-.73-.73.05-.31.45-.72.77-.79.24-.06.59.35,1.15.72Z"/>
      <path class="cls-4" d="m34.03,23.14c-.5.39-.84.83-1.08.79-.33-.06-.59-.5-.89-.77.29-.27.56-.69.89-.75.24-.05.58.37,1.08.74Z"/>
      <path class="cls-4" d="m37.15,15.89c-.5.36-.84.79-1.09.75-.33-.06-.59-.5-.88-.78.3-.26.57-.69.9-.74.26-.04.59.4,1.07.77Z"/>
      <path class="cls-4" d="m32.88,17.01c-.37-.51-.81-.85-.76-1.09.07-.32.5-.57.78-.86.26.29.69.55.74.87.04.26-.39.58-.76,1.08Z"/>
      <path class="cls-4" d="m15.36,23.23c-.59.35-.94.73-1.25.7-.26-.02-.71-.57-.67-.79.07-.3.51-.68.83-.72.25-.03.56.4,1.08.81Z"/>
      <path class="cls-4" d="m18.48,23.07c-.56.43-.86.85-1.17.86-.27,0-.55-.46-.82-.72.27-.28.5-.71.82-.8.24-.07.59.32,1.17.66Z"/>
      <path class="cls-4" d="m26.58,24.33c-.33-.59-.69-.94-.66-1.26.02-.26.58-.73.77-.67.32.1.7.52.74.84.03.26-.41.57-.84,1.09Z"/>
      <path class="cls-4" d="m36.01,9.76c-.39-.54-.82-.88-.77-1.12.07-.32.48-.73.8-.79.22-.04.75.45.76.7,0,.32-.39.65-.78,1.21Z"/>
      <path class="cls-4" d="m15.38,15.85c-.57.39-.9.78-1.21.78-.26,0-.76-.52-.72-.73.06-.32.46-.72.78-.79.25-.05.59.36,1.15.74Z"/>
      <path class="cls-4" d="m43.42,23.16c-.57.38-.9.78-1.21.77-.27-.01-.75-.54-.71-.76.06-.31.48-.71.8-.77.25-.05.58.37,1.12.76Z"/>
      <path class="cls-4" d="m43.4,15.93c-.58.36-.93.73-1.23.71-.27-.02-.73-.57-.68-.78.08-.31.51-.68.84-.74.24-.04.55.4,1.08.81Z"/>
      <path class="cls-4" d="m17.12,16.8c-.21-.33-.59-.66-.58-.98,0-.26.48-.7.75-.7.26,0,.74.43.75.69.01.32-.35.66-.56.99-.12,0-.24,0-.36,0Z"/>
      <path class="cls-4" d="m43.43,37.77c-.57.37-.92.75-1.23.73-.27-.02-.75-.57-.69-.77.09-.32.51-.69.84-.75.24-.04.56.39,1.08.79Z"/>
      <path class="cls-4" d="m42.25,9.78c-.39-.55-.8-.89-.75-1.14.06-.32.45-.71.77-.79.19-.05.72.44.72.7,0,.32-.37.65-.75,1.23Z"/>
      <path class="cls-4" d="m37.23,30.48c-.58.37-.92.75-1.24.74-.26-.01-.73-.55-.68-.78.06-.31.5-.7.82-.74.26-.04.58.39,1.11.78Z"/>
      <path class="cls-4" d="m37.25,37.68c-.58.42-.89.82-1.21.82-.26,0-.71-.46-.73-.75-.02-.26.41-.76.66-.78.33-.02.67.34,1.28.7Z"/>
      <path class="cls-4" d="m23.55,14.71c.38.56.78.89.77,1.2-.01.27-.54.76-.76.72-.32-.07-.72-.48-.78-.81-.05-.24.38-.58.77-1.11Z"/>
      <path class="cls-4" d="m42.31,31.66c-.41-.59-.81-.91-.81-1.24,0-.26.46-.7.75-.72.25-.02.75.42.76.67.02.33-.34.67-.7,1.29Z"/>
      <path class="cls-4" d="m30.94,23.11c-.55.4-.86.81-1.18.81-.26,0-.77-.51-.74-.71.06-.32.45-.73.77-.8.24-.06.59.34,1.15.7Z"/>
      <path class="cls-4" d="m40.31,23.12c-.53.41-.86.85-1.1.81-.32-.06-.72-.45-.81-.77-.05-.18.42-.73.68-.74.32-.02.66.35,1.23.7Z"/>
      <path class="cls-4" d="m30.94,15.91c-.58.36-.91.74-1.23.72-.26-.02-.74-.56-.69-.76.08-.32.5-.69.82-.75.24-.04.56.39,1.09.79Z"/>
      <path class="cls-4" d="m26.67,17.04c-.38-.56-.76-.88-.76-1.2,0-.26.53-.76.72-.71.32.07.73.46.78.78.05.25-.37.59-.75,1.13Z"/>
      <path class="cls-4" d="m30.95,8.6c-.58.38-.9.76-1.22.74-.27-.01-.51-.48-.77-.75.28-.27.54-.69.86-.75.24-.05.58.36,1.12.75Z"/>
      <path class="cls-4" d="m26.67,9.77c-.38-.56-.76-.88-.75-1.2,0-.26.53-.77.71-.72.33.08.73.46.8.78.05.24-.37.59-.75,1.14Z"/>
      <path class="cls-4" d="m17.26,9.77c-.36-.59-.73-.93-.71-1.24.02-.26.56-.73.76-.68.31.08.7.5.74.82.04.25-.39.57-.79,1.1Z"/>
      <path class="cls-4" d="m14.15,9.77c-.36-.56-.76-.91-.71-1.16.07-.32.48-.71.8-.76.2-.04.71.47.71.74,0,.32-.4.63-.8,1.19Z"/>
      <path class="cls-4" d="m40.31,15.93c-.58.35-.93.72-1.25.69-.26-.02-.71-.56-.66-.78.07-.3.5-.69.82-.72.26-.03.57.4,1.09.81Z"/>
      <path class="cls-4" d="m40.3,8.63c-.54.36-.91.78-1.15.72-.32-.08-.54-.54-.8-.83.28-.24.55-.66.84-.67.29-.01.59.39,1.11.78Z"/>
    </g>
  </g>
</svg>