<svg width="116" height="116" viewBox="0 0 116 116" fill="none" xmlns="http://www.w3.org/2000/svg">
<path d="M11.37 94.97V113.37C11.72 113.39 12.08 113.31 12.33 113.44C12.64 113.61 12.86 113.95 13.12 114.22C12.85 114.47 12.58 114.92 12.3 114.93C10.8 115 9.29002 114.96 7.79002 114.96C5.84002 114.96 3.89002 114.96 1.94002 114.96C1.34002 114.96 0.670021 115 0.680021 114.18C0.680021 113.38 1.35002 113.38 1.95002 113.4C2.08002 113.4 2.20002 113.38 2.40002 113.36V62.21C1.83002 62.17 1.28002 62.14 0.640021 62.1C0.640021 61.36 0.690021 60.66 0.640021 59.97C0.290021 55.82 0.960021 51.81 2.17002 47.86C2.39002 47.14 2.46002 46.36 2.47002 45.6C2.50002 40.99 2.48002 36.39 2.48002 31.78C2.48002 30.12 2.93002 29.68 4.58002 29.67C5.05002 29.67 5.53002 29.67 6.10002 29.67V0.589966H51.37C51.4 1.10997 51.42 1.63997 51.45 2.31997C51.8 2.31997 52.14 2.31997 52.47 2.31997C56.4 2.31997 60.34 2.31997 64.27 2.31997C64.59 2.31997 64.96 2.23997 65.22 2.36997C65.52 2.51997 65.9 2.85997 65.91 3.12997C65.91 3.37997 65.52 3.71997 65.22 3.86997C64.96 3.99997 64.59 3.92997 64.27 3.92997C60.4 3.92997 56.53 3.92997 52.66 3.92997C52.28 3.92997 51.91 3.92997 51.46 3.92997V16.9C51.78 16.9 52.11 16.9 52.45 16.9C54.72 16.9 56.99 16.9 59.26 16.9C59.83 16.9 60.43 16.92 60.45 17.67C60.47 18.44 59.88 18.46 59.3 18.46C57.06 18.46 54.82 18.46 52.58 18.46C52.23 18.46 51.89 18.46 51.43 18.46V54.87H2.30002V60.62C2.67002 60.62 3.01002 60.62 3.36002 60.62C18.8 60.62 34.25 60.62 49.69 60.62C50.01 60.62 50.37 60.55 50.64 60.67C50.94 60.81 51.15 61.12 51.4 61.36C51.14 61.62 50.9 62.08 50.62 62.11C49.74 62.21 48.84 62.15 47.86 62.15V93.41C48.23 93.41 48.57 93.41 48.91 93.41C52.33 93.41 55.76 93.41 59.18 93.41C59.76 93.41 60.46 93.32 60.47 94.15C60.47 95.03 59.75 94.97 59.13 94.97C43.65 94.97 28.16 94.97 12.68 94.97C12.27 94.97 11.86 94.97 11.38 94.97H11.37ZM49.73 53.27V2.13997H7.75002V29.59C8.66002 29.59 9.52002 29.59 10.37 29.59C15.94 29.59 21.5 29.59 27.07 29.59C27.42 29.59 27.78 29.57 28.12 29.62C29.06 29.75 29.57 30.37 29.56 31.32C29.56 35.48 29.67 39.64 29.51 43.79C29.38 47.1 30.51 50.12 31.17 53.26H49.73V53.27ZM4.08002 113.36H9.70002V62.25H4.08002V113.36ZM18.78 84.11H11.4V93.34H27.93V84.09H20.56C20.21 84.69 20.83 85.85 19.62 85.79C18.54 85.74 18.99 84.73 18.78 84.11ZM18.78 73.17H11.4V82.4H27.91V73.18H20.53C20.27 73.82 20.78 74.88 19.65 74.87C18.55 74.86 18.99 73.84 18.79 73.18L18.78 73.17ZM20.53 62.21C20.28 62.92 20.75 63.96 19.65 63.96C18.53 63.96 19 62.86 18.76 62.22H11.41V71.49H27.89V62.22H20.52L20.53 62.21ZM29.58 71.5H46.12V62.22H38.74C38.46 62.86 38.99 63.92 37.9 63.95C36.71 63.98 37.24 62.81 36.97 62.23H29.57V71.5H29.58ZM29.61 84.07V93.36H46.1V84.11H38.72C38.47 84.75 38.96 85.74 37.94 85.79C36.72 85.86 37.22 84.71 36.98 84.06H29.61V84.07ZM29.58 82.42H46.09V73.19H38.7C38.46 73.83 38.97 74.82 37.92 74.87C36.7 74.93 37.22 73.77 36.97 73.18H29.57V82.42H29.58ZM28.13 47.6H27.05C22.86 47.6 18.68 47.6 14.49 47.6C11.23 47.6 7.97002 47.59 4.71002 47.62C4.40002 47.62 3.87002 47.8 3.81002 48.01C3.31002 49.74 2.89002 51.5 2.44002 53.29H29.54C29.06 51.38 28.6 49.53 28.12 47.6H28.13ZM4.12002 31.27V45.99H5.64002V32.79H27.92V31.28H4.12002V31.27Z" stroke="#F6F6FB" stroke-width="1.09" stroke-linejoin="round"/>
<path d="M73.59 18.76C70.28 15.87 69.59 12.24 69.9 8.32997C70.23 4.16997 74.35 0.369971 78.29 0.549971C81.09 0.679971 83.06 2.24997 84.43 4.57997C85.45 6.31997 86.19 8.15997 86.04 10.28C85.9 12.22 84.99 13.86 83.26 14.5C81.46 15.16 79.8 14.85 78.4 13.47C78.33 13.4 78.27 13.33 78.2 13.26C78.13 13.2 78.06 13.14 77.92 13.03C76.45 14.75 74.63 15.22 72.26 14.39C72.5 14.86 72.64 15.18 72.82 15.48C75.14 19.3 79.35 19.73 82.34 16.43C82.8 15.92 83.11 15.24 83.64 14.81C84.13 14.41 84.81 14.24 85.36 13.99C84.78 18.37 80.28 20.99 75.14 19.78V58.67H80.75C80.76 58.37 80.79 58.12 80.79 57.88C80.79 46.04 80.79 34.21 80.79 22.37C80.79 22.21 80.79 22.05 80.79 21.89C80.84 20.08 81.08 19.72 82.8 19.13C83.05 19.05 83.41 19.17 83.68 19.29C85.82 20.2 87.96 21.11 90.08 22.05C91.39 22.63 92.7 23.23 93.97 23.91C97.04 25.55 98.52 28.19 98.69 31.61C98.73 32.47 98.75 33.34 98.75 34.2C98.75 46.16 98.65 58.13 98.81 70.09C98.87 74.28 94.7 76.36 91.8 74.25C91.76 74.22 91.68 74.23 91.62 74.23C91.58 74.28 91.52 74.32 91.51 74.37C91.25 76.44 90.92 78.5 90.75 80.57C90.11 88.31 89.63 96.07 88.86 103.8C88.58 106.67 89.11 109.16 90.55 111.56C90.81 111.99 91.03 112.47 91.18 112.95C91.57 114.2 91.01 114.93 89.7 114.94C86.15 114.94 82.6 114.94 79.05 114.94C74.83 114.94 70.6 114.94 66.38 114.94C64.84 114.94 64.27 114.15 64.83 112.72C65.26 111.62 65.84 110.58 66.32 109.51C66.87 108.31 67.17 107.09 67.06 105.72C66.31 96.29 65.63 86.85 64.9 77.41C64.86 76.91 64.49 76.43 64.41 75.92C64.3 75.25 64.39 74.62 65.08 74.18C65.4 73.97 65.58 73.54 65.96 73.03C66 73.82 66.02 74.45 66.05 75.12H70.07C71.21 71.14 72.48 67.18 73.43 63.14C73.82 61.47 73.54 59.64 73.54 57.88C73.54 45.88 73.54 33.89 73.53 21.89C73.53 21.52 73.53 21.14 73.53 20.49C69.62 22.22 65.84 23.76 62.18 25.54C59.85 26.67 58.88 28.84 58.78 31.38C58.72 33.01 58.71 34.64 58.71 36.27C58.71 45.35 58.71 54.44 58.71 63.52C58.71 63.71 58.73 63.9 58.74 64.16H64.38C64.38 63.29 64.38 62.43 64.38 61.58C64.38 52.66 64.38 43.73 64.38 34.81C64.38 34.52 64.32 34.19 64.44 33.96C64.58 33.69 64.92 33.32 65.13 33.34C65.42 33.37 65.72 33.7 65.93 33.97C66.04 34.11 65.98 34.4 65.98 34.63C65.98 46.56 65.99 58.49 65.98 70.42C65.98 72.6 64.72 74.36 62.87 74.89C60.97 75.44 58.91 74.78 57.91 73.09C57.44 72.31 57.13 71.3 57.13 70.39C57.08 58.01 57.09 45.63 57.13 33.25C57.13 31.85 57.33 30.44 57.58 29.07C57.92 27.23 58.91 25.66 60.53 24.76C62.86 23.46 65.32 22.38 67.75 21.26C69.63 20.4 71.54 19.62 73.59 18.74V18.76ZM77.13 106.06C77.13 105.55 77.13 105.12 77.13 104.68C77.13 94.19 77.13 83.7 77.13 73.2C77.13 72.94 77.04 72.64 77.15 72.44C77.34 72.1 77.61 71.64 77.92 71.57C78.51 71.44 78.74 71.91 78.75 72.47C78.75 72.63 78.75 72.79 78.75 72.95C78.74 83.6 78.73 94.25 78.72 104.91C78.72 105.28 78.72 105.66 78.72 106.06H87.08C87.85 96.27 88.61 86.54 89.37 76.77C88.03 76.77 86.81 76.71 85.61 76.79C84.81 76.84 84.5 76.54 84.3 75.81C83.68 73.47 82.96 71.15 82.34 68.8C81.63 66.1 80.47 63.48 80.8 60.58C80.8 60.54 80.73 60.48 80.69 60.43H75.14C75.06 61.63 75.17 62.79 74.89 63.85C73.81 67.92 72.6 71.96 71.47 76.02C71.31 76.59 71.06 76.78 70.48 76.76C69.15 76.72 67.82 76.75 66.44 76.75C67.18 86.61 67.91 96.33 68.64 106.07H77.13V106.06ZM97.17 64.21C97.17 63.71 97.17 63.33 97.17 62.95C97.17 54.67 97.17 46.38 97.17 38.1C97.17 36.09 97.17 34.07 97.13 32.06C97.08 28.82 95.63 26.44 92.71 25C91.59 24.45 90.46 23.93 89.31 23.46C87.04 22.53 84.76 21.64 82.43 20.72V35.07H89.82C90.02 34.39 89.59 33.29 90.77 33.38C91.84 33.46 91.45 34.46 91.45 35.08C91.47 44.39 91.47 53.7 91.47 63C91.47 63.4 91.47 63.81 91.47 64.22H97.18L97.17 64.21ZM82.42 44.01C82.4 44.34 82.37 44.62 82.37 44.9C82.37 49.41 82.45 53.91 82.34 58.42C82.27 61.42 82.46 64.34 83.51 67.17C83.68 67.62 83.77 68.09 83.91 68.55C84.54 70.75 85.18 72.96 85.81 75.15H89.8V44.02H82.41L82.42 44.01ZM78.63 10.41C78.71 10.68 78.78 10.93 78.85 11.17C79.3 12.61 80.42 13.36 81.89 13.22C83.22 13.09 84.26 12.04 84.42 10.63C84.47 10.19 84.45 9.73997 84.45 9.28997C84.45 7.80997 84.19 7.53997 82.74 7.53997C79.9 7.53997 77.06 7.56997 74.22 7.53997C71.11 7.48997 71.39 7.67997 71.46 10.6C71.49 11.98 72.62 13.09 73.93 13.23C75.38 13.38 76.59 12.59 77.01 11.21C77.09 10.94 77.16 10.68 77.24 10.42H78.64L78.63 10.41ZM77.09 113.36V107.75H68.76C67.91 109.68 67.11 111.51 66.3 113.36H77.09ZM78.77 113.34H89.48C88.73 111.52 88.01 109.75 87.25 108C87.17 107.83 86.79 107.71 86.55 107.7C85.37 107.67 84.18 107.69 83 107.69C81.6 107.69 80.21 107.69 78.78 107.69V113.34H78.77ZM82.4 42.33H89.82V36.73H82.4V42.33ZM91.52 65.86C91.52 67.61 91.44 69.33 91.55 71.04C91.64 72.41 92.76 73.36 94.09 73.45C95.45 73.54 96.86 72.7 97 71.36C97.19 69.55 97.05 67.71 97.05 65.87H91.52V65.86ZM64.3 65.87H58.75C58.75 67.67 58.66 69.43 58.78 71.17C58.87 72.51 60.18 73.48 61.55 73.46C62.9 73.44 64.21 72.41 64.28 71.11C64.37 69.39 64.3 67.67 64.3 65.87ZM72.51 5.84997H83.31C82.03 3.49997 80.3 1.96997 77.64 2.10997C75.22 2.22997 73.67 3.72997 72.51 5.84997Z" stroke="#F6F6FB" stroke-width="1.09" stroke-linejoin="round"/>
<path d="M104.48 54.88V38.83H113.27V53.28C113.92 53.31 114.47 53.34 115.09 53.38V62.12C114.55 62.15 114 62.18 113.37 62.21V113.38C113.7 113.4 114.06 113.32 114.31 113.45C114.63 113.61 114.86 113.95 115.13 114.21C114.86 114.46 114.59 114.94 114.31 114.94C110.7 114.99 107.08 114.99 103.47 114.94C103.2 114.94 102.94 114.46 102.67 114.21C102.94 113.95 103.17 113.63 103.48 113.46C103.7 113.34 104.04 113.44 104.38 113.44V94.99C103.16 94.99 101.95 94.99 100.75 94.99C99.3101 94.99 97.8701 94.99 96.4301 94.99C95.8501 94.99 95.38 94.84 95.39 94.16C95.39 93.51 95.8801 93.42 96.4001 93.42C98.6701 93.42 100.94 93.42 103.21 93.42C103.59 93.42 103.96 93.42 104.44 93.42V60.65H113.5V54.88H104.47H104.48ZM106.09 62.22V113.34H111.68V62.22H106.09ZM106.09 40.36V53.26H111.67V40.36H106.09Z" stroke="#F6F6FB" stroke-width="1.09" stroke-linejoin="round"/>
<path d="M109.87 3.91994C109.44 3.91994 109.07 3.91994 108.69 3.91994C103.03 3.91994 97.36 3.91994 91.7 3.91994C91.44 3.91994 91.15 3.99994 90.94 3.89994C90.56 3.70994 89.99 3.44994 89.94 3.13994C89.84 2.51994 90.38 2.30994 90.96 2.30994C93.04 2.30994 95.12 2.30994 97.2 2.30994C101.58 2.30994 105.97 2.30994 110.35 2.30994C110.7 2.30994 111.04 2.30994 111.51 2.30994C111.51 2.72994 111.51 3.06994 111.51 3.40994C111.51 12.7799 111.51 22.1599 111.51 31.5299C111.51 31.8199 111.59 32.1699 111.46 32.3699C111.27 32.6399 110.92 32.9299 110.62 32.9499C110.42 32.9699 110.11 32.5799 109.98 32.2999C109.87 32.0599 109.94 31.7399 109.94 31.4499C109.94 27.5199 109.94 23.5799 109.94 19.6499C109.94 19.2999 109.94 18.9599 109.94 18.4999C109.53 18.4799 109.19 18.4499 108.86 18.4499C104.89 18.4499 100.93 18.4499 96.96 18.4499C96.67 18.4499 96.34 18.5299 96.11 18.4099C95.82 18.2599 95.44 17.9299 95.45 17.6899C95.45 17.4199 95.82 17.0099 96.1 16.9399C96.58 16.8099 97.11 16.8899 97.63 16.8899C101.34 16.8899 105.05 16.8899 108.76 16.8899C109.11 16.8899 109.46 16.8899 109.88 16.8899V3.91994H109.87Z" stroke="#F6F6FB" stroke-width="1.09" stroke-linejoin="round"/>
<path d="M4.12012 31.27H27.9101V32.78H5.64012V45.98H4.12012V31.26V31.27Z" fill="#F6F6FB"/>
<path d="M82.3999 42.33V36.73H89.8199V42.33H82.3999Z" fill="white"/>
<path d="M106.09 62.22H111.68V113.34H106.09V62.22Z" fill="white"/>
<path d="M106.1 40.35H111.68V53.25H106.1V40.35Z" fill="white"/>
<path d="M44.4899 45.05C43.9599 45.42 43.6099 45.84 43.3599 45.79C43.0499 45.72 42.6499 45.29 42.5999 44.97C42.5699 44.74 43.0799 44.22 43.3199 44.23C43.6499 44.25 43.9599 44.66 44.4899 45.05Z" fill="#F6F6FB"/>
<path d="M38.97 31.38C38.76 31.05 38.39 30.71 38.41 30.39C38.42 30.13 38.89 29.68 39.16 29.69C39.43 29.69 39.91 30.13 39.91 30.4C39.92 30.72 39.54 31.06 39.33 31.39C39.21 31.39 39.09 31.39 38.97 31.39V31.38Z" fill="#F6F6FB"/>
<path d="M21.6101 8.61002C21.0301 8.98002 20.7001 9.37002 20.3801 9.35002C20.1001 9.33002 19.8501 8.87002 19.5901 8.60002C19.8801 8.33002 20.1401 7.91002 20.4701 7.85002C20.7201 7.80002 21.0501 8.22002 21.6101 8.61002Z" fill="#F6F6FB"/>
<path d="M24.73 8.64003C24.15 8.99003 23.8 9.37003 23.48 9.35003C23.21 9.33003 22.97 8.85003 22.72 8.57003C23.02 8.31003 23.3 7.89003 23.62 7.85003C23.88 7.82003 24.2 8.24003 24.73 8.64003Z" fill="#F6F6FB"/>
<path d="M21.5401 23.19C21.0401 23.55 20.6801 23.98 20.4501 23.93C20.1201 23.85 19.8801 23.41 19.6001 23.12C19.9001 22.86 20.1801 22.4499 20.5201 22.3999C20.7601 22.3599 21.0801 22.81 21.5501 23.19H21.5401Z" fill="#F6F6FB"/>
<path d="M23.49 24.3199C23.14 23.7499 22.76 23.4099 22.77 23.0799C22.78 22.8199 23.35 22.3499 23.56 22.3999C23.88 22.4799 24.28 22.9099 24.32 23.2399C24.35 23.4899 23.9 23.8099 23.49 24.3199Z" fill="#F6F6FB"/>
<path d="M34.0301 8.54995C33.5401 8.94995 33.2201 9.38995 32.9801 9.34995C32.6501 9.29995 32.3701 8.87995 32.0701 8.61995C32.3501 8.33995 32.6001 7.91995 32.9301 7.83995C33.1701 7.78995 33.5101 8.18995 34.0301 8.54995Z" fill="#F6F6FB"/>
<path d="M37.23 23.2C36.62 23.57 36.27 23.95 35.94 23.93C35.67 23.91 35.24 23.41 35.24 23.13C35.24 22.87 35.73 22.4 36 22.4C36.33 22.4 36.65 22.8 37.23 23.2Z" fill="#F6F6FB"/>
<path d="M21.5401 15.9799C21.0101 16.3099 20.6401 16.6999 20.4001 16.6399C20.0801 16.5499 19.8501 16.0999 19.5901 15.8099C19.9001 15.5699 20.2001 15.1699 20.5401 15.1399C20.7801 15.1199 21.0801 15.5699 21.5501 15.9899L21.5401 15.9799Z" fill="#F6F6FB"/>
<path d="M40.34 37.69C39.78 38.1 39.46 38.5 39.15 38.5C38.89 38.5 38.39 37.99 38.42 37.77C38.47 37.46 38.87 37.05 39.19 36.98C39.43 36.92 39.78 37.33 40.34 37.7V37.69Z" fill="#F6F6FB"/>
<path d="M34.0301 23.14C33.5301 23.53 33.1901 23.97 32.9501 23.93C32.6201 23.87 32.3601 23.43 32.0601 23.16C32.3501 22.89 32.6201 22.47 32.9501 22.41C33.1901 22.36 33.5301 22.78 34.0301 23.15V23.14Z" fill="#F6F6FB"/>
<path d="M37.1499 15.89C36.6499 16.25 36.3099 16.68 36.0599 16.64C35.7299 16.58 35.4699 16.14 35.1799 15.86C35.4799 15.6 35.7499 15.17 36.0799 15.12C36.3399 15.08 36.6699 15.52 37.1499 15.89Z" fill="#F6F6FB"/>
<path d="M32.8801 17.0099C32.5101 16.4999 32.0701 16.1599 32.1201 15.9199C32.1901 15.5999 32.6201 15.3499 32.9001 15.0599C33.1601 15.3499 33.5901 15.6099 33.6401 15.9299C33.6801 16.1899 33.2501 16.5099 32.8801 17.0099Z" fill="#F6F6FB"/>
<path d="M15.36 23.2299C14.77 23.5799 14.42 23.9599 14.11 23.9299C13.85 23.9099 13.4 23.3599 13.44 23.1399C13.51 22.8399 13.95 22.4599 14.27 22.4199C14.52 22.3899 14.83 22.8199 15.35 23.2299H15.36Z" fill="#F6F6FB"/>
<path d="M18.48 23.07C17.92 23.5 17.62 23.92 17.31 23.93C17.04 23.93 16.76 23.47 16.49 23.21C16.76 22.93 16.99 22.5 17.31 22.41C17.55 22.34 17.9 22.73 18.48 23.07Z" fill="#F6F6FB"/>
<path d="M26.58 24.33C26.25 23.74 25.89 23.39 25.92 23.07C25.94 22.81 26.5 22.34 26.69 22.4C27.01 22.5 27.39 22.92 27.43 23.24C27.46 23.5 27.02 23.81 26.59 24.33H26.58Z" fill="#F6F6FB"/>
<path d="M36.0101 9.75996C35.6201 9.21996 35.1901 8.87996 35.2401 8.63996C35.3101 8.31996 35.7201 7.90996 36.0401 7.84996C36.2601 7.80996 36.7901 8.29996 36.8001 8.54996C36.8001 8.86996 36.4101 9.19996 36.0201 9.75996H36.0101Z" fill="#F6F6FB"/>
<path d="M15.38 15.85C14.81 16.24 14.48 16.63 14.17 16.63C13.91 16.63 13.41 16.11 13.45 15.9C13.51 15.58 13.91 15.18 14.23 15.11C14.48 15.06 14.82 15.47 15.38 15.85Z" fill="#F6F6FB"/>
<path d="M43.4199 23.1599C42.8499 23.5399 42.5199 23.9399 42.2099 23.9299C41.9399 23.9199 41.4599 23.3899 41.4999 23.1699C41.5599 22.8599 41.9799 22.4599 42.2999 22.3999C42.5499 22.3499 42.8799 22.7699 43.4199 23.1599Z" fill="#F6F6FB"/>
<path d="M43.4001 15.93C42.8201 16.29 42.4701 16.66 42.1701 16.64C41.9001 16.62 41.4401 16.07 41.4901 15.86C41.5701 15.55 42.0001 15.18 42.3301 15.12C42.5701 15.08 42.8801 15.52 43.4101 15.93H43.4001Z" fill="#F6F6FB"/>
<path d="M17.12 16.8C16.91 16.47 16.53 16.14 16.54 15.82C16.54 15.56 17.02 15.12 17.29 15.12C17.55 15.12 18.03 15.55 18.04 15.81C18.05 16.13 17.69 16.47 17.48 16.8C17.36 16.8 17.24 16.8 17.12 16.8Z" fill="#F6F6FB"/>
<path d="M43.43 37.77C42.86 38.14 42.51 38.52 42.2 38.5C41.93 38.48 41.45 37.93 41.51 37.73C41.6 37.41 42.02 37.04 42.35 36.98C42.59 36.94 42.91 37.37 43.43 37.77Z" fill="#F6F6FB"/>
<path d="M42.25 9.77999C41.86 9.22999 41.45 8.88999 41.5 8.63999C41.56 8.31999 41.95 7.92999 42.27 7.84999C42.46 7.79999 42.99 8.28999 42.99 8.54999C42.99 8.86999 42.62 9.19999 42.24 9.77999H42.25Z" fill="#F6F6FB"/>
<path d="M37.2301 30.48C36.6501 30.85 36.3101 31.23 35.9901 31.22C35.7301 31.21 35.2601 30.67 35.3101 30.44C35.3701 30.13 35.8101 29.74 36.1301 29.7C36.3901 29.66 36.7101 30.09 37.2401 30.48H37.2301Z" fill="#F6F6FB"/>
<path d="M37.25 37.6799C36.67 38.0999 36.36 38.4999 36.04 38.4999C35.78 38.4999 35.33 38.0399 35.31 37.7499C35.29 37.4899 35.72 36.9899 35.97 36.9699C36.3 36.9499 36.64 37.3099 37.25 37.6699V37.6799Z" fill="#F6F6FB"/>
<path d="M23.5501 14.71C23.9301 15.27 24.3301 15.6 24.3201 15.91C24.3101 16.18 23.7801 16.67 23.5601 16.63C23.2401 16.56 22.8401 16.15 22.7801 15.82C22.7301 15.58 23.1601 15.24 23.5501 14.71Z" fill="#F6F6FB"/>
<path d="M42.31 31.66C41.9 31.07 41.5 30.75 41.5 30.42C41.5 30.16 41.96 29.72 42.25 29.7C42.5 29.68 43 30.12 43.01 30.37C43.03 30.7 42.67 31.04 42.31 31.66Z" fill="#F6F6FB"/>
<path d="M30.9401 23.1099C30.3901 23.5099 30.0801 23.9199 29.7601 23.9199C29.5001 23.9199 28.9901 23.4099 29.0201 23.2099C29.0801 22.8899 29.4701 22.4799 29.7901 22.4099C30.0301 22.3499 30.3801 22.7499 30.9401 23.1099Z" fill="#F6F6FB"/>
<path d="M40.3099 23.12C39.7799 23.53 39.4499 23.97 39.2099 23.93C38.8899 23.87 38.4899 23.48 38.3999 23.16C38.3499 22.98 38.8199 22.43 39.0799 22.42C39.3999 22.4 39.7399 22.77 40.3099 23.12Z" fill="#F6F6FB"/>
<path d="M30.94 15.91C30.36 16.27 30.03 16.65 29.71 16.63C29.45 16.61 28.97 16.07 29.02 15.87C29.1 15.55 29.52 15.18 29.84 15.12C30.08 15.08 30.4 15.51 30.93 15.91H30.94Z" fill="#F6F6FB"/>
<path d="M26.6699 17.04C26.2899 16.48 25.9099 16.16 25.9099 15.84C25.9099 15.58 26.4399 15.08 26.6299 15.13C26.9499 15.2 27.3599 15.59 27.4099 15.91C27.4599 16.16 27.0399 16.5 26.6599 17.04H26.6699Z" fill="#F6F6FB"/>
<path d="M30.95 8.59997C30.37 8.97997 30.05 9.35997 29.73 9.33997C29.46 9.32997 29.22 8.85997 28.96 8.58997C29.24 8.31997 29.5 7.89997 29.82 7.83997C30.06 7.78997 30.4 8.19997 30.94 8.58997L30.95 8.59997Z" fill="#F6F6FB"/>
<path d="M26.6701 9.76998C26.2901 9.20998 25.9101 8.88998 25.9201 8.56998C25.9201 8.30998 26.4501 7.79998 26.6301 7.84998C26.9601 7.92998 27.3601 8.30998 27.4301 8.62998C27.4801 8.86998 27.0601 9.21998 26.6801 9.76998H26.6701Z" fill="#F6F6FB"/>
<path d="M17.2601 9.77001C16.9001 9.18001 16.5301 8.84 16.5501 8.53C16.5701 8.27 17.1101 7.8 17.3101 7.85C17.6201 7.93 18.0101 8.35 18.0501 8.67C18.0901 8.92 17.6601 9.24001 17.2601 9.77001Z" fill="#F6F6FB"/>
<path d="M14.15 9.77C13.79 9.21 13.39 8.86 13.44 8.61C13.51 8.29 13.92 7.9 14.24 7.85C14.44 7.81 14.95 8.32 14.95 8.59C14.95 8.91 14.55 9.22 14.15 9.78V9.77Z" fill="#F6F6FB"/>
<path d="M40.3101 15.93C39.7301 16.28 39.3801 16.65 39.0601 16.62C38.8001 16.6 38.3501 16.06 38.4001 15.84C38.4701 15.54 38.9001 15.15 39.2201 15.12C39.4801 15.09 39.7901 15.52 40.3101 15.93Z" fill="#F6F6FB"/>
<path d="M40.3001 8.62992C39.7601 8.98992 39.3901 9.40992 39.1501 9.34992C38.8301 9.26992 38.6101 8.80992 38.3501 8.51992C38.6301 8.27992 38.9001 7.85992 39.1901 7.84992C39.4801 7.83992 39.7801 8.23992 40.3001 8.62992Z" fill="#F6F6FB"/>
</svg>
