<svg width="127" height="117" viewBox="0 0 127 117" fill="none" xmlns="http://www.w3.org/2000/svg">
<path d="M85.82 68.4C98.93 68.4 112.04 68.4 125.15 68.38C125.91 68.38 126.07 68.67 126.07 69.43C126.07 80.85 126.07 92.27 126.08 103.69C126.08 107.29 126.08 110.9 126.08 114.5C126.08 115.79 126.08 115.8 124.94 115.8C123.05 115.8 121.16 115.78 119.28 115.82C118.68 115.83 118.52 115.63 118.52 114.99C118.54 111.39 118.52 107.78 118.52 104.18C118.52 95.32 118.52 86.45 118.54 77.59C118.54 76.9 118.39 76.71 117.75 76.71C96.59 76.73 75.43 76.73 54.27 76.73C54.06 76.73 53.85 76.75 53.64 76.73C53.17 76.68 52.98 76.86 53.02 77.42C53.07 78.29 53.05 79.16 53.05 80.03C53.05 91.48 53.0501 102.93 53.0601 114.38C53.0601 114.64 53.04 114.9 53.05 115.16C53.05 115.64 52.86 115.81 52.42 115.81C50.32 115.79 48.22 115.79 46.13 115.81C45.63 115.81 45.5 115.61 45.51 115.1C45.52 113.5 45.51 111.9 45.51 110.31C45.51 96.83 45.51 83.34 45.51 69.86C45.51 68.8867 45.9367 68.4 46.79 68.4C59.8001 68.4 72.8 68.4 85.81 68.4H85.82Z" stroke="#F6F6FB" stroke-width="1.57" stroke-linejoin="round"/>
<path d="M12.2501 48.0401C12.1401 48.2801 12.0201 48.5101 11.9301 48.7501C10.2501 53.1801 8.63007 58.0601 8.63007 62.7201C8.63007 66.7301 8.52007 70.6501 8.32007 74.7101C8.21007 76.9501 8.29007 81.4201 5.72007 81.9901C2.26007 82.6301 1.73007 79.1401 1.36007 75.5001C0.820073 70.0801 0.660073 64.6401 0.980073 59.1901C1.21007 55.1401 1.70007 51.1301 2.89007 47.2401C3.99007 43.6601 5.64007 40.4201 8.59007 38.0601C10.6101 36.4401 12.8801 35.7201 15.4601 35.9001C17.6901 36.0601 19.9201 36.1101 22.1601 36.1501C24.7101 36.1901 27.3501 36.3701 30.1501 36.2301C33.4801 36.0501 34.7001 35.4801 36.8601 34.1601C40.5801 31.8901 43.9301 29.1901 46.4301 25.5001C46.4601 25.4601 46.5401 25.4501 46.7501 25.3601C46.7501 25.7901 46.7501 26.1501 46.7501 26.5201C46.8001 28.6901 46.7201 30.8701 46.9501 33.0201C47.0701 34.1601 47.6301 35.2901 48.1501 36.3401C48.4301 36.9101 48.4001 37.1201 47.9401 37.5101C44.7001 40.3001 41.1401 42.5201 37.2701 44.2401C36.9801 44.3701 36.7001 44.9101 36.7001 45.2601C36.6701 51.9701 36.6801 58.6801 36.6901 65.3901C36.6901 67.2501 36.7001 67.2601 34.8701 67.2601C27.7501 67.2601 20.6301 67.2501 13.5101 67.2801C12.6501 67.2801 12.4501 67.0001 12.4601 66.1801C12.5201 60.6701 12.8301 55.2301 12.8601 49.7201C12.8601 49.2101 12.8901 47.2501 12.8901 46.7401C12.7801 46.7101 12.3501 48.0701 12.2401 48.0501L12.2501 48.0401Z" stroke="#F6F6FB" stroke-width="1.64" stroke-linejoin="round"/>
<path d="M12.47 91.4C12.47 85.47 12.48 79.53 12.46 73.6C12.46 72.88 12.66 72.64 13.36 72.64C20.89 72.66 28.42 72.66 35.96 72.64C36.74 72.64 36.7 73.11 36.7 73.66C36.7 84.33 36.7 94.99 36.69 105.66C36.69 106.83 36.73 108 36.69 109.16C36.56 112.02 34.65 114.16 31.97 114.5C29.46 114.82 26.97 113.19 26.28 110.7C26.09 110.03 26.02 109.3 26.02 108.59C26 100.19 25.99 91.8 26.02 83.4C26.02 82.62 25.83 82.4 25.08 82.42C23.18 82.46 23.17 82.42 23.17 84.34C23.17 92.48 23.17 100.62 23.16 108.75C23.16 111.54 21.77 113.53 19.39 114.29C16.06 115.35 12.59 112.89 12.54 109.28C12.46 103.32 12.52 97.35 12.52 91.38C12.52 91.38 12.5 91.38 12.49 91.38L12.47 91.4Z" stroke="#F6F6FB" stroke-width="1.64" stroke-linejoin="round"/>
<path d="M15.52 21.8301C15.52 16.7801 19.6 12.6301 24.58 12.6101C29.56 12.5901 33.63 16.7801 33.65 21.9401C33.67 27.1001 29.56 31.2801 24.49 31.2701C19.58 31.2701 15.53 27.0001 15.52 21.8301Z" stroke="#F6F6FB" stroke-width="1.75" stroke-linejoin="round"/>
<path d="M46.8801 4.34006C45.9868 4.24006 45.5468 3.73672 45.5601 2.83006C45.5734 1.49006 46.2201 0.823391 47.5001 0.830058C50.7801 0.830058 54.0501 0.870058 57.3301 0.820058C58.1601 0.810058 58.3901 1.12006 58.3101 1.88006C58.2701 2.30006 58.2301 2.73006 58.2701 3.14006C58.3401 3.84006 58.1901 4.24006 57.4001 4.29006C57.2301 4.29006 56.9501 4.82006 56.9501 5.11006C56.9501 10.5201 56.9701 15.9301 56.9901 21.3501C57.0001 24.8801 57.0101 28.4101 57.0101 31.9501C57.0101 35.4501 54.5501 37.8301 51.3701 37.4301C48.8601 37.1101 46.8901 34.8101 46.8901 32.1201C46.8801 23.2401 46.8901 14.3601 46.8901 5.48006C46.8901 5.10006 46.8901 4.72006 46.8901 4.35006L46.8801 4.34006Z" stroke="#F6F6FB" stroke-width="1.64" stroke-linejoin="round"/>
<path d="M120.36 48.3301C120.36 53.1101 120.36 57.83 120.36 62.55C120.36 63 120.36 63.45 120.34 63.89C120.23 65.54 119.05 66.72 117.54 66.71C116.05 66.71 114.84 65.4701 114.82 63.8101C114.79 61.8201 114.85 59.84 114.86 57.85C114.88 54.84 114.9 51.8401 114.89 48.8301C114.89 48.6301 114.67 48.3401 114.48 48.2401C113.77 47.8701 114.17 47.23 114.1 46.71C114.09 46.61 114.54 46.34 114.79 46.34C116.55 46.3 118.32 46.3 120.08 46.32C120.45 46.32 121 46.04 121.07 46.8C121.17 47.85 121.06 48.12 120.36 48.32V48.3301Z" stroke="#F6F6FB" stroke-width="1.39" stroke-linejoin="round"/>
<path d="M104.38 48.3301C103.83 48.1601 103.37 47.1301 103.67 46.5901C103.75 46.4401 104.03 46.3501 104.22 46.3401C106.2 46.3101 108.18 46.3001 110.16 46.3201C110.33 46.3201 110.63 46.6301 110.66 46.8301C110.81 47.9801 110.72 48.1201 109.86 48.3201C109.86 48.5701 109.86 48.8401 109.86 49.1001C109.88 53.8901 109.91 58.6901 109.93 63.4801C109.93 65.1301 109.14 66.2501 107.77 66.6001C106.22 66.9901 104.63 65.8901 104.45 64.2501C104.38 63.6401 104.4 63.0101 104.4 62.3901C104.4 57.7201 104.4 53.0501 104.4 48.3201L104.38 48.3301Z" stroke="#F6F6FB" stroke-width="1.39" stroke-linejoin="round"/>
<path d="M93.9001 48.3901C93.2101 48.1301 92.8301 47.3001 93.1001 46.6301C93.1601 46.4801 93.4301 46.3401 93.6101 46.3401C95.6101 46.3201 97.6201 46.3201 99.6301 46.3301C99.7801 46.3301 100.01 46.4601 100.08 46.5901C100.43 47.3101 100.07 48.1401 99.3301 48.3401C99.3301 49.9701 99.3301 51.6101 99.3301 53.2401C99.3301 56.6401 99.3401 60.0501 99.3501 63.4501C99.3501 64.7801 98.9001 65.8201 97.6701 66.4101C96.1501 67.1401 94.2901 66.2201 93.9201 64.5301C93.8301 64.1001 93.8001 63.6401 93.8001 63.2001C93.8001 58.9201 93.8001 54.6501 93.8101 50.3701C93.8101 49.7001 93.8701 49.0401 93.9001 48.3801V48.3901Z" stroke="#F6F6FB" stroke-width="1.39" stroke-linejoin="round"/>
<path d="M72.6301 52.2101C72.4701 52.8401 72.3001 53.4401 72.1601 54.0501C71.3401 57.7501 70.5501 61.4601 69.7001 65.1601C69.6501 65.3901 69.2801 65.6901 69.0601 65.6901C67.7501 65.6901 67.6301 65.4601 67.9201 64.1701C68.9801 59.5201 70.0201 54.8601 71.0901 50.1101C70.6701 50.0501 70.2401 50.0501 69.8701 49.9201C69.5801 49.8101 69.1701 49.5601 69.1301 49.3201C69.0601 48.8801 69.1901 48.3701 69.8201 48.3501C69.9301 48.3501 70.0401 48.3001 69.9701 48.3201C70.0701 46.8501 69.9901 45.4101 70.2901 44.0601C70.7701 41.8801 72.1501 40.3301 74.0901 39.3101C74.3101 39.2001 74.6101 38.9501 74.6201 38.7601C74.6601 36.5601 74.6401 34.3601 74.6401 32.1501C74.2201 32.1101 73.8901 32.0801 73.4701 32.0401C73.4701 31.1701 73.4301 30.3301 73.5001 29.5001C73.5201 29.3001 73.8601 28.9701 74.0501 28.9701C76.3901 28.9301 78.7401 28.9201 81.0801 28.9501C81.2501 28.9501 81.5601 29.2601 81.5701 29.4401C81.6201 30.2801 81.5901 31.1201 81.5901 31.9901C81.1501 32.0901 80.7801 32.1801 80.3601 32.2701C80.3601 34.4101 80.3301 36.5201 80.3901 38.6401C80.3901 38.9201 80.8101 39.2601 81.1101 39.4501C83.3601 40.8201 84.8101 42.7501 85.0601 45.4801C85.1301 46.1901 85.0301 46.9301 84.9301 47.6401C84.8701 48.1001 84.9801 48.2901 85.3901 48.5001C85.6601 48.6401 85.9001 49.0801 85.9401 49.4101C85.9601 49.5701 85.5001 49.8601 85.2201 49.9601C84.8901 50.0701 84.5101 50.0401 84.0301 50.0801C84.2101 51.0301 84.3701 51.9001 84.5601 52.7701C85.4401 56.7301 86.3001 60.6901 87.2401 64.6301C87.4801 65.6301 86.8301 65.5101 86.3501 65.6701C85.7601 65.8701 85.4601 65.7101 85.3101 65.0001C84.4501 60.9501 83.5301 56.9101 82.6301 52.8701C82.5901 52.6801 82.5101 52.5001 82.4401 52.3101C77.8101 54.7501 76.9501 54.7401 72.6201 52.2201L72.6301 52.2101ZM71.3201 46.4401C71.1101 48.0801 71.4001 48.4501 73.0701 48.4001C73.4701 48.3901 73.8601 48.1701 74.2601 48.0701C74.5401 48.0001 74.9101 47.8301 75.1101 47.9401C76.6401 48.7801 78.2601 48.2301 79.8601 48.4301C79.8701 48.1901 79.8901 48.0501 79.8901 47.9201C79.8701 47.2001 80.1001 46.6601 80.8701 46.5401C81.6501 46.4101 81.9801 46.8901 82.1701 47.5801C82.2801 47.9901 82.4501 48.3701 82.5901 48.7901C83.7101 48.2401 83.7801 47.3101 83.8201 46.3201C83.8501 45.6501 83.6201 45.2201 82.9801 45.1601C81.7801 45.0401 80.5501 44.7801 79.3901 44.9501C76.7201 45.3201 74.0901 45.9201 71.3201 46.4501V46.4401ZM78.6801 51.0801C78.2401 49.5501 77.0701 49.9301 75.9801 49.9901C75.2201 50.0301 74.4501 49.9501 73.6801 49.9601C73.4501 49.9601 73.1101 50.0201 73.0301 50.1701C72.9401 50.3301 73.0301 50.7101 73.1601 50.8601C73.4601 51.2001 73.8301 51.4801 74.2001 51.7301C76.4201 53.2401 79.7501 52.9401 81.6501 51.0401C81.8501 50.8401 81.9401 50.5201 82.0801 50.2501C81.8301 50.1701 81.5801 50.0301 81.3201 50.0201C80.4101 50.0001 79.3801 49.7101 78.9301 50.9501C78.9201 50.9901 78.8401 51.0001 78.6901 51.0601L78.6801 51.0801ZM75.3301 43.8201C75.4001 43.0901 75.0201 42.7201 74.3501 42.7201C73.7701 42.7201 73.3201 43.0201 73.3301 43.7201C73.3401 44.4001 73.6301 44.8401 74.3401 44.8101C74.9301 44.7901 75.4001 44.5801 75.3301 43.8201ZM77.6401 41.5901C77.3201 42.0501 76.9601 42.3401 76.9801 42.6001C77.0001 42.8701 77.3901 43.2901 77.6401 43.3001C77.8801 43.3101 78.3501 42.8901 78.3401 42.6601C78.3401 42.3601 77.9701 42.0601 77.6401 41.5901Z" stroke="#F6F6FB" stroke-width="1.06" stroke-linejoin="round"/>
<path d="M76.6901 64.4701C76.6901 63.2401 76.7001 62.1101 76.6901 60.9901C76.6901 60.4801 76.7701 59.9601 77.3401 60.0201C77.5601 60.0401 77.8601 60.6201 77.8901 60.9701C77.9801 61.8901 77.9801 62.8201 77.9701 63.7501C77.9701 64.2801 78.1201 64.4501 78.6601 64.4201C79.5601 64.3701 80.4701 64.4001 81.3601 64.4701C82.1101 64.5301 82.6501 65.1601 82.5801 65.8501C82.5101 66.5901 82.1201 67.1401 81.3401 67.1401C78.6601 67.1601 75.9801 67.1601 73.3001 67.1101C72.4901 67.1001 72.0401 66.5201 72.0801 65.7401C72.1201 64.9401 72.5701 64.5001 73.3101 64.4701C74.4001 64.4301 75.4901 64.4601 76.6801 64.4601L76.6901 64.4701Z" stroke="#F6F6FB" stroke-width="1.06" stroke-linejoin="round"/>
<path d="M77.3102 54.4302C78.4302 55.2702 78.7902 57.4202 78.0102 58.5602C77.6302 59.1102 77.0702 59.1402 76.6902 58.6202C75.8202 57.4402 76.1402 55.3002 77.3102 54.4302Z" stroke="#F6F6FB" stroke-width="1.06" stroke-linejoin="round"/>
<path d="M75.8401 22.6201C75.8701 22.0401 76.2101 21.6601 76.8201 21.5901C77.4001 21.5201 78.0501 22.1001 78.0201 22.6601C77.9801 23.3401 77.5601 23.6901 76.9401 23.7701C76.4401 23.8301 75.8601 23.2201 75.8401 22.6101V22.6201Z" stroke="#F6F6FB" stroke-width="1.06" stroke-linejoin="round"/>
<path d="M80.2402 25.2501C80.1602 25.9001 79.5702 26.3801 79.0402 26.2801C78.5002 26.1901 77.9802 25.5301 78.0602 25.0401C78.1402 24.5301 78.8302 24.0201 79.3302 24.1301C79.9202 24.2701 80.2502 24.6501 80.2402 25.2401V25.2501Z" stroke="#F6F6FB" stroke-width="1.06" stroke-linejoin="round"/>
<path d="M78.2001 46.8801C78.1501 47.2901 77.7701 47.6001 77.4301 47.5401C77.0801 47.4801 76.7501 47.0601 76.8101 46.7501C76.8601 46.4301 77.3001 46.1001 77.6201 46.1701C78.0001 46.2601 78.2101 46.5001 78.2001 46.8801Z" stroke="#F6F6FB" stroke-width="1.06" stroke-linejoin="round"/>
<path d="M77.47 27.2401C77.34 27.8701 77.08 28.3601 76.39 28.3701C75.86 28.3801 75.28 27.6801 75.35 27.1101C75.43 26.4401 75.91 26.1701 76.48 26.1801C77.09 26.1901 77.43 26.6001 77.47 27.2301V27.2401Z" stroke="#F6F6FB" stroke-width="1.06" stroke-linejoin="round"/>
</svg>
