<?xml version="1.0" encoding="UTF-8"?>
<svg id="Layer_2" data-name="Layer 2" xmlns="http://www.w3.org/2000/svg" viewBox="0 0 113.42 118.32">
  <defs>
    <style>
      .cls-1 {
        fill: #fff;
      }

      .cls-2, .cls-3 {
        stroke-width: 1.68px;
      }

      .cls-2, .cls-3, .cls-4, .cls-5 {
        fill: none;
        stroke-linecap: round;
        stroke-linejoin: round;
      }

      .cls-2, .cls-4 {
        stroke: #0092ce;
      }

      .cls-3, .cls-5 {
        stroke: #eb8467;
      }

      .cls-4 {
        stroke-width: 1.61px;
      }
    </style>
  </defs>
  <g id="Layer_1-2" data-name="Layer 1">
    <g>
      <path class="cls-2" d="m70.68,13.56h26.28c.02-.43.06-.84.06-1.25,0-3.09,0-6.19,0-9.28,0-1.04.32-1.87,1.42-2.13,1.23-.29,2.18.6,2.19,2.05.02,3.05,0,6.11,0,9.16,0,.43,0,.86,0,1.49.88,0,1.71-.01,2.55,0,2.31.04,3.88,1.48,3.89,3.79.04,9.16.04,18.33,0,27.49,0,2.35-1.51,3.81-3.84,3.81-12.93.02-25.87.02-38.8,0-2.41,0-3.87-1.47-3.88-3.88-.02-9.09-.02-18.17,0-27.26,0-2.46,1.51-3.9,3.97-3.94.77-.01,1.54,0,2.45,0,0-2.24,0-4.38,0-6.52,0-1.33,0-2.66,0-3.99.01-1.44.67-2.23,1.83-2.23,1.15,0,1.8.78,1.81,2.25.02,3.17,0,6.34,0,9.52,0,.27.03.54.06.93Zm13.07,29.65c5.14,0,10.28,0,15.43,0,1.85,0,2.42-.58,2.42-2.47,0-6.38,0-12.77,0-19.15,0-1.89-.55-2.47-2.42-2.47-10.24,0-20.49,0-30.73,0-1.87,0-2.42.58-2.42,2.47,0,6.38,0,12.77,0,19.15,0,1.88.57,2.46,2.42,2.46,5.1,0,10.21,0,15.31,0Z"/>
      <path class="cls-4" d="m73.28,82.29c11.61,0,23.22.05,34.83-.03,3.71-.03,5.04,2.53,4.3,5.92-.33,1.5-1.65,2.5-3.22,2.66-.39.04-.78.02-1.17.02-23.22,0-46.44-.03-69.66.03-3.09,0-5.08-1.66-4.54-5.48.27-1.91,1.81-3.12,3.92-3.12,4.21-.02,8.42,0,12.62,0,7.64,0,15.27,0,22.91,0Z"/>
      <path class="cls-4" d="m24.8,38.98c-7.88,8.29-10.14,18.43-10.63,29.14-.38,8.38.76,16.56,4.19,24.29.87,1.95,1.98,3.79,3.02,5.76-.2.03-.45.08-.69.1-2.86.19-5.76-.45-8.58.56-.22.08-.68-.28-.93-.53-2.31-2.4-3.98-5.23-5.1-8.34-4.86-13.5-4.82-26.96.56-40.31,1.25-3.11,3.08-5.88,5.66-8.09,2-1.71,4.28-2.65,6.95-2.59,1.78.04,3.57,0,5.54,0Z"/>
      <path class="cls-4" d="m56.4,68.1c9.83-3.33,19.64-4.49,29.7-1.61,3.73,1.07,7.59,1.72,11.38,2.57,4.47,1,7.87,5.26,7.54,9.52h-51.29c2.6-3.14,3.51-6.6,2.66-10.48Z"/>
      <path class="cls-4" d="m25.57,79.1h-7.31c-.17-2.67-.46-5.34-.49-8.02-.08-7.88,1.09-15.53,4.58-22.68,1.26-2.58,2.85-4.95,5.07-6.82,4.22-3.55,8.99-3.45,13.08.3,2.92,2.68,4.78,6.07,6.1,9.75.94,2.63,1.62,5.36,2.42,8.04h-7.54c-.23-.65-.47-1.65-.92-2.54-.85-1.66-1.64-3.41-2.8-4.84-2.48-3.05-5.56-2.93-8.09.12-1.67,2.02-2.67,4.4-3.39,6.89-1.8,6.25-1.97,12.57-.81,18.95.05.26.07.53.12.85Z"/>
      <path class="cls-4" d="m55.04,113.91c17.22,0,34.44,0,51.65,0,1.88,0,2.73.56,2.75,1.78.01,1.23-.87,1.83-2.71,1.83-34.4,0-68.79,0-103.19,0-1.86,0-2.72-.57-2.74-1.79-.01-1.23.86-1.82,2.7-1.82,17.18,0,34.36,0,51.54,0Z"/>
      <path class="cls-4" d="m65.45,110.22c.31-.51.5-.84.71-1.15,3.05-4.54,6.12-9.06,9.15-13.62.46-.69.93-.99,1.78-.98,5.02.04,10.05.02,15.07.02.34,0,.68,0,1.19,0-.25.44-.4.74-.58,1.02-3.11,4.64-6.22,9.28-9.36,13.9-.25.36-.75.78-1.13.78-5.53.05-11.06.03-16.83.03Z"/>
      <path class="cls-4" d="m38.67,110.15H11.4c0-1.89-.18-3.8.06-5.66.18-1.47,1.74-2.52,3.27-2.53,6.85-.02,13.7-.03,20.54,0,1.7,0,3.25,1.35,3.38,3,.13,1.7.03,3.42.03,5.19Z"/>
      <path class="cls-3" d="m45.49,63.05c4.29.13,7.7,3.67,7.61,7.9-.1,4.34-3.67,7.81-7.93,7.71-4.28-.1-7.76-3.78-7.61-8.03.16-4.29,3.73-7.7,7.93-7.57Z"/>
      <path class="cls-4" d="m19.02,82.8c2.48,0,4.8-.03,7.13.04.27,0,.61.49.78.83.84,1.72,1.47,3.55,2.46,5.17,2.33,3.83,5.73,5.85,10.3,5.66,1.39-.06,2.78,0,4.17,0,.09.11.17.22.26.33-1.46,1.71-2.92,3.42-4.38,5.13-1.75-1.32-3.46-1.69-5.31-1.68-2.38.02-4.75-.03-7.13.02-.78.02-1.3-.25-1.78-.84-3.45-4.22-5.2-9.2-6.49-14.66Z"/>
      <path class="cls-1" d="m83.75,43.2c-5.1,0-10.21,0-15.31,0-1.86,0-2.42-.58-2.42-2.46,0-6.38,0-12.77,0-19.15,0-1.9.55-2.47,2.42-2.47,10.24,0,20.49,0,30.73,0,1.88,0,2.42.57,2.42,2.47,0,6.38,0,12.77,0,19.15,0,1.89-.57,2.46-2.42,2.47-5.14,0-10.28,0-15.43,0Zm14.12-10.12c-.93,0-1.79.06-2.63-.01-1.48-.13-2.65.16-3.62,1.46-.87,1.16-2.16.95-3.01-.29-.56-.81-1.07-1.66-1.71-2.64-.74,1.95-1.41,3.69-2.06,5.45-.3.82-.91,1.46-1.72,1.3-.65-.13-1.44-.67-1.75-1.25-.79-1.47-1.34-3.07-2-4.62-.36-.84-.72-1.68-1.16-2.68-.41.6-.75.99-.97,1.43-.73,1.45-1.87,1.95-3.45,1.82-1.35-.11-2.71-.02-4.13-.02v6.48h28.22v-6.42Zm-28.19-3.75c1.41,0,2.77.03,4.11-.03.26-.01.57-.35.75-.61.85-1.22,1.63-2.48,2.51-3.68.94-1.29,2.48-1.15,3.21.25.23.45.4.93.6,1.4.68,1.59,1.36,3.17,2.13,4.98.61-1.61,1.13-2.96,1.62-4.32.3-.82.73-1.47,1.68-1.58.96-.1,1.51.46,1.97,1.2.71,1.12,1.43,2.23,2.11,3.28,2.43-1.52,5.11-.3,7.55-.92v-6.46h-28.24v6.5Z"/>
      <path class="cls-5" d="m97.87,33.08v6.42h-28.22v-6.48c1.42,0,2.78-.08,4.13.02,1.58.12,2.72-.38,3.45-1.82.22-.44.56-.83.97-1.43.43,1,.8,1.83,1.16,2.68.65,1.55,1.21,3.15,2,4.62.31.58,1.1,1.12,1.75,1.25.81.16,1.41-.47,1.72-1.3.65-1.75,1.32-3.5,2.06-5.45.64.99,1.15,1.83,1.71,2.64.86,1.24,2.15,1.45,3.01.29.98-1.31,2.15-1.6,3.62-1.46.84.08,1.7.01,2.63.01Z"/>
      <path class="cls-5" d="m69.68,29.33v-6.5h28.24v6.46c-2.44.62-5.12-.6-7.55.92-.68-1.06-1.4-2.17-2.11-3.28-.46-.73-1.01-1.3-1.97-1.2-.95.1-1.38.75-1.68,1.58-.49,1.36-1.01,2.7-1.62,4.32-.77-1.8-1.45-3.39-2.13-4.98-.2-.47-.37-.95-.6-1.4-.73-1.41-2.27-1.54-3.21-.25-.87,1.2-1.66,2.47-2.51,3.68-.18.26-.49.6-.75.61-1.35.06-2.7.03-4.11.03Z"/>
    </g>
  </g>
</svg>