<svg width="114" height="119" viewBox="0 0 114 119" fill="none" xmlns="http://www.w3.org/2000/svg">
<path d="M70.6799 13.56H96.9599C96.9799 13.13 97.0199 12.72 97.0199 12.31C97.0199 9.22 97.0199 6.12 97.0199 3.03C97.0199 1.99 97.3399 1.16 98.4399 0.9C99.6699 0.61 100.62 1.5 100.63 2.95C100.65 6 100.63 9.06 100.63 12.11C100.63 12.54 100.63 12.97 100.63 13.6C101.51 13.6 102.34 13.59 103.18 13.6C105.49 13.64 107.06 15.08 107.07 17.39C107.11 26.55 107.11 35.72 107.07 44.88C107.07 47.23 105.56 48.69 103.23 48.69C90.2999 48.71 77.3599 48.71 64.4299 48.69C62.0199 48.69 60.5599 47.22 60.5499 44.81C60.5299 35.72 60.5299 26.64 60.5499 17.55C60.5499 15.09 62.0599 13.65 64.5199 13.61C65.2899 13.6 66.0599 13.61 66.9699 13.61C66.9699 11.37 66.9699 9.23 66.9699 7.09C66.9699 5.76 66.9699 4.43 66.9699 3.1C66.9799 1.66 67.6399 0.87 68.7999 0.87C69.9499 0.87 70.5999 1.65 70.6099 3.12C70.6299 6.29 70.6099 9.46 70.6099 12.64C70.6099 12.91 70.6399 13.18 70.6699 13.57L70.6799 13.56ZM83.7499 43.21C88.8899 43.21 94.0299 43.21 99.1799 43.21C101.03 43.21 101.6 42.63 101.6 40.74C101.6 34.36 101.6 27.97 101.6 21.59C101.6 19.7 101.05 19.12 99.1799 19.12C88.9399 19.12 78.6899 19.12 68.4499 19.12C66.5799 19.12 66.0299 19.7 66.0299 21.59C66.0299 27.97 66.0299 34.36 66.0299 40.74C66.0299 42.62 66.5999 43.2 68.4499 43.2C73.5499 43.2 78.6599 43.2 83.7599 43.2L83.7499 43.21Z" stroke="#F6F6FB" stroke-width="1.68" stroke-linecap="round" stroke-linejoin="round"/>
<path d="M73.28 82.29C84.89 82.29 96.5 82.34 108.11 82.26C111.82 82.23 113.15 84.79 112.41 88.18C112.08 89.68 110.76 90.68 109.19 90.84C108.8 90.88 108.41 90.86 108.02 90.86C84.8 90.86 61.58 90.83 38.36 90.89C35.27 90.89 33.28 89.23 33.82 85.41C34.09 83.5 35.63 82.29 37.74 82.29C41.95 82.27 46.16 82.29 50.36 82.29C58 82.29 65.63 82.29 73.27 82.29H73.28Z" stroke="#F6F6FB" stroke-width="1.61" stroke-linecap="round" stroke-linejoin="round"/>
<path d="M24.7999 38.98C16.9199 47.27 14.6599 57.41 14.1699 68.12C13.7899 76.5 14.9299 84.68 18.3599 92.41C19.2299 94.36 20.3399 96.2 21.3799 98.17C21.1799 98.2 20.9299 98.25 20.6899 98.27C17.8299 98.46 14.9299 97.82 12.1099 98.83C11.8899 98.91 11.4299 98.55 11.1799 98.3C8.8699 95.9 7.1999 93.07 6.0799 89.96C1.2199 76.46 1.2599 63 6.6399 49.65C7.8899 46.54 9.7199 43.77 12.2999 41.56C14.2999 39.85 16.5799 38.91 19.2499 38.97C21.0299 39.01 22.8199 38.97 24.7899 38.97L24.7999 38.98Z" stroke="#F6F6FB" stroke-width="1.61" stroke-linecap="round" stroke-linejoin="round"/>
<path d="M56.4 68.1C66.23 64.77 76.04 63.61 86.1 66.49C89.83 67.56 93.69 68.21 97.48 69.06C101.95 70.06 105.35 74.32 105.02 78.58H53.73C56.33 75.44 57.24 71.98 56.39 68.1H56.4Z" stroke="#F6F6FB" stroke-width="1.61" stroke-linecap="round" stroke-linejoin="round"/>
<path d="M25.5699 79.1H18.2599C18.0899 76.43 17.7999 73.76 17.7699 71.08C17.6899 63.2 18.8599 55.55 22.3499 48.4C23.6099 45.82 25.1999 43.45 27.4199 41.58C31.6399 38.03 36.4099 38.13 40.4999 41.88C43.4199 44.56 45.2799 47.95 46.5999 51.63C47.5399 54.26 48.2199 56.99 49.0199 59.67H41.4799C41.2499 59.02 41.0099 58.02 40.5599 57.13C39.7099 55.47 38.9199 53.72 37.7599 52.29C35.2799 49.24 32.1999 49.36 29.6699 52.41C27.9999 54.43 26.9999 56.81 26.2799 59.3C24.4799 65.55 24.3099 71.87 25.4699 78.25C25.5199 78.51 25.5399 78.78 25.5899 79.1H25.5699Z" stroke="#F6F6FB" stroke-width="1.61" stroke-linecap="round" stroke-linejoin="round"/>
<path d="M55.0399 113.91C72.2599 113.91 89.4799 113.91 106.69 113.91C108.57 113.91 109.42 114.47 109.44 115.69C109.45 116.92 108.57 117.52 106.73 117.52C72.3299 117.52 37.9399 117.52 3.53989 117.52C1.67989 117.52 0.81989 116.95 0.79989 115.73C0.78989 114.5 1.65989 113.91 3.49989 113.91C20.6799 113.91 37.8599 113.91 55.0399 113.91Z" stroke="#F6F6FB" stroke-width="1.61" stroke-linecap="round" stroke-linejoin="round"/>
<path d="M65.45 110.22C65.76 109.71 65.95 109.38 66.16 109.07C69.21 104.53 72.28 100.01 75.31 95.45C75.77 94.76 76.24 94.46 77.09 94.47C82.11 94.51 87.14 94.49 92.16 94.49C92.5 94.49 92.84 94.49 93.35 94.49C93.1 94.93 92.95 95.23 92.77 95.51C89.66 100.15 86.55 104.79 83.41 109.41C83.16 109.77 82.66 110.19 82.28 110.19C76.75 110.24 71.22 110.22 65.45 110.22Z" stroke="#F6F6FB" stroke-width="1.61" stroke-linecap="round" stroke-linejoin="round"/>
<path d="M38.67 110.15H11.4C11.4 108.26 11.22 106.35 11.46 104.49C11.64 103.02 13.2 101.97 14.73 101.96C21.58 101.94 28.43 101.93 35.27 101.96C36.97 101.96 38.52 103.31 38.65 104.96C38.78 106.66 38.68 108.38 38.68 110.15H38.67Z" stroke="#F6F6FB" stroke-width="1.61" stroke-linecap="round" stroke-linejoin="round"/>
<path d="M45.4899 63.05C49.7799 63.18 53.1898 66.72 53.0998 70.95C52.9998 75.29 49.4298 78.7601 45.1698 78.6601C40.8898 78.5601 37.4098 74.88 37.5598 70.63C37.7198 66.34 41.2899 62.9301 45.4899 63.0601V63.05Z" stroke="#F6F6FB" stroke-width="1.68" stroke-linecap="round" stroke-linejoin="round"/>
<path d="M19.0198 82.8C21.4998 82.8 23.8198 82.77 26.1498 82.84C26.4198 82.84 26.7598 83.33 26.9298 83.67C27.7698 85.39 28.3998 87.22 29.3898 88.84C31.7198 92.67 35.1198 94.69 39.6898 94.5C41.0798 94.44 42.4698 94.5 43.8598 94.5C43.9498 94.61 44.0298 94.72 44.1198 94.83C42.6598 96.54 41.1998 98.25 39.7398 99.96C37.9898 98.64 36.2798 98.27 34.4298 98.28C32.0498 98.3 29.6798 98.25 27.2998 98.3C26.5198 98.32 25.9998 98.05 25.5198 97.46C22.0698 93.24 20.3198 88.26 19.0298 82.8H19.0198Z" stroke="#F6F6FB" stroke-width="1.61" stroke-linecap="round" stroke-linejoin="round"/>
<path d="M83.7498 43.2C78.6498 43.2 73.5398 43.2 68.4398 43.2C66.5798 43.2 66.0198 42.62 66.0198 40.74C66.0198 34.36 66.0198 27.97 66.0198 21.59C66.0198 19.69 66.5698 19.12 68.4398 19.12C78.6798 19.12 88.9298 19.12 99.1698 19.12C101.05 19.12 101.59 19.69 101.59 21.59C101.59 27.97 101.59 34.36 101.59 40.74C101.59 42.63 101.02 43.2 99.1698 43.21C94.0298 43.21 88.8898 43.21 83.7398 43.21L83.7498 43.2ZM97.8698 33.08C96.9398 33.08 96.0798 33.14 95.2398 33.07C93.7598 32.94 92.5898 33.23 91.6198 34.53C90.7498 35.69 89.4598 35.48 88.6098 34.24C88.0498 33.43 87.5398 32.58 86.8998 31.6C86.1598 33.55 85.4898 35.29 84.8398 37.05C84.5398 37.87 83.9298 38.51 83.1198 38.35C82.4698 38.22 81.6798 37.68 81.3698 37.1C80.5798 35.63 80.0298 34.03 79.3698 32.48C79.0098 31.64 78.6498 30.8 78.2098 29.8C77.7998 30.4 77.4598 30.79 77.2398 31.23C76.5098 32.68 75.3698 33.18 73.7898 33.05C72.4398 32.94 71.0798 33.03 69.6598 33.03V39.51H97.8798V33.09L97.8698 33.08ZM69.6798 29.33C71.0898 29.33 72.4498 29.36 73.7898 29.3C74.0498 29.29 74.3598 28.95 74.5398 28.69C75.3898 27.47 76.1698 26.21 77.0498 25.01C77.9898 23.72 79.5298 23.86 80.2598 25.26C80.4898 25.71 80.6598 26.19 80.8598 26.66C81.5398 28.25 82.2198 29.83 82.9898 31.64C83.5998 30.03 84.1198 28.68 84.6098 27.32C84.9098 26.5 85.3398 25.85 86.2898 25.74C87.2498 25.64 87.7998 26.2 88.2598 26.94C88.9698 28.06 89.6898 29.17 90.3698 30.22C92.7998 28.7 95.4798 29.92 97.9198 29.3V22.84H69.6798V29.34V29.33Z" fill="white"/>
<path d="M97.8699 33.08V39.5H69.6499V33.02C71.0699 33.02 72.4299 32.94 73.7799 33.04C75.3599 33.16 76.4999 32.66 77.2299 31.22C77.4499 30.78 77.7899 30.39 78.1999 29.79C78.6299 30.79 78.9999 31.62 79.3599 32.47C80.0099 34.02 80.5699 35.62 81.3599 37.09C81.6699 37.67 82.4599 38.21 83.1099 38.34C83.9199 38.5 84.5199 37.87 84.8299 37.04C85.4799 35.29 86.1499 33.54 86.8899 31.59C87.5299 32.58 88.0399 33.42 88.5999 34.23C89.4599 35.47 90.7499 35.68 91.6099 34.52C92.5899 33.21 93.7599 32.92 95.2299 33.06C96.0699 33.14 96.9299 33.07 97.8599 33.07L97.8699 33.08Z" stroke="#F6F6FB" stroke-linecap="round" stroke-linejoin="round"/>
<path d="M69.6799 29.33V22.83H97.9199V29.29C95.4799 29.91 92.7999 28.69 90.3699 30.21C89.6899 29.15 88.9699 28.04 88.2599 26.93C87.7999 26.2 87.2499 25.63 86.2899 25.73C85.3399 25.83 84.9099 26.48 84.6099 27.31C84.1199 28.67 83.5999 30.01 82.9899 31.63C82.2199 29.83 81.5399 28.24 80.8599 26.65C80.6599 26.18 80.4899 25.7 80.2599 25.25C79.5299 23.84 77.9899 23.71 77.0499 25C76.1799 26.2 75.3899 27.47 74.5399 28.68C74.3599 28.94 74.0499 29.28 73.7899 29.29C72.4399 29.35 71.0899 29.32 69.6799 29.32V29.33Z" stroke="#F6F6FB" stroke-linecap="round" stroke-linejoin="round"/>
</svg>
