<svg width="121" height="118" viewBox="0 0 121 118" fill="none" xmlns="http://www.w3.org/2000/svg">
<path d="M30.5501 40.1599C30.4701 40.2999 30.4001 40.4499 30.3001 40.5799C27.1301 44.6699 23.9601 48.7499 20.7901 52.8299C20.1301 53.6799 19.4801 54.5399 18.7901 55.3699C18.4401 55.7899 18.4101 56.1599 18.6201 56.6599C20.2401 60.4699 21.8201 64.2899 23.4201 68.0999C24.6201 70.9499 25.8601 73.7899 27.0301 76.6499C27.9801 78.9599 28.2001 81.3799 28.0601 83.8499C27.9101 86.4599 27.1201 88.8799 26.1601 91.2899C25.4801 92.9999 24.9801 94.7699 24.4201 96.5299C23.7401 98.6899 23.1101 100.86 22.4001 103.01C21.5501 105.54 20.6601 108.06 19.7401 110.56C19.3901 111.52 19.0001 112.49 18.4601 113.35C17.5001 114.89 16.0201 115.77 14.2401 116.1C12.2601 116.47 10.4601 115.92 8.77006 114.92C7.20006 113.99 6.06006 112.68 5.56006 110.89C5.25006 109.76 5.35006 108.64 5.62006 107.51C6.72006 102.94 8.22006 98.4999 9.65006 94.0299C10.7401 90.6499 11.7701 87.2599 12.8601 83.8799C13.1001 83.1299 13.0801 82.4399 12.8201 81.6999C11.3801 77.6299 9.86006 73.5999 8.12006 69.6399C5.93006 64.6599 3.79006 59.6599 1.68006 54.6499C0.330064 51.4399 0.770064 48.2699 2.09006 45.1499C2.95006 43.1099 4.40006 41.4899 5.77006 39.8199C8.81006 36.1099 11.8701 32.4199 14.9301 28.7199C16.3401 27.0099 17.7501 25.2899 19.1701 23.5899C20.6301 21.8399 22.6201 21.0399 24.7801 20.6699C26.4901 20.3799 28.2301 20.4099 29.9101 20.9499C31.9801 21.6099 33.6801 22.8099 34.6301 24.7999C35.7501 27.1299 36.7601 29.5199 37.7601 31.9099C39.0101 34.8999 40.2501 37.8999 41.4001 40.9299C42.0301 42.5799 43.3101 43.3999 44.7601 44.1399C47.8201 45.7099 50.8601 47.3099 53.9101 48.9099C54.4301 49.1799 54.9301 49.5099 55.3901 49.8699C56.2701 50.5599 56.6501 51.4999 56.6901 52.6099C56.7601 54.4699 56.8701 56.3199 56.9801 58.1799C57.0101 58.6499 56.9201 58.9699 56.5001 59.2899C54.9501 60.4699 53.6601 61.9399 52.4701 63.4799C50.1801 66.4599 48.7401 69.8499 48.0001 73.5299C47.5201 75.8899 47.3401 78.2699 47.5701 80.6799C47.9801 84.9399 49.3601 88.8199 51.7301 92.3899C53.6601 95.2899 56.0701 97.6899 58.9801 99.5699C61.9401 101.48 65.1401 102.79 68.6601 103.32C72.3101 103.88 75.9301 103.8 79.4601 102.74C83.8501 101.42 87.6801 99.1399 90.8501 95.7899C93.9601 92.5099 96.0401 88.6699 97.0901 84.2799C97.2201 83.7299 97.3401 83.1899 97.5001 82.4799C97.7101 82.7099 97.8301 82.8099 97.9101 82.9399C99.2401 85.1599 100.57 87.3899 101.91 89.6099C102.12 89.9499 102.12 90.2499 101.97 90.6199C101.27 92.3899 100.29 93.9999 99.3101 95.6199C96.6101 100.04 92.9101 103.43 88.4701 106.01C86.0201 107.44 83.3901 108.51 80.6201 109.23C77.6801 109.99 74.6801 110.21 71.6501 110.17C66.7501 110.09 62.1801 108.78 57.8301 106.54C53.6901 104.4 50.3101 101.39 47.4901 97.7199C45.3401 94.9299 43.7001 91.8599 42.5601 88.5399C41.7201 86.0999 41.2201 83.5799 41.0101 80.9999C40.6501 76.5099 41.2501 72.1499 42.7201 67.9099C43.6101 65.3599 44.7901 62.9499 46.3701 60.7399C47.1501 59.6499 47.9901 58.6099 48.8001 57.5499C49.1801 57.0599 49.1601 57.0099 48.6201 56.7399C46.6201 55.7499 44.6301 54.7499 42.6301 53.7399C40.5501 52.6899 38.4701 51.6499 36.4001 50.5799C35.8801 50.3099 35.4001 49.9699 34.9301 49.6199C34.7401 49.4799 34.5901 49.2699 34.5001 49.0499C33.3201 46.2999 32.1501 43.5399 30.9801 40.7799C30.9101 40.5999 30.8101 40.4399 30.7301 40.2699C30.6601 40.2399 30.5901 40.1999 30.5201 40.1699L30.5501 40.1599Z" stroke="#F6F6FB" stroke-width="1.75" stroke-linejoin="round"/>
<path d="M89.78 66.25C92.98 66.25 96.18 66.3 99.38 66.23C101.51 66.18 103.01 67.12 104.07 68.86C105.59 71.37 107.07 73.9 108.58 76.42C110.78 80.12 112.99 83.81 115.19 87.51C116.5 89.71 117.81 91.91 119.09 94.12C119.75 95.26 120.19 96.48 119.84 97.81C119.33 99.73 118.27 101.19 116.23 101.66C114.22 102.13 112.54 101.43 111.27 99.88C110.63 99.11 110.17 98.19 109.65 97.32C107.79 94.23 105.95 91.14 104.09 88.05C102.4 85.23 100.69 82.41 99.02 79.57C98.77 79.15 98.48 79.04 98.03 79.04C89.53 79.05 81.02 79.04 72.52 79.06C71.08 79.06 69.66 79.01 68.29 78.47C65.37 77.33 63.54 75.23 62.84 72.22C62.59 71.14 62.65 69.98 62.58 68.86C62.38 65.88 62.18 62.9 62 59.93C61.9 58.3 61.88 56.67 61.78 55.04C61.61 52.13 61.39 49.22 61.22 46.3C60.96 41.95 63.33 38.16 68.04 37.31C72.05 36.58 76.24 39.08 77.26 43.43C77.52 44.53 77.53 45.69 77.62 46.83C77.76 48.75 77.87 50.67 77.99 52.59C77.99 52.61 77.99 52.62 77.99 52.64C78.03 52.97 77.95 53.48 78.13 53.6C78.39 53.78 78.84 53.7 79.21 53.7C83.83 53.7 88.45 53.69 93.07 53.72C93.85 53.72 94.68 53.82 95.41 54.09C96.83 54.62 97.53 55.78 97.63 57.26C97.73 58.78 97.08 59.93 95.72 60.68C95.02 61.07 94.29 61.24 93.48 61.24C88.71 61.22 83.95 61.23 79.18 61.23C78.39 61.23 78.38 61.23 78.41 62C78.46 63.12 78.53 64.25 78.59 65.37C78.64 66.11 78.74 66.21 79.48 66.21C82.91 66.21 86.34 66.21 89.76 66.21L89.78 66.25Z" stroke="#F6F6FB" stroke-width="1.75" stroke-linejoin="round"/>
<path d="M49.2602 10.96C49.3802 16.61 44.2502 20.32 39.0202 20.39C34.0602 20.45 29.7402 15.99 29.8202 11.16C29.9102 5.21998 33.8102 1.01998 39.5902 0.879981C44.6302 0.759981 49.3302 5.11998 49.2702 10.96H49.2602Z" stroke="#F6F6FB" stroke-width="1.75" stroke-linejoin="round"/>
<path d="M69.11 33.77C66.42 33.81 64.42 32.86 62.76 31.17C61.01 29.37 60.22 27.2 60.39 24.68C60.69 20.31 64.39 17.01 68.91 17.06C73.46 17.11 77.15 20.58 77.18 25.47C77.21 29.9 73.45 33.93 69.1 33.77H69.11Z" stroke="#F6F6FB" stroke-width="1.75" stroke-linejoin="round"/>
</svg>
