<?xml version="1.0" encoding="UTF-8"?>
<svg id="Layer_2" data-name="Layer 2" xmlns="http://www.w3.org/2000/svg" viewBox="0 0 126.88 116.61">
  <defs>
    <style>
      .cls-1 {
        stroke-width: 1.39px;
      }

      .cls-1, .cls-2 {
        stroke: #eb8467;
      }

      .cls-1, .cls-2, .cls-3, .cls-4, .cls-5 {
        fill: none;
        stroke-linejoin: round;
      }

      .cls-2 {
        stroke-width: 1.75px;
      }

      .cls-3 {
        stroke-width: 1.57px;
      }

      .cls-3, .cls-4, .cls-5 {
        stroke: #0092ce;
      }

      .cls-4 {
        stroke-width: 1.64px;
      }

      .cls-5 {
        stroke-width: 1.06px;
      }
    </style>
  </defs>
  <g id="Layer_1-2" data-name="Layer 1">
    <g>
      <path class="cls-3" d="m85.82,68.4c13.11,0,26.22,0,39.33-.02.76,0,.92.29.92,1.05,0,11.42,0,22.84.01,34.26,0,3.6,0,7.21,0,10.81,0,1.29,0,1.3-1.14,1.3-1.89,0-3.78-.02-5.66.02-.6.01-.76-.19-.76-.83.02-3.6,0-7.21,0-10.81,0-8.86,0-17.73.02-26.59,0-.69-.15-.88-.79-.88-21.16.02-42.32.02-63.48.02-.21,0-.42.02-.63,0-.47-.05-.66.13-.62.69.05.87.03,1.74.03,2.61,0,11.45,0,22.9.01,34.35,0,.26-.02.52-.01.78,0,.48-.19.65-.63.65-2.1-.02-4.2-.02-6.29,0-.5,0-.63-.2-.62-.71.01-1.6,0-3.2,0-4.79,0-13.48,0-26.97,0-40.45q0-1.46,1.28-1.46c13.01,0,26.01,0,39.02,0Z"/>
      <path class="cls-4" d="m12.25,48.04c-.11.24-.23.47-.32.71-1.68,4.43-3.3,9.31-3.3,13.97,0,4.01-.11,7.93-.31,11.99-.11,2.24-.03,6.71-2.6,7.28-3.46.64-3.99-2.85-4.36-6.49-.54-5.42-.7-10.86-.38-16.31.23-4.05.72-8.06,1.91-11.95,1.1-3.58,2.75-6.82,5.7-9.18,2.02-1.62,4.29-2.34,6.87-2.16,2.23.16,4.46.21,6.7.25,2.55.04,5.19.22,7.99.08,3.33-.18,4.55-.75,6.71-2.07,3.72-2.27,7.07-4.97,9.57-8.66.03-.04.11-.05.32-.14,0,.43,0,.79,0,1.16.05,2.17-.03,4.35.2,6.5.12,1.14.68,2.27,1.2,3.32.28.57.25.78-.21,1.17-3.24,2.79-6.8,5.01-10.67,6.73-.29.13-.57.67-.57,1.02-.03,6.71-.02,13.42-.01,20.13,0,1.86.01,1.87-1.82,1.87-7.12,0-14.24-.01-21.36.02-.86,0-1.06-.28-1.05-1.1.06-5.51.37-10.95.4-16.46,0-.51.03-2.47.03-2.98-.11-.03-.54,1.33-.65,1.31Z"/>
      <path class="cls-4" d="m12.47,91.4c0-5.93.01-11.87-.01-17.8,0-.72.2-.96.9-.96,7.53.02,15.06.02,22.6,0,.78,0,.74.47.74,1.02,0,10.67,0,21.33-.01,32,0,1.17.04,2.34,0,3.5-.13,2.86-2.04,5-4.72,5.34-2.51.32-5-1.31-5.69-3.8-.19-.67-.26-1.4-.26-2.11-.02-8.4-.03-16.79,0-25.19,0-.78-.19-1-.94-.98-1.9.04-1.91,0-1.91,1.92,0,8.14,0,16.28-.01,24.41,0,2.79-1.39,4.78-3.77,5.54-3.33,1.06-6.8-1.4-6.85-5.01-.08-5.96-.02-11.93-.02-17.9,0,0-.02,0-.03,0Z"/>
      <path class="cls-2" d="m15.52,21.83c0-5.05,4.08-9.2,9.06-9.22,4.98-.02,9.05,4.17,9.07,9.33.02,5.16-4.09,9.34-9.16,9.33-4.91,0-8.96-4.27-8.97-9.44Z"/>
      <path class="cls-4" d="m46.88,4.34q-1.34-.15-1.32-1.51.02-2.01,1.94-2c3.28,0,6.55.04,9.83-.01.83-.01,1.06.3.98,1.06-.04.42-.08.85-.04,1.26.07.7-.08,1.1-.87,1.15-.17,0-.45.53-.45.82,0,5.41.02,10.82.04,16.24.01,3.53.02,7.06.02,10.6,0,3.5-2.46,5.88-5.64,5.48-2.51-.32-4.48-2.62-4.48-5.31-.01-8.88,0-17.76,0-26.64,0-.38,0-.76,0-1.13Z"/>
      <g>
        <path class="cls-1" d="m120.36,48.33c0,4.78,0,9.5,0,14.22,0,.45,0,.9-.02,1.34-.11,1.65-1.29,2.83-2.8,2.82-1.49,0-2.7-1.24-2.72-2.9-.03-1.99.03-3.97.04-5.96.02-3.01.04-6.01.03-9.02,0-.2-.22-.49-.41-.59-.71-.37-.31-1.01-.38-1.53-.01-.1.44-.37.69-.37,1.76-.04,3.53-.04,5.29-.02.37,0,.92-.28.99.48.1,1.05-.01,1.32-.71,1.52Z"/>
        <path class="cls-1" d="m104.38,48.33c-.55-.17-1.01-1.2-.71-1.74.08-.15.36-.24.55-.25,1.98-.03,3.96-.04,5.94-.02.17,0,.47.31.5.51.15,1.15.06,1.29-.8,1.49,0,.25,0,.52,0,.78.02,4.79.05,9.59.07,14.38,0,1.65-.79,2.77-2.16,3.12-1.55.39-3.14-.71-3.32-2.35-.07-.61-.05-1.24-.05-1.86,0-4.67,0-9.34,0-14.07Z"/>
        <path class="cls-1" d="m93.9,48.39c-.69-.26-1.07-1.09-.8-1.76.06-.15.33-.29.51-.29,2-.02,4.01-.02,6.02-.01.15,0,.38.13.45.26.35.72-.01,1.55-.75,1.75,0,1.63,0,3.27,0,4.9,0,3.4.01,6.81.02,10.21,0,1.33-.45,2.37-1.68,2.96-1.52.73-3.38-.19-3.75-1.88-.09-.43-.12-.89-.12-1.33,0-4.28,0-8.55.01-12.83,0-.67.06-1.33.09-1.99Z"/>
      </g>
      <g>
        <path class="cls-5" d="m72.63,52.21c-.16.63-.33,1.23-.47,1.84-.82,3.7-1.61,7.41-2.46,11.11-.05.23-.42.53-.64.53-1.31,0-1.43-.23-1.14-1.52,1.06-4.65,2.1-9.31,3.17-14.06-.42-.06-.85-.06-1.22-.19-.29-.11-.7-.36-.74-.6-.07-.44.06-.95.69-.97.11,0,.22-.05.15-.03.1-1.47.02-2.91.32-4.26.48-2.18,1.86-3.73,3.8-4.75.22-.11.52-.36.53-.55.04-2.2.02-4.4.02-6.61-.42-.04-.75-.07-1.17-.11,0-.87-.04-1.71.03-2.54.02-.2.36-.53.55-.53,2.34-.04,4.69-.05,7.03-.02.17,0,.48.31.49.49.05.84.02,1.68.02,2.55-.44.1-.81.19-1.23.28,0,2.14-.03,4.25.03,6.37,0,.28.42.62.72.81,2.25,1.37,3.7,3.3,3.95,6.03.07.71-.03,1.45-.13,2.16-.06.46.05.65.46.86.27.14.51.58.55.91.02.16-.44.45-.72.55-.33.11-.71.08-1.19.12.18.95.34,1.82.53,2.69.88,3.96,1.74,7.92,2.68,11.86.24,1-.41.88-.89,1.04-.59.2-.89.04-1.04-.67-.86-4.05-1.78-8.09-2.68-12.13-.04-.19-.12-.37-.19-.56-4.63,2.44-5.49,2.43-9.82-.09Zm-1.31-5.77c-.21,1.64.08,2.01,1.75,1.96.4-.01.79-.23,1.19-.33.28-.07.65-.24.85-.13,1.53.84,3.15.29,4.75.49.01-.24.03-.38.03-.51-.02-.72.21-1.26.98-1.38.78-.13,1.11.35,1.3,1.04.11.41.28.79.42,1.21,1.12-.55,1.19-1.48,1.23-2.47.03-.67-.2-1.1-.84-1.16-1.2-.12-2.43-.38-3.59-.21-2.67.37-5.3.97-8.07,1.5Zm7.36,4.64c-.44-1.53-1.61-1.15-2.7-1.09-.76.04-1.53-.04-2.3-.03-.23,0-.57.06-.65.21-.09.16,0,.54.13.69.3.34.67.62,1.04.87,2.22,1.51,5.55,1.21,7.45-.69.2-.2.29-.52.43-.79-.25-.08-.5-.22-.76-.23-.91-.02-1.94-.31-2.39.93-.01.04-.09.05-.24.11Zm-3.35-7.26c.07-.73-.31-1.1-.98-1.1-.58,0-1.03.3-1.02,1,.01.68.3,1.12,1.01,1.09.59-.02,1.06-.23.99-.99Zm2.31-2.23c-.32.46-.68.75-.66,1.01.02.27.41.69.66.7.24.01.71-.41.7-.64,0-.3-.37-.6-.7-1.07Z"/>
        <path class="cls-5" d="m76.69,64.47c0-1.23.01-2.36,0-3.48,0-.51.08-1.03.65-.97.22.02.52.6.55.95.09.92.09,1.85.08,2.78,0,.53.15.7.69.67.9-.05,1.81-.02,2.7.05.75.06,1.29.69,1.22,1.38-.07.74-.46,1.29-1.24,1.29-2.68.02-5.36.02-8.04-.03-.81-.01-1.26-.59-1.22-1.37.04-.8.49-1.24,1.23-1.27,1.09-.04,2.18-.01,3.37-.01Z"/>
        <path class="cls-5" d="m77.31,54.43c1.12.84,1.48,2.99.7,4.13-.38.55-.94.58-1.32.06-.87-1.18-.55-3.32.62-4.19Z"/>
        <path class="cls-5" d="m75.84,22.62c.03-.58.37-.96.98-1.03.58-.07,1.23.51,1.2,1.07-.04.68-.46,1.03-1.08,1.11-.5.06-1.08-.55-1.1-1.16Z"/>
        <path class="cls-5" d="m80.24,25.25c-.08.65-.67,1.13-1.2,1.03-.54-.09-1.06-.75-.98-1.24.08-.51.77-1.02,1.27-.91.59.14.92.52.91,1.11Z"/>
        <path class="cls-5" d="m78.2,46.88c-.05.41-.43.72-.77.66-.35-.06-.68-.48-.62-.79.05-.32.49-.65.81-.58.38.09.59.33.58.71Z"/>
        <path class="cls-5" d="m77.47,27.24c-.13.63-.39,1.12-1.08,1.13-.53.01-1.11-.69-1.04-1.26.08-.67.56-.94,1.13-.93.61.01.95.42.99,1.05Z"/>
      </g>
    </g>
  </g>
</svg>