<?xml version="1.0" encoding="UTF-8"?>
<svg id="Layer_2" data-name="Layer 2" xmlns="http://www.w3.org/2000/svg" viewBox="0 0 120.83 117.12">
  <defs>
    <style>
      .cls-1 {
        stroke-width: 1.75px;
      }

      .cls-1, .cls-2, .cls-3 {
        fill: none;
        stroke-linejoin: round;
      }

      .cls-1, .cls-3 {
        stroke: #0092ce;
      }

      .cls-2 {
        stroke: #eb8467;
      }

      .cls-2, .cls-3 {
        stroke-width: 1.75px;
      }
    </style>
  </defs>
  <g id="Layer_1-2" data-name="Layer 1">
    <g>
      <path class="cls-1" d="m30.55,40.16c-.08.14-.15.29-.25.42-3.17,4.09-6.34,8.17-9.51,12.25-.66.85-1.31,1.71-2,2.54-.35.42-.38.79-.17,1.29,1.62,3.81,3.2,7.63,4.8,11.44,1.2,2.85,2.44,5.69,3.61,8.55.95,2.31,1.17,4.73,1.03,7.2-.15,2.61-.94,5.03-1.9,7.44-.68,1.71-1.18,3.48-1.74,5.24-.68,2.16-1.31,4.33-2.02,6.48-.85,2.53-1.74,5.05-2.66,7.55-.35.96-.74,1.93-1.28,2.79-.96,1.54-2.44,2.42-4.22,2.75-1.98.37-3.78-.18-5.47-1.18-1.57-.93-2.71-2.24-3.21-4.03-.31-1.13-.21-2.25.06-3.38,1.1-4.57,2.6-9.01,4.03-13.48,1.09-3.38,2.12-6.77,3.21-10.15.24-.75.22-1.44-.04-2.18-1.44-4.07-2.96-8.1-4.7-12.06-2.19-4.98-4.33-9.98-6.44-14.99-1.35-3.21-.91-6.38.41-9.5.86-2.04,2.31-3.66,3.68-5.33,3.04-3.71,6.1-7.4,9.16-11.1,1.41-1.71,2.82-3.43,4.24-5.13,1.46-1.75,3.45-2.55,5.61-2.92,1.71-.29,3.45-.26,5.13.28,2.07.66,3.77,1.86,4.72,3.85,1.12,2.33,2.13,4.72,3.13,7.11,1.25,2.99,2.49,5.99,3.64,9.02.63,1.65,1.91,2.47,3.36,3.21,3.06,1.57,6.1,3.17,9.15,4.77.52.27,1.02.6,1.48.96.88.69,1.26,1.63,1.3,2.74.07,1.86.18,3.71.29,5.57.03.47-.06.79-.48,1.11-1.55,1.18-2.84,2.65-4.03,4.19-2.29,2.98-3.73,6.37-4.47,10.05-.48,2.36-.66,4.74-.43,7.15.41,4.26,1.79,8.14,4.16,11.71,1.93,2.9,4.34,5.3,7.25,7.18,2.96,1.91,6.16,3.22,9.68,3.75,3.65.56,7.27.48,10.8-.58,4.39-1.32,8.22-3.6,11.39-6.95,3.11-3.28,5.19-7.12,6.24-11.51.13-.55.25-1.09.41-1.8.21.23.33.33.41.46,1.33,2.22,2.66,4.45,4,6.67.21.34.21.64.06,1.01-.7,1.77-1.68,3.38-2.66,5-2.7,4.42-6.4,7.81-10.84,10.39-2.45,1.43-5.08,2.5-7.85,3.22-2.94.76-5.94.98-8.97.94-4.9-.08-9.47-1.39-13.82-3.63-4.14-2.14-7.52-5.15-10.34-8.82-2.15-2.79-3.79-5.86-4.93-9.18-.84-2.44-1.34-4.96-1.55-7.54-.36-4.49.24-8.85,1.71-13.09.89-2.55,2.07-4.96,3.65-7.17.78-1.09,1.62-2.13,2.43-3.19.38-.49.36-.54-.18-.81-2-.99-3.99-1.99-5.99-3-2.08-1.05-4.16-2.09-6.23-3.16-.52-.27-1-.61-1.47-.96-.19-.14-.34-.35-.43-.57-1.18-2.75-2.35-5.51-3.52-8.27-.07-.18-.17-.34-.25-.51-.07-.03-.14-.07-.21-.1Z"/>
      <path class="cls-3" d="m89.78,66.25c3.2,0,6.4.05,9.6-.02,2.13-.05,3.63.89,4.69,2.63,1.52,2.51,3,5.04,4.51,7.56,2.2,3.7,4.41,7.39,6.61,11.09,1.31,2.2,2.62,4.4,3.9,6.61.66,1.14,1.1,2.36.75,3.69-.51,1.92-1.57,3.38-3.61,3.85-2.01.47-3.69-.23-4.96-1.78-.64-.77-1.1-1.69-1.62-2.56-1.86-3.09-3.7-6.18-5.56-9.27-1.69-2.82-3.4-5.64-5.07-8.48-.25-.42-.54-.53-.99-.53-8.5.01-17.01,0-25.51.02-1.44,0-2.86-.05-4.23-.59-2.92-1.14-4.75-3.24-5.45-6.25-.25-1.08-.19-2.24-.26-3.36-.2-2.98-.4-5.96-.58-8.93-.1-1.63-.12-3.26-.22-4.89-.17-2.91-.39-5.82-.56-8.74-.26-4.35,2.11-8.14,6.82-8.99,4.01-.73,8.2,1.77,9.22,6.12.26,1.1.27,2.26.36,3.4.14,1.92.25,3.84.37,5.76,0,.02,0,.03,0,.05.04.33-.04.84.14.96.26.18.71.1,1.08.1,4.62,0,9.24-.01,13.86.02.78,0,1.61.1,2.34.37,1.42.53,2.12,1.69,2.22,3.17.1,1.52-.55,2.67-1.91,3.42-.7.39-1.43.56-2.24.56-4.77-.02-9.53-.01-14.3-.01-.79,0-.8,0-.77.77.05,1.12.12,2.25.18,3.37.05.74.15.84.89.84,3.43,0,6.86,0,10.28,0,0,0,0,0,0,0Z"/>
      <path class="cls-2" d="m49.26,10.96c.12,5.65-5.01,9.36-10.24,9.43-4.96.06-9.28-4.4-9.2-9.23.09-5.94,3.99-10.14,9.77-10.28,5.04-.12,9.74,4.24,9.68,10.08Z"/>
      <path class="cls-2" d="m69.11,33.77c-2.69.04-4.69-.91-6.35-2.6-1.75-1.8-2.54-3.97-2.37-6.49.3-4.37,4-7.67,8.52-7.62,4.55.05,8.24,3.52,8.27,8.41.03,4.43-3.73,8.46-8.08,8.3Z"/>
    </g>
  </g>
</svg>