<?xml version="1.0" encoding="UTF-8"?>
<svg id="Layer_2" data-name="Layer 2" xmlns="http://www.w3.org/2000/svg" viewBox="0 0 113.44 117.73">
  <defs>
    <style>
      .cls-1 {
        stroke: #0092ce;
      }

      .cls-1, .cls-2 {
        fill: none;
        stroke-linejoin: round;
        stroke-width: 1.75px;
      }

      .cls-2 {
        stroke: #eb8467;
      }
    </style>
  </defs>
  <g id="Layer_1-2" data-name="Layer 1">
    <g>
      <path class="cls-1" d="m15.81,58.39c0,.46,0,.94,0,1.43,0,7.3,0,14.61,0,21.91.02,12.36,8.12,22.19,20.32,24.21,3.8.63,7.74.38,11.74.53-.02-2.55-.09-4.82,1.39-6.73,1.45-1.87,3.4-2.68,5.84-2.77-.12-2.7.32-5.2,2.3-7.2,1.99-2.01,4.5-2.43,7.27-2.34v-7.58c-.38-.02-.81-.06-1.23-.07-2.33,0-4.66.02-6.99-.01-6.13-.09-11.11-4.8-11.22-10.94-.15-8.24-.14-16.49,0-24.74.1-5.88,4.69-10.45,10.56-10.89.63-.05,1.25-.08,1.88-.08,14.16,0,28.32.02,42.48-.02,3.78,0,7.06,1.05,9.6,3.96,1.91,2.19,2.79,4.78,2.8,7.65.02,7.84.06,15.69,0,23.53-.06,6.67-4.97,11.48-11.62,11.52-2.59.02-5.18,0-7.86,0v7.6c6.43-.13,9.7,3.06,9.61,9.35,1.34.44,2.65.66,3.75,1.26,2.32,1.27,3.35,3.4,3.4,6.01.03,1.88.03,3.76,0,5.65-.07,4.41-2.89,7.19-7.3,7.19-15.46,0-30.92,0-46.38,0-5.2,0-7.33-1.74-8.36-6.97-2.31,0-4.68.14-7.02-.04-2.8-.2-5.66-.36-8.35-1.08-11.74-3.16-19.95-13.91-20.07-26.08-.07-7.57-.02-15.15-.02-22.72,0-.53,0-1.07,0-1.66-3.33-.52-4.53-2.64-4.9-5.71-.56-4.62-1.38-9.2-2.11-13.96-.88,0-1.73.03-2.57,0-1.33-.06-2.03-.92-1.81-2.24.31-1.85.65-3.7,1-5.55.71-3.7,3.08-6.18,6.88-6.47,3.65-.27,7.35-.25,10.99.05,3.57.3,5.94,2.92,6.53,6.48.29,1.77.58,3.53.84,5.31.24,1.62-.4,2.38-2,2.43-.71.02-1.42,0-2.28,0-.31,2.42-.61,4.76-.89,7.1-.31,2.53-.57,5.07-.91,7.6-.43,3.17-1.69,4.38-5.27,5.05Zm60.76,42.19c-6.85,0-13.71,0-20.56,0-.58,0-1.17,0-1.74.08-1.62.23-2.71,1.33-2.76,2.96-.07,2.19-.07,4.39,0,6.58.05,1.7,1.15,2.79,2.85,3.02.49.06.98.07,1.47.07,13.89,0,27.77,0,41.66,0,.36,0,.72,0,1.07-.02,2.09-.18,3.24-1.39,3.28-3.5.03-1.61,0-3.23,0-4.84,0-3.29-1.05-4.36-4.32-4.36-6.99,0-13.98,0-20.96,0Zm.14-63.86c-6.54,0-13.08,0-19.62,0-5.05,0-8.32,3.12-8.35,8.13-.05,7.75-.06,15.5,0,23.24.04,4.91,3.32,8.16,8.22,8.17,13.12.03,26.24.03,39.37,0,4.95-.01,8.22-3.35,8.22-8.31,0-7.66,0-15.32,0-22.97,0-4.98-3.27-8.25-8.23-8.26-6.54-.01-13.08,0-19.62,0Zm-17.91,60.22h35.7c.71-3.54-1.47-6.04-5.13-5.96-8.51.17-17.02.17-25.53,0-3.46-.07-5.74,2.31-5.04,5.96Zm9.48-17.09c0,2.2.04,4.34-.02,6.47-.02.91.34,1.14,1.18,1.13,4.88-.03,9.77-.01,14.65-.02.25,0,.5-.06.78-.1v-7.48h-16.6ZM23.38,35.03c-.2-1.29-.37-2.48-.56-3.66-.33-1.99-1.78-3.44-3.83-3.5-3.22-.1-6.44-.1-9.66,0-1.68.05-3.06.94-3.6,2.57-.48,1.45-.65,3.01-.97,4.6h18.62Zm-14.41,3.69c.08.7.11,1.23.19,1.76.5,3.36.99,6.71,1.54,10.06.75,4.57-.05,4.17,4.91,4.17.04,0,.09,0,.13,0,1.05.01,1.66-.43,1.76-1.56.16-1.69.42-3.37.63-5.05.37-3.09.74-6.19,1.12-9.38h-10.28Z"/>
      <path class="cls-2" d="m26.32,6.5c-.03,1.73-1.32,2.44-2.51,1.79-.31-.17-.57-.43-.84-.67-5.23-4.54-12.56-4.52-17.75.05-.2.18-.4.36-.6.54-.81.68-1.66.75-2.38-.05-.7-.77-.64-1.66.09-2.4,2.05-2.09,4.49-3.53,7.33-4.26C15.49,0,20.72,1.21,25.28,5.14c.5.43.82,1.08,1.03,1.36Z"/>
      <path class="cls-2" d="m14.01,8.03c3.09.03,5.71,1,7.94,2.99.97.86,1.15,1.94.49,2.7-.7.81-1.6.76-2.71-.14-3.59-2.93-7.68-2.92-11.23.05-1.09.91-2,.98-2.71.21-.73-.78-.55-1.84.5-2.78,2.22-2,4.84-2.98,7.72-3.03Z"/>
      <path class="cls-2" d="m14.35,15.5c1.83-.02,3.45.64,4.87,1.84.86.72,1.2,1.58.5,2.58-.59.84-1.56.85-2.59.1-2.18-1.59-3.91-1.58-6.1.08-.87.66-1.75.78-2.51-.06-.78-.87-.52-1.74.28-2.48,1.55-1.44,3.39-2.13,5.56-2.05Z"/>
      <path class="cls-1" d="m23.38,35.03H4.76c.32-1.58.49-3.14.97-4.6.54-1.63,1.92-2.52,3.6-2.57,3.22-.09,6.44-.1,9.66,0,2.04.07,3.49,1.52,3.83,3.5.2,1.18.37,2.37.56,3.66Z"/>
      <path class="cls-1" d="m8.97,38.72h10.28c-.38,3.19-.74,6.28-1.12,9.38-.2,1.68-.47,3.36-.63,5.05-.11,1.13-.71,1.57-1.76,1.56-.04,0-.09,0-.13,0-4.95,0-4.16.4-4.91-4.17-.55-3.35-1.03-6.71-1.54-10.06-.08-.53-.12-1.06-.19-1.76Z"/>
      <path class="cls-2" d="m71.8,108.56c-.89,0-1.79.05-2.68-.01-.95-.07-1.43-.68-1.43-1.62,0-.94.5-1.56,1.45-1.59,1.79-.05,3.58-.06,5.36,0,.93.03,1.47.58,1.49,1.55.02,1.03-.51,1.61-1.51,1.67-.89.06-1.79.01-2.68.01,0,0,0,0,0-.01Z"/>
      <path class="cls-1" d="m76.58,43.16c-6.45,0-12.9.03-19.35-.03-1.23-.01-1.62.35-1.61,1.59.05,7.84.05,15.67,0,23.51,0,1.24.38,1.61,1.62,1.61,12.94-.04,25.89-.04,38.83,0,1.27,0,1.59-.41,1.58-1.62-.05-7.84-.05-15.67,0-23.51,0-1.24-.36-1.59-1.59-1.58-6.49.06-12.99.03-19.48.03Z"/>
      <path class="cls-2" d="m65.63,55.92s-2.03,2.69-3.08,4.57c-.63,1.12,3.7,2.78,5.47,3.13,2.26.45,8.88,1.01,13.65.23,4.2-.68,7.45-1.46,7.19-2.97-.12-.67-6.1-9.99-6.96-10.88-1.09-1.13-2.27,1.09-4.52,1.48s-3.25.08-4.88-.86c-1.05-.6-1.17-1.68-2.03-.89-.69.64-4.85,6.18-4.85,6.18Z"/>
    </g>
  </g>
</svg>