<?xml version="1.0" encoding="UTF-8"?>
<svg id="Layer_2" data-name="Layer 2" xmlns="http://www.w3.org/2000/svg" viewBox="0 0 115.49 116.65">
  <defs>
    <style>
      .cls-1 {
        stroke: #0092ce;
      }

      .cls-1, .cls-2 {
        fill: none;
        stroke-linejoin: round;
        stroke-width: 1.75px;
      }

      .cls-2 {
        stroke: #eb8467;
      }
    </style>
  </defs>
  <g id="Layer_1-2" data-name="Layer 1">
    <g>
      <path class="cls-1" d="m37.28,12.59v4.29h3.06v-1.3c0-3.89,0-7.78,0-11.67,0-.31,0-.63,0-.94.1-2.12.32-2.31,2.41-1.94,12.45,2.18,24.9,4.37,37.34,6.56,1.08.19,2.17.36,3.25.56,1.37.26,1.75.7,1.76,2.05.02,3.5.04,7,.04,10.49,0,1.69-.37,2.04-2.1,2.05-11.91.02-23.82.03-35.73.04-.47,0-.94,0-1.5,0v27.9h34.54c0,.12.01.23.02.35-3.95.81-7.9,1.6-11.83,2.44-1.03.22-2.09.46-3.01.94-1.84.94-2.5,2.77-1.88,4.69.58,1.79,2.27,2.98,4.22,2.65,3.98-.67,7.95-1.48,11.91-2.26,1.38-.27,2.73-.65,4.19-1,0,2.18.11,4.36-.05,6.52-.07,1.05-1.17,1.27-2.08,1.36-.86.08-1.73.05-2.59.05-13.4,0-26.81,0-40.21,0h-1.46v43.1h8.16v5.15H.88v-4.86h8.45V12.59h27.96Z"/>
      <path class="cls-1" d="m77.23,88.74c3.55-5.28,5.94-10.78,7.02-16.75.74-4.12,1.13-8.32,1.49-12.49.14-1.58.8-2.52,2.1-3.24,3.51-1.96,6.56-4.46,8.72-7.91.72-1.16,1.35-2.4,1.82-3.68.77-2.11-.25-4.26-2.25-5.04-2.06-.81-4.22.1-5.15,2.21-1.65,3.76-4.62,6.16-8.13,8.04-.55.29-1.11.57-1.67.86-2.13-2.66-1.77-5.09,1.09-6.92.82-.53,1.71-.97,2.57-1.43,1.46-.78,2.59-1.87,3.42-3.31,3.04-5.27,10.12-5.94,14.19-1.38,4.05,4.54,6.25,10.01,7.88,15.76,2.02,7.13,2.88,14.46,3.55,21.81.27,2.97.4,5.96.69,8.92.19,1.91-.42,3.33-1.98,4.46-7.3,5.3-15.33,6.35-23.85,4-3.84-1.06-7.56-2.56-11.51-3.92Z"/>
      <path class="cls-2" d="m97.49,32.66c-5.82-.02-10.3-4.52-10.29-10.33.01-5.7,4.66-10.23,10.46-10.19,5.87.05,10.19,4.62,10.13,10.73-.05,5.45-4.63,9.8-10.3,9.79Z"/>
      <path class="cls-1" d="m53.91,31.76c0-1.92.06-3.68-.01-5.44-.08-1.96.45-2.61,2.38-2.61,2.34,0,4.69,0,7.12,0v8.8c1.35.13,2.62.26,3.9.36,5.36.4,10.72.79,16.08,1.18,1.48.11,1.76.46,1.74,2.28-.02,1.4-.38,1.8-1.85,1.8-8.13,0-16.26-.02-24.38-.03-2.47,0-4.95.04-7.42.03-1.67,0-2.09-.45-2.15-2.09-.02-.47-.04-.94-.04-1.41,0-2.28.42-2.73,2.72-2.86.59-.03,1.17,0,1.92,0Z"/>
      <path class="cls-1" d="m68.6,60.97c-2.82.03-4.25-1.06-4.35-3.04-.08-1.64.85-2.89,2.74-3.31,2.87-.63,5.79-1.08,8.67-1.66,3.4-.68,6.7-1.66,9.67-3.54,2.8-1.77,4.89-4.15,6.26-7.17.87-1.92,2.52-2.63,4.32-1.88,1.65.69,2.37,2.47,1.67,4.35-1.68,4.51-4.96,7.66-8.9,10.2-5.47,3.54-11.61,5.06-17.98,5.82-.82.1-1.64.18-2.1.24Z"/>
      <path class="cls-1" d="m92.22,94.96h9.22c-.19,1.89-.37,3.71-.56,5.52-.38,3.51-.76,7.02-1.17,10.53-.38,3.3-2.49,5.13-5.38,4.7-2.32-.34-3.9-2.25-3.8-4.61.02-.43.03-.86.08-1.29.53-4.91,1.07-9.83,1.61-14.86Z"/>
      <path class="cls-2" d="m14.46,28.29c-.03-.57-.06-1.07-.09-1.66h19.39v1.66H14.46Z"/>
      <path class="cls-2" d="m14.46,33.25c-.03-.56-.07-1.06-.1-1.65h19.39v1.65H14.46Z"/>
      <path class="cls-2" d="m14.72,23.44c.12-1.45-.41-1.59,1.26-1.6,5.37-.01,10.71,0,16.08,0,.42,0,.99-.08,1.28.14.3.23.14.48.2.89.02.15-.14.53-.38.53-6.15.03-12.3.02-18.43.02Z"/>
    </g>
  </g>
</svg>