<?xml version="1.0" encoding="UTF-8"?>
<svg id="Layer_2" data-name="Layer 2" xmlns="http://www.w3.org/2000/svg" viewBox="0 0 115.68 119.28">
  <defs>
    <style>
      .cls-1 {
        stroke-width: 1.03px;
      }

      .cls-1, .cls-2, .cls-3, .cls-4, .cls-5, .cls-6, .cls-7 {
        fill: none;
        stroke-linejoin: round;
      }

      .cls-1, .cls-2, .cls-3, .cls-5, .cls-6, .cls-7 {
        stroke: #eb8467;
      }

      .cls-2 {
        stroke-width: 1.1px;
      }

      .cls-3 {
        stroke-width: 1.07px;
      }

      .cls-4 {
        stroke: #0092ce;
      }

      .cls-4, .cls-5 {
        stroke-width: 1.09px;
      }

      .cls-8 {
        fill: #eb8467;
      }

      .cls-6 {
        stroke-width: .75px;
      }

      .cls-7 {
        stroke-width: .89px;
      }
    </style>
  </defs>
  <g id="Layer_1-2" data-name="Layer 1">
    <g>
      <path class="cls-4" d="m11.37,99.73v17.4c.35.02.71-.06.96.07.31.17.53.51.79.78-.27.25-.54.7-.82.71-1.5.07-3.01.03-4.51.03-1.95,0-3.9,0-5.85,0-.6,0-1.27.04-1.26-.78,0-.8.67-.8,1.27-.78.13,0,.25-.02.45-.04v-51.15c-.57-.04-1.12-.07-1.76-.11,0-.74.05-1.44,0-2.13-.35-4.15.32-8.16,1.53-12.11.22-.72.29-1.5.3-2.26.03-4.61.01-9.21.01-13.82,0-1.66.45-2.1,2.1-2.11.47,0,.95,0,1.52,0V4.35h45.27c.03.52.05,1.05.08,1.73.35,0,.69,0,1.02,0,3.93,0,7.87,0,11.8,0,.32,0,.54-.03.95.05.33.06.64.51.69.76s.23,1.42-.69,1.74c-.27.1-.63.06-.95.06-3.87,0-7.74,0-11.61,0-.38,0-.75,0-1.2,0v10.97c.32,0,.65,0,.99,0,2.27,0,4.54.09,6.81,0,1.03-.04,1.5,1.13,1.2,1.82-.21.48-.59.74-1.16.74-2.24,0-4.48,0-6.72,0-.35,0-.69,0-1.15,0v36.41H2.3v4.75c.37,0,.71,0,1.06,0,15.44,0,30.89,0,46.33,0,.32,0,.68-.07.95.05.3.14,1.12.77.76,1.69-.26.26-.5.72-.78.75-.88.1-.78.04-1.76.04v31.26c.37,0,.71,0,1.05,0,3.42,0,5.85,0,9.27,0,.58,0,1.28-.09,1.29.74,0,.88.29,1.83-1.34,1.82-15.48,0-30.97,0-46.45,0-.41,0-.82,0-1.3,0Zm-3.63-66.38c.91,0,1.77,0,2.62,0,5.57,0,11.13,0,16.7,0,.35,0,.71-.02,1.05.03.94.13,1.45.75,1.44,1.7,0,4.16.11,8.32-.05,12.47-.13,3.31,1,6.33,1.66,9.47m-12.4,30.84h-7.38v9.23h16.53v-9.25h-7.37c-.35.6.27,1.76-.94,1.7-1.08-.05-.63-1.06-.84-1.68Zm0-10.94h-7.38v9.23h16.51v-9.22h-7.38c-.26.64.25,1.7-.88,1.69-1.1-.01-.66-1.03-.86-1.69Zm1.75-10.96c-.25.71.22,1.75-.88,1.75-1.12,0-.65-1.1-.89-1.74h-7.35v9.27h16.48v-9.27h-7.37Zm9.05,9.29h16.54v-9.28h-7.38c-.28.64.25,1.7-.84,1.73-1.19.03-.66-1.14-.93-1.72h-7.4v9.27Zm.03,12.57v9.29h16.49v-9.25h-7.38c-.25.64.24,1.63-.78,1.68-1.22.07-.72-1.08-.96-1.73h-7.37Zm-.03-1.65h16.51v-9.23h-7.39c-.24.64.27,1.63-.78,1.68-1.22.06-.7-1.1-.95-1.69h-7.4v9.24Zm-1.45-34.82h-1.08c-4.19,0-8.37,0-12.56,0-3.26,0-6.52-.01-9.78.02-.31,0-.84.18-.9.39-.5,1.73-.92,3.49-1.37,5.28h27.1c-.48-1.91-.94-3.76-1.42-5.69ZM4.12,35.04v14.72h1.52v-13.2h22.28v-1.51H4.12Z"/>
      <path class="cls-1" d="m78.39,10.93c.08.26.14.49.21.72.43,1.37,1.49,2.08,2.89,1.95,1.26-.12,2.25-1.12,2.4-2.46.05-.42.03-.85.03-1.27,0-1.41-.25-1.66-1.62-1.66-2.7,0-5.4.03-8.1,0-2.96-.04-2.69.13-2.63,2.91.03,1.31,1.1,2.37,2.35,2.5,1.38.14,2.52-.61,2.93-1.92.08-.25.14-.51.21-.75h1.33Z"/>
      <path class="cls-6" d="m91.47,69.37c0,1.75-.08,3.47.03,5.18.09,1.37,1.21,2.32,2.54,2.41,1.36.09,2.77-.75,2.91-2.09.19-1.81.05-3.65.05-5.49h-5.53Z"/>
      <path class="cls-6" d="m64.33,69.38h-5.55c0,1.8-.09,3.56.03,5.3.09,1.34,1.4,2.31,2.77,2.29,1.35-.02,2.66-1.05,2.73-2.35.09-1.72.02-3.44.02-5.24Z"/>
      <path class="cls-1" d="m72.58,6.6h10.26c-1.22-2.24-2.86-3.68-5.39-3.55-2.3.12-3.77,1.54-4.88,3.55Z"/>
      <path class="cls-4" d="m104.48,58.64v-16.05h8.79v14.45c.65.03,1.2.06,1.82.1v8.74c-.54.03-1.09.06-1.72.09v51.17c.33.02.69-.06.94.07.32.16.55.5.82.76-.27.25-.54.73-.82.73-3.61.05-7.23.05-10.84,0-.27,0-.53-.48-.8-.73.27-.26.5-.58.81-.75.22-.12.56-.02.9-.02v-18.45c-1.22,0-2.43,0-3.63,0-1.44,0-2.88,0-4.32,0-.77-.27-.96-.65-1.04-.83-.36-.81.49-1.74,1.01-1.74,2.27,0,4.54,0,6.81,0,.38,0,.75,0,1.23,0v-31.77h7.06v-5.77h-7.03Z"/>
      <path class="cls-4" d="m109.87,8.5c-.43,0-.8,0-1.18,0-5.66,0-11.33,0-16.99,0-.26,0-1.25-.04-1.46-.12-.87-.33-.7-1.18-.63-1.48.13-.55.77-.82,1.35-.82,2.08,0,4.16,0,6.24,0,4.38,0,8.77,0,13.15,0,.35,0,1.69,0,2.16,0,0,.42,0,.76,0,1.1,0,9.37,0,18.75,0,28.12,0,.29.08.64-.05.84-.66,1-1.54.56-1.84.58-.2.02-.51-.37-.64-.65-.11-.24-.04-.56-.04-.85,0-3.93,0-7.87,0-11.8,0-.35,0-.87,0-1.32-.41-.02-.75-.05-1.08-.05-3.97,0-7.93,0-11.9,0-.29,0-.87.05-1.09-.07-.29-.15-.45-.24-.45-.49,0-.27-.3-1.5.67-1.78.48-.14,1.01-.05,1.53-.05,3.71,0,7.42,0,11.13,0,.35,0,.7,0,1.12,0v-11.16Z"/>
      <path class="cls-8" d="m4.12,35.04h23.79v1.51H5.64v13.2h-1.52v-14.72Z"/>
      <ellipse class="cls-2" cx="77.8" cy="10.77" rx="9.76" ry="10.22"/>
      <path class="cls-7" d="m77.76,18.67c-1.33-.02-2.46-.31-3.46-.81-.63-.32-.75-.81-.35-1.19.4-.38,1.2-.51,1.84-.21,1.3.6,2.52.61,3.82,0,.64-.3,1.42-.17,1.84.21.42.38.3.87-.33,1.19-1,.51-2.13.79-3.37.82Z"/>
      <g>
        <polygon class="cls-5" points="83.26 22.67 82.12 20.72 82.15 20.69 83.26 22.67"/>
        <polygon class="cls-5" points="72.7 22.87 73.84 20.92 73.81 20.89 72.7 22.87"/>
        <g>
          <path class="cls-5" d="m65.99,37.18c.02.18,0,1.02,0,1.24,0,11.93.01,23.86,0,35.79.04,2.43-1.13,4.18-3.11,4.47-1.95.28-3.96-.11-4.96-1.8-.47-.78-.78-1.79-.78-2.7-.05-12.38-.04-24.76,0-37.14,0-1.4.2-2.81.45-4.18.34-1.84,1.33-3.41,2.95-4.31,2.33-1.3,4.79-2.38,7.22-3.5,1.88-.86,1.87-.87,3.91-1.75l1.32-.23c1.19.09,2.11,1.08,2.11,2.27,0,12.28.03,24.79.03,37.1h5.61c.01-.3.04-.55.04-.79,0-11.84,0-23.67,0-35.51,0-.16,0-.32,0-.48.05-1.81.29-2.17,2.01-2.76.25-.08.61.04.88.16,2.14.91,4.28,1.82,6.4,2.76,1.31.58,2.62,1.18,3.89,1.86,3.07,1.64,4.55,4.28,4.72,7.7.04.86.06,1.73.06,2.59,0,11.96-.1,23.93.06,35.89.06,4.19-4.11,6.27-7.01,4.16-.04-.03-.28.07-.29.12-.44,3.52-.81,10.61-.81,10.61l-1.21,15.55s-.33,2.96.6,9.52c0,.86,2.64,4.9,2.64,4.9,0,0-10.53,0-11.67,0h-2.28c0-.39-.03-9.68-.03-10.05.01-10.65.02-21.3.03-31.96,0-.16,0-.32,0-.48,0-.55-.2-1.09-.8-1.03-.15.02-.79-.12-.79,1.01,0,.22-.02.5-.02.76,0,10.49,0,20.98,0,31.48,0,.44-.03,9.78-.03,10.28h-1.97c-1.32,0-11.11,0-11.11,0,0,0,2.97-4.21,3.07-5.3.07-1.55.07-2.56-.04-3.93-.75-9.43-1.57-18.87-2.3-28.31-.04-.5-.53-3.2.2-3.53.59-.89,1.19-2.04.99-2.87"/>
          <path class="cls-3" d="m91.94,78.14c-1.93-1.2-1.88-4.67-1.88-4.67v-36.67"/>
        </g>
      </g>
    </g>
  </g>
</svg>