<?xml version="1.0" encoding="UTF-8"?>
<svg id="Layer_2" data-name="Layer 2" xmlns="http://www.w3.org/2000/svg" viewBox="0 0 110.21 115.21">
  <defs>
    <style>
      .cls-1 {
        stroke: #eb8467;
      }

      .cls-1, .cls-2 {
        fill: none;
        stroke-linejoin: round;
        stroke-width: 1.96px;
      }

      .cls-2 {
        stroke: #0092ce;
      }

      .cls-3 {
        fill: #0092ce;
      }

      .cls-4 {
        fill: #eb8467;
      }
    </style>
  </defs>
  <g id="Layer_1-2" data-name="Layer 1">
    <g>
      <path class="cls-2" d="m76.35,103.83c-3.47,0-6.93,0-10.4,0-.49,0-.64-.13-.63-.63.06-3.28.07-6.56.12-9.84.01-1,.06-2,.15-3,.12-1.34.78-2.41,1.72-3.34,2.54-2.53,5.07-5.07,7.6-7.6,5.31-5.31,10.63-10.62,15.93-15.95,1.25-1.25,2.67-1.9,4.46-1.54,2.87.59,4.44,4.05,2.94,6.57-.36.61-.86,1.16-1.36,1.66-3.58,3.59-7.18,7.17-10.75,10.76-.22.22-.46.6-.42.87.09.65.72.75,1.27.22,1.44-1.42,2.87-2.85,4.3-4.29,2.37-2.37,4.72-4.75,7.1-7.11,1.28-1.27,1.93-2.79,1.81-4.58-.05-.75-.36-1.47-.52-2.21-.1-.47-.25-.95-.22-1.42.23-3.71.51-7.42.75-11.14.17-2.6,1.42-4.23,3.66-4.71,2.77-.59,5.45,1.54,5.37,4.37-.06,2.35-.28,4.69-.44,7.03-.3,4.36-.61,8.72-.91,13.09-.06.84-.12,1.67-.18,2.51-.1,1.39-.74,2.51-1.72,3.48-5.19,5.17-10.36,10.37-15.56,15.52-1.71,1.69-2.67,3.63-2.67,6.07,0,1.46-.16,2.93-.19,4.39-.01.6-.2.81-.81.8-3.47-.03-6.93-.01-10.4-.01h0Z"/>
      <path class="cls-2" d="m33.74,103.84c-3.49,0-6.98,0-10.47.01-.5,0-.57-.22-.58-.63-.07-1.79-.14-3.58-.25-5.37-.12-1.94-.94-3.57-2.31-4.94-5.18-5.18-10.35-10.38-15.56-15.53-1.35-1.33-2.01-2.84-2.12-4.75-.27-4.92-.67-9.84-1.02-14.75-.16-2.23-.37-4.45-.45-6.68-.11-2.76,1.97-4.78,4.73-4.71,2.29.06,4.08,1.87,4.28,4.41.23,2.97.4,5.94.6,8.91.02.37.07.74.11,1.11.11,1.27.11,2.48-.38,3.74-.8,2.06-.24,4.02,1.23,5.62,1.64,1.78,3.39,3.45,5.1,5.16,2.03,2.04,4.07,4.08,6.11,6.12.2.2.42.37.61.57.32.34.64.33.97.02.35-.32.31-.62-.01-.95-.89-.89-1.75-1.8-2.64-2.69-2.86-2.89-5.74-5.78-8.6-8.67-1.18-1.19-1.92-2.54-1.56-4.32.37-1.8,1.43-2.96,3.13-3.49,1.7-.53,3.21-.06,4.47,1.2,4.64,4.64,9.26,9.29,13.9,13.93,3.32,3.32,6.64,6.65,9.98,9.95,1.02,1.01,1.62,2.2,1.65,3.65.09,4.07.15,8.14.26,12.21.02.67-.19.88-.86.87-3.44-.03-6.88-.01-10.33-.01,0,0,0,0,0,0Z"/>
      <path class="cls-1" d="m33.74,114.23c-3.84,0-7.67,0-11.51,0-1.62,0-2.02-.39-2.02-2.01,0-1.79,0-3.58,0-5.37,0-1.05.43-1.53,1.47-1.63.62-.06,1.25-.09,1.88-.09,6.88,0,13.77,0,20.65,0,.6,0,1.21.05,1.81.11.88.09,1.31.53,1.31,1.41.01,2.05,0,4.09-.02,6.14-.01.96-.52,1.43-1.51,1.44-1.77.01-3.53,0-5.3,0-2.26,0-4.51,0-6.77,0h0Z"/>
      <path class="cls-1" d="m76.44,114.23c-3.86,0-7.72,0-11.58,0-1.53,0-1.96-.42-1.96-1.92,0-1.79-.01-3.58-.02-5.37,0-1.18.41-1.66,1.59-1.74.69-.05,1.39-.07,2.09-.07,6.74,0,13.49,0,20.23,0,.65,0,1.3.04,1.95.1.76.07,1.25.57,1.26,1.32.02,2.05.03,4.09,0,6.14-.02,1.03-.62,1.52-1.76,1.53-3.93.01-7.86,0-11.79,0,0,0,0,0,0,0Z"/>
      <path class="cls-4" d="m50.73,38.32c.02-2.38,2.08-4.39,4.45-4.34,2.44.05,4.42,2.07,4.39,4.48-.04,2.44-2.04,4.39-4.49,4.37-2.41-.02-4.37-2.06-4.35-4.51Z"/>
      <path class="cls-3" d="m66.03,19.29c1.93-.55,3.81-1.12,5.72-1.62,3.38-.88,6.81-1.55,10.33-1.29,1.3.1,2.64.37,3.86.82,2.39.89,3.53,3.18,3.01,5.69-.59,2.84-2.2,5.15-3.98,7.34-2.18,2.68-4.59,5.13-7.22,7.36-.21.18-.4.39-.81.78.25.14.5.22.69.39,2.76,2.41,5.37,4.96,7.57,7.89,1.46,1.94,2.85,3.94,3.48,6.31.27,1.01.44,2.14.27,3.15-.41,2.43-2.11,3.79-4.73,4.22-3.5.58-6.91,0-10.28-.81-2.5-.6-4.95-1.43-7.42-2.15-.13-.04-.26-.07-.42-.12-.36,1.56-.68,3.11-1.07,4.63-.92,3.61-2.04,7.16-4.06,10.33-.75,1.18-1.66,2.32-2.7,3.25-2.18,1.95-4.64,1.85-6.85-.08-1.34-1.17-2.22-2.68-3-4.24-1.93-3.85-3.08-7.95-3.91-12.16-.11-.54-.23-1.08-.36-1.7-1.01.33-2,.64-2.98.96-4,1.27-8.06,2.27-12.27,2.3-1.41,0-2.89-.22-4.23-.67-2.69-.9-3.86-3.3-3.23-6.06.67-2.94,2.28-5.37,4.12-7.67,2.14-2.68,4.52-5.13,7.15-7.33.19-.16.37-.33.59-.53-1.22-1.14-2.4-2.22-3.55-3.33-2.3-2.21-4.44-4.57-6.21-7.24-1.06-1.6-1.89-3.3-2.18-5.23-.33-2.22.73-4.23,2.78-5.19,1.89-.89,3.9-1.04,5.93-.98,4.29.13,8.4,1.17,12.47,2.47.51.16,1.01.33,1.52.49.04.01.09-.01.08-.01.61-2.4,1.14-4.81,1.84-7.16.96-3.26,2.06-6.47,4.17-9.21.45-.59.96-1.14,1.52-1.63,1.87-1.63,4.29-1.7,6.27-.22,1.43,1.06,2.46,2.46,3.34,3.98,1.81,3.12,2.85,6.54,3.78,10,.33,1.23.57,2.49.85,3.73.04.18.11.35.16.52Zm-.59,19.58s0,0,0,0c0-2-.02-4,.01-6,0-.48-.14-.78-.55-1.01-3.11-1.77-6.21-3.56-9.33-5.3-.23-.13-.69-.05-.94.1-3.58,2.06-7.16,4.14-10.71,6.26-.27.16-.5.63-.5.96-.02,3.37.02,6.75.02,10.12,0,.63.23,1.06.77,1.37,3.46,2,6.91,4.01,10.38,5.98.3.17.85.16,1.15,0,3.04-1.7,6.05-3.46,9.07-5.18.44-.25.62-.59.62-1.07,0-2.07,0-4.14,0-6.21Zm-10.77,36.8c.99,0,2.27-.64,3.08-1.5,1.55-1.63,2.54-3.6,3.35-5.66,1.4-3.56,2.26-7.27,2.96-11.01.12-.66.13-1.02-.59-1.33-2.46-1.03-4.9-2.11-7.32-3.24-.73-.34-1.28-.35-2.04,0-2.84,1.32-5.73,2.53-8.61,3.77-.4.17-.67.33-.56.86.86,4.09,1.79,8.17,3.6,11.97.86,1.82,1.87,3.53,3.39,4.89.81.72,1.73,1.16,2.72,1.25Zm20.85-36.21c-.2.14-.31.22-.42.3-2.32,1.71-4.62,3.44-6.96,5.11-.47.33-.68.69-.74,1.24-.32,2.98-.65,5.95-1.01,8.93-.17,1.39-.21,1.38,1.11,1.85,3.4,1.2,6.87,2.12,10.46,2.53,2.3.26,4.59.32,6.84-.36,2.18-.65,3.27-2.23,2.82-4.42-.25-1.2-.7-2.42-1.31-3.49-2.7-4.69-6.71-8.2-10.8-11.7Zm-41.04-.04c-2.55,2.58-5.25,5.21-7.82,7.95-1.69,1.8-3.04,3.88-3.82,6.26-.91,2.79.25,4.84,3.08,5.55,2.18.55,4.37.47,6.58.22,3.67-.41,7.16-1.52,10.67-2.6.7-.22.83-.56.74-1.26-.4-3.22-.71-6.46-1.1-9.69-.04-.32-.24-.71-.5-.9-2.52-1.82-5.07-3.59-7.84-5.54Zm41.97-1.72c.25-.22.46-.4.67-.58,2.82-2.47,5.54-5.04,7.72-8.11,1.37-1.92,2.59-3.91,2.97-6.31.35-2.21-.64-3.74-2.76-4.41-1.98-.63-4-.57-6.01-.34-4.18.48-8.16,1.73-12.1,3.13-.43.15-.57.37-.52.82.35,2.81.67,5.62.99,8.44.06.5.24.84.67,1.14,1.36.93,2.71,1.88,4.03,2.87,1.45,1.08,2.86,2.22,4.33,3.36ZM28.58,17.76c-.61.09-1.75.18-2.86.41-2.56.54-3.75,2.41-3.19,4.96.5,2.28,1.71,4.2,3.05,6.05,2.26,3.1,5.05,5.7,7.91,8.22.38.34.58.17.88-.06,2.58-1.95,5.15-3.9,7.76-5.81.49-.36.67-.72.73-1.31.24-2.54.5-5.08.83-7.62.17-1.27.25-1.29-.93-1.71-4.42-1.6-8.92-2.88-14.18-3.14Zm35.54,2.05c-.14-.73-.25-1.27-.35-1.82-.77-4-1.76-7.93-3.54-11.61-.81-1.69-1.79-3.26-3.34-4.39-1.4-1.03-2.84-1.03-4.26-.04-1.41.98-2.4,2.32-3.23,3.78-2.4,4.2-3.47,8.83-4.36,13.51-.03.16.22.46.41.55,3.02,1.32,6.05,2.6,9.07,3.91.47.21.86.27,1.3-.03.27-.18.56-.32.86-.45,2.28-.98,4.56-1.95,6.84-2.94.25-.11.45-.34.61-.47Zm-9.86,32.32c-3.59-2.07-7.07-4.08-10.58-6.11-.01.12-.05.28-.04.43.32,3.03.66,6.05.97,9.08.06.63.29.74.86.49,1.63-.72,3.29-1.4,4.92-2.12,1.27-.56,2.52-1.15,3.87-1.76Zm11.09-5.34c-3.23,1.83-6.26,3.56-9.38,5.33,2.81,1.24,5.55,2.44,8.43,3.71.32-3.05.63-5.95.95-9.04Zm2.48-13.11c-.07.05-.14.1-.21.15v10.44c.25-.15.44-.23.61-.35,1.81-1.3,3.63-2.58,5.41-3.92,1.25-.94,1.25-1.01.03-1.94-1.93-1.48-3.89-2.92-5.84-4.37Zm-25.2,10.66v-10.72c-2.48,1.83-4.82,3.55-7.29,5.38,2.52,1.84,4.86,3.56,7.29,5.33Zm10.11-19.27c-2.71-1.2-5.36-2.37-8.18-3.62-.33,3.08-.65,6.03-.98,9.1,3.12-1.87,6.07-3.63,9.16-5.48Zm4.81.02c2.62,1.51,5.09,2.93,7.75,4.45-.27-2.54-.53-4.94-.8-7.54-2.4,1.07-4.63,2.06-6.95,3.09Z"/>
    </g>
  </g>
</svg>