<?xml version="1.0" encoding="UTF-8"?>
<svg id="Layer_2" data-name="Layer 2" xmlns="http://www.w3.org/2000/svg" viewBox="0 0 122.43 87.68">
  <defs>
    <style>
      .cls-1, .cls-2 {
        stroke-width: 1.87px;
      }

      .cls-1, .cls-2, .cls-3, .cls-4, .cls-5 {
        fill: none;
        stroke-linejoin: round;
      }

      .cls-1, .cls-4 {
        stroke: #0092ce;
      }

      .cls-2, .cls-3, .cls-5 {
        stroke: #eb8467;
      }

      .cls-3 {
        stroke-width: 1.73px;
      }

      .cls-4, .cls-5 {
        stroke-width: 2.01px;
      }
    </style>
  </defs>
  <g id="Layer_1-2" data-name="Layer 1">
    <g>
      <path class="cls-1" d="m9.13,26.55c-1.96.23-3.89.45-5.86.68-.08-.64-.17-1.28-.26-1.95.97-.12,1.91-.23,2.85-.34,1.05-.13,2.11-.25,3.16-.38.81-.1,1.61-.19,2.42-.29.19-.02.32.02.36.25.29,1.62.56,3.25.88,4.86.43,2.21.9,4.4,1.35,6.61.09.45.18.91.28,1.39.1-.04.17-.06.23-.09.58-.29,1.16-.58,1.74-.86.16-.07.21-.13.17-.33-.45-2.21-.88-4.43-1.33-6.65-.49-2.44-1.01-4.88-1.46-7.33-.35-1.87.08-3.56,1.49-4.92.91-.88,2.02-1.34,3.28-1.48.87-.1,1.7,0,2.5.31,1.56.61,2.59,1.75,3.06,3.34.35,1.19.57,2.42.82,3.63.31,1.5.6,3.01.9,4.51.37,1.89.75,3.78,1.12,5.67.06.3.15.43.5.43,2-.02,4-.02,6-.01,1.41,0,2.82,0,4.22.07,1.46.08-9.96,2.07-9.19,3.3,3.7.1,10.71-1.04,13.29-.58,7.06,3.29,11.93,8.55,14.27,16.04,1.1,3.53,1.37,7.15.96,10.82-.43,3.82-1.62,7.37-3.64,10.65-2.54,4.14-6,7.29-10.3,9.54-4.01,2.1-8.3,3.14-12.82,3.29-4.75.16-9.34-.62-13.66-2.62-7.27-3.37-12.27-8.83-14.44-16.59-2.16-7.74-1.11-15.11,3.31-21.9,1.63-2.5,3.7-4.6,6.11-6.35.21-.15.25-.3.2-.54-.59-2.89-1.18-5.78-1.76-8.67-.22-1.09-.44-2.19-.67-3.28-.02-.08-.05-.15-.09-.23Zm3.93,35.5c.02,1.97,1.16,5.45,3.62,8.42,3.6,4.34,8.25,6.43,13.88,5.94,5.67-.5,9.83-3.45,12.54-8.42,1.53-2.81,2.09-5.86,1.86-9.06-.23-3.2-1.23-6.13-3.21-8.66-3.76-4.8-8.73-6.84-14.76-6.1-8,.98-14,7.93-13.93,17.88Z"/>
      <path class="cls-3" d="m81.23,83.3h-11.75v-42.15h-15.86v-9.94h43.56v9.94c-.14,0-.27,0-.4,0-5.05,0-10.09,0-15.14,0-.33,0-.42.08-.42.41,0,13.77,0,27.54,0,41.31,0,.13,0,.27,0,.44Z"/>
      <path class="cls-4" d="m103.51,45.5c.18-.99.34-1.88.51-2.77.18-.93.36-1.86.55-2.78.35-1.72.71-3.45,1.06-5.17.16-.81.31-1.62.48-2.43.18-.92.36-1.83.56-2.74.21-.96.47-1.92.97-2.77.39-.67.89-1.27,1.51-1.76.84-.66,1.77-1.12,2.85-1.24.65-.07,1.32-.2,1.95-.1,1.64.26,3.08.92,4.24,2.2,1.26,1.4,1.69,3.03,1.55,4.83-.07.95-.33,1.88-.51,2.82-.13.72-.26,1.44-.4,2.15-.32,1.61-.64,3.21-.96,4.82-.21,1.06-.41,2.12-.62,3.18-.35,1.73-.7,3.45-1.05,5.18-.12.59-.23,1.19-.37,1.78-.39,1.58-1.16,2.93-2.48,3.94-.75.57-1.58.92-2.5,1.16-.75.19-1.49.21-2.24.21-4.9,0-9.8,0-14.7,0-.11,0-.22,0-.34.01,0,.35,0,.67,0,1,0,5.37,0,10.73,0,16.1,0,1.01-.17,2-.79,2.84-.41.56-.95.98-1.61,1.23-1.01.38-2.03.43-3.04.04-1.28-.5-2.05-1.44-2.31-2.79-.04-.2-.07-.41-.07-.62,0-7.68,0-15.36,0-23.04,0-1.4.52-2.61,1.48-3.63,1.07-1.13,2.38-1.63,3.92-1.63,2.71,0,5.42,0,8.12,0,1.39,0,2.79,0,4.24,0Z"/>
      <path class="cls-5" d="m114.1,6.08c3.89-.18,7.44,3.33,7.33,7.49-.1,3.69-3.34,7.4-7.86,7.1-3.65-.24-6.8-3.24-6.87-7.17-.08-4.14,3.34-7.59,7.4-7.42Z"/>
      <path class="cls-2" d="m18.26.94c3.24-.11,5.88,2.64,6.02,5.66.17,3.61-2.67,6.39-6.02,6.38-3.39,0-5.91-2.58-6.07-5.75-.19-3.63,2.91-6.46,6.07-6.3Z"/>
    </g>
  </g>
</svg>