<?xml version="1.0" encoding="UTF-8"?>
<svg id="Layer_2" data-name="Layer 2" xmlns="http://www.w3.org/2000/svg" viewBox="0 0 110.31 119.81">
  <defs>
    <style>
      .cls-1 {
        stroke-width: .82px;
      }

      .cls-1, .cls-2 {
        stroke: #eb8467;
      }

      .cls-1, .cls-2, .cls-3 {
        fill: none;
        stroke-linejoin: round;
      }

      .cls-4 {
        fill: #eb8467;
      }

      .cls-2 {
        stroke-width: 1.49px;
      }

      .cls-3 {
        stroke: #0092ce;
        stroke-width: 1.74px;
      }
    </style>
  </defs>
  <g id="Layer_1-2" data-name="Layer 1">
    <g>
      <path class="cls-2" d="m61.61,119.04c-3.06.24-5.41-1.18-6.66-2.82.38-.21.7-.39,1.03-.57,3.47-1.97,6.95-3.94,10.41-5.93.41-.23.57-.11.69.26.67,2.06.6,4.07-.58,5.94-1.13,1.8-2.69,2.97-4.99,3.14"/>
      <path class="cls-3" d="m82.47,99.64c2.84-6.21,1.86-11.72-3.48-15.89-4.58-3.57-9.63-3.37-14.62-.27-.76-2.22-1.9-4.22-3.82-5.76,2.59-.85,4.82-2.15,6.55-4.14,1-1.15,1.79-2.49,2.64-3.76.3-.45.19-.81-.18-1.27-1.24-1.51-2.39-3.1-3.58-4.65-.11-.15-.21-.3-.36-.51-3.31,2.64-7.1,3.8-11.25,3.59-4.16-.22-7.71-1.92-10.71-5.01-.34.87-.62,1.65-.96,2.41-.65,1.44-1.32,2.86-2.02,4.27-.19.39-.19.69.02,1.06,1.41,2.54,3.3,4.61,5.76,6.17.12.08.24.16.41.27-.12.12-.21.23-.32.3-2.12,1.16-3.6,2.93-4.78,5-3.28,5.74-6.58,11.46-9.85,17.21-.4.71-.85,1.02-1.72,1.02-7.42-.04-14.84-.02-22.25-.03-1.31,0-2.61-.08-3.84-.61-2.22-.96-3.52-3.09-3.17-5.48.31-2.07.66-4.15,1.19-6.18.28-1.1.88-2.14,1.5-3.11,1.3-2.04,2.63-4.08,4.5-5.67,2.51-2.15,5.5-3.32,8.65-4.1,3.88-.96,7.77-1.84,11.65-2.8,3.09-.76,6.12-1.66,8.97-3.13,1.2-.62,2.08-1.44,2.56-2.72.66-1.75,1.4-3.47,2.08-5.21.05-.14.02-.38-.07-.49-2.54-3.03-4.49-6.46-6.61-9.78-1.29-2.02-2.59-4.04-3.81-6.11-.99-1.68-1.73-3.47-1.71-5.48.02-2.07.85-3.65,2.77-4.59.19-.09.35-.45.34-.68-.05-2.42-.22-4.85-.2-7.27.02-2.52-.06-5.1.39-7.56.97-5.25,3.37-9.82,7.54-13.3,3.09-2.58,6.69-4.02,10.7-4.39,7.59-.69,14.22,1.6,19.88,6.63,4.05,3.6,6.56,8.11,7.16,13.53.22,1.98.08,4,.04,6-.05,2.28-.17,4.55-.23,6.82,0,.21.15.55.32.63,1.69.77,2.52,2.22,2.31,4.14-.21,1.95-.79,3.81-1.8,5.48-2.64,4.36-5.3,8.71-8.05,12.99-.98,1.53-2.23,2.9-3.41,4.3-.33.4-.38.7-.09,1.1.81,1.13,1.61,2.27,2.42,3.4.91,1.27,2.18,2.09,3.55,2.77,2.87,1.41,5.91,2.29,9.01,3.03,4.01.96,8.02,1.92,12.01,2.92,3.08.78,6,1.99,8.25,4.29,3.16,3.24,5.72,6.86,6.33,11.53.15,1.13.32,2.25.37,3.39.11,2.71-1.26,4.61-3.89,5.31-1,.27-2.08.37-3.12.38-6.05.03-12.1,0-18.14,0-.6,0-1.21,0-1.81,0Zm-3.94-65.04c-.42-.04-2.62,2.15-3.04,2.18-.36.03-.55-.08-.65-.43-.33-1.06-.72-2.11-.99-3.19-.27-1.09-.66-2.13-1.5-2.87-1.13-.99-2.3-1.99-3.6-2.74-3.06-1.77-6.44-2.62-9.92-3.14-4.16-.61-8.27-.48-12.31.74-3.33,1.01-6.05,2.83-7.8,5.91-.88,1.54-1.27,3.24-1.32,5.07-.39,0-.75-.03-1.1,0-.75.07-2.97-2.15-3.7-1.97m24.64-22.28c0-1.17,0-2.25,0-3.32,0-.76-.22-1.01-.99-1.04-.65-.03-1.31-.03-1.96-.01-.91.03-1.1.24-1.1,1.13,0,1.07,0,2.13,0,3.25-.28,0-.47,0-.65,0-.82,0-1.64-.03-2.46-.02-1.12.01-1.39.28-1.41,1.38-.01.46,0,.93,0,1.39.04,1.23.18,1.38,1.41,1.4,1.02.02,2.05,0,3.12,0,0,1.27,0,2.44,0,3.62,0,.52.23.78.76.78.57,0,1.14,0,1.71,0q1.58,0,1.58-1.61c0-.92,0-1.83,0-2.8,1.24,0,2.37-.01,3.51,0,.63.01.94-.28.97-.89.02-.65.06-1.31.04-1.96-.04-1.07-.28-1.29-1.34-1.3-1.03-.01-2.06,0-3.17,0Z"/>
      <path class="cls-2" d="m58.25,88.66c-.03,1.7-.49,2.9-1.13,4.02-1.48,2.59-2.98,5.18-4.48,7.77-2.33,4.03-4.63,8.07-6.98,12.08-2.69,4.59-9.12,4.57-11.74-.05-1.14-2-1.22-4.15-.14-6.17,1.62-3.04,3.4-6.01,5.12-9,2.1-3.67,4.24-7.32,6.31-11.01,1.25-2.23,3.02-3.68,5.59-3.95,2.9-.31,5.84,1.34,6.93,4.3.28.76.42,1.57.53,2.01Z"/>
      <path class="cls-2" d="m65.86,97.47c1.07-.61,2.05-1.17,3.04-1.72,2.83-1.6,5.67-3.2,8.49-4.82.39-.23.49-.03.59.25.48,1.33.68,2.67.27,4.07-1.02,3.51-4.04,5.61-7.64,5.15-1.93-.25-3.48-1.26-4.74-2.92Z"/>
      <path class="cls-2" d="m64.56,95.29c-.66-1.59-.73-3.1-.26-4.6,1.01-3.26,3.87-5.21,7.27-4.92,1.87.16,3.35,1.15,4.61,2.49.26.28.11.4-.16.56-3.32,1.86-6.64,3.72-9.95,5.59-.47.27-.94.54-1.51.88Z"/>
      <path class="cls-2" d="m53.91,114.33c-1.41-2.77-.33-6.41,2.41-8.32,2.53-1.76,6.76-1.75,9.38,1.64-3.92,2.22-7.84,4.44-11.79,6.68Z"/>
      <path class="cls-4" d="m55.28,55.42c-1.9.11-3.54-.24-5.08-.95-.32-.15-.69-.55-.74-.88-.08-.57.55-.88,1.18-.7,1.03.29,2.04.64,3.09.83,2.04.37,4.01,0,5.92-.77.08-.03.15-.08.23-.1.5-.12.88.01,1.05.53.16.49-.04.8-.5.99-1.71.68-3.46,1.2-5.14,1.04Z"/>
      <path class="cls-4" d="m64.87,32.08c1.4.12,2.64.59,3.75,1.4.41.3.57.66.25,1.14-.33.48-.7.34-1.09.1-.2-.12-.4-.23-.6-.34-1.67-.97-3.32-.9-4.96.08-.22.13-.44.25-.66.37-.44.24-.71,0-.95-.33-.25-.34-.15-.63.15-.88,1.19-1,2.6-1.41,4.11-1.54Z"/>
      <path class="cls-4" d="m46.22,32.08c1.35.13,2.61.6,3.72,1.45.35.27.52.6.23,1.03-.24.36-.52.54-.94.25-.3-.2-.62-.35-.93-.53-1.55-.85-3.09-.8-4.62.07-.29.17-.57.41-.88.46-.25.05-.65-.05-.79-.23-.14-.18-.12-.57-.04-.83.06-.19.3-.35.49-.47,1.13-.74,2.38-1.12,3.77-1.21Z"/>
      <path class="cls-4" d="m63.86,39.36c-.23,0-1.58-.07-2.61-.58-.56-.28-.73-.73-.47-1.17.2-.34.47-.51.89-.32,1.56.68,3.12.77,4.68-.02.42-.21.85-.21,1.07.29.2.46.09.85-.39,1.11-.95.52-1.97.71-3.04.68-.07,0-.08,0-.13,0Z"/>
      <path class="cls-4" d="m45.6,39.36c-.23,0-1.58-.07-2.61-.58-.56-.28-.73-.73-.47-1.17.2-.34.47-.51.89-.32,1.56.68,3.12.77,4.68-.02.42-.21.85-.21,1.07.29.2.46.09.85-.39,1.11-.95.52-1.97.71-3.04.68-.07,0-.08,0-.13,0Z"/>
      <path class="cls-4" d="m55.38,49.76c-1.18.04-1.72-.28-2.23-.91-.13-.16-.23-.59-.04-.78.17-.17.4-.12.59-.05.03.01.19.09.23.11.87.76,1.72.73,2.6,0,.45-.37.85-.21.9.31.02.18-.08.47-.21.55-.56.52-1.19.74-1.84.76Z"/>
      <path class="cls-1" d="m36.19,109.19c.02-.91.27-1.55.63-2.15.83-1.39,1.67-2.77,2.5-4.15,1.3-2.15,3.95-6.8,3.95-6.8l6.57,3.67s-1.9,3.21-2.85,4.82c-1.17,1.96-2.37,3.92-3.52,5.89-.7,1.19-1.69,1.97-3.12,2.11-1.62.16-3.25-.72-3.86-2.3-.16-.41-.23-.84-.3-1.08Z"/>
    </g>
  </g>
</svg>