<?xml version="1.0" encoding="UTF-8"?>
<svg id="Layer_2" data-name="Layer 2" xmlns="http://www.w3.org/2000/svg" viewBox="0 0 115.99 111.87">
  <defs>
    <style>
      .cls-1 {
        fill: #0092ce;
      }

      .cls-2 {
        fill: #eb8467;
      }
    </style>
  </defs>
  <g id="Layer_1-2" data-name="Layer 1">
    <g>
      <path class="cls-1" d="m10.13,78.68c.89,0,1.78-.06,2.66.02.99.08,1.57-.36,1.96-1.21,1.03-2.24,2.93-3.06,5.23-3.1,2.87-.06,5.75-.14,8.61.02,4.33.24,7.9,2.01,10.75,5.41,1.74,2.08,4.18,3.35,6.95,3.39,7.05.1,14.09.02,21.14.05.98,0,1.56-.49,1.75-1.28.1-.4-.27-1.05-.61-1.41-1.69-1.77-3.46-3.46-5.17-5.22-.52-.54-.87-.58-1.46-.04-1.93,1.77-3.86,1.7-5.81-.12-.64-.6-1.23-1.6-1.94-1.7-.63-.08-1.39.85-2.1,1.31-1.87,1.21-4.22.98-5.78-.58-11.16-11.16-22.32-22.32-33.48-33.49-1.65-1.65-1.69-4.57-.11-6.34q1.24-1.38-.07-2.7c-1.22-1.22-2.47-2.43-3.66-3.68-.63-.66-1.14-.69-1.79-.02-1.53,1.58-3.09,3.12-4.65,4.66-.29.29-.62.62-.99.72-.38.1-.9.04-1.22-.17-.23-.14-.4-.7-.31-.97.18-.53.49-1.06.89-1.45,6.58-6.61,13.18-13.2,19.77-19.8.15-.15.27-.37.45-.43.6-.2,1.22-1,1.86-.14.5.67.46,1.37-.19,2-1.66,1.63-3.24,3.32-4.94,4.9-.81.75-.72,1.22.03,1.92,1.24,1.14,2.4,2.37,3.59,3.57,1.21,1.21,1.27,1.14,2.7.17.86-.58,1.88-1.05,2.89-1.25,1.53-.31,2.85.43,3.92,1.49,10.93,10.91,21.85,21.84,32.77,32.76,2.01,2.02,2.25,5.25.04,7.35-.66.63-.72,1.16-.02,1.79.53.48,1.02,1,1.52,1.52,1.39,1.45,1.49,3.76.1,5.19-.8.81-.71,1.35.06,2.08,1.47,1.39,2.91,2.82,4.3,4.29.69.73,1.22.53,1.58-.19,1.4-2.82,2.73-5.67,4.09-8.5.79-1.64,1.47-3.35,2.38-4.91.65-1.12.34-1.79-.54-2.44-3.03-2.27-5.24-5.21-6.9-8.57-1.31-2.66-1.94-5.49-2.32-8.43-.67-5.18,1.23-9.6,3.74-13.84,2.27-3.84,4.75-7.56,7.17-11.3,2.83-4.37,5.74-8.68,8.52-13.07,1.17-1.85,2.07-3.86,3.16-5.77.28-.49.87-1.23,1.21-1.17.53.09,1.1.67,1.41,1.19,2.47,4.1,4.8,8.3,7.35,12.35,2.65,4.19,5.52,8.23,8.26,12.36,2.31,3.48,4.43,7.07,5.92,10.99,1.45,3.81,1.5,7.72.51,11.64-.76,3.02-2.05,5.79-3.74,8.43-.78,1.21-.82,2.9-1.18,4.38-1.19,4.8-2.27,9.63-3.58,14.39-1.58,5.74-3.58,11.33-6.33,16.63-1.8,3.47-3.85,6.81-6.81,9.45-2.38,2.12-5.04,3.81-8.35,3.94-2.79.1-5.59.02-8.38.02-3.59,0-7.17.03-10.76,0-6.82-.06-13.64-.15-20.46-.26-2-.03-3.84.49-5.63,1.32-3.11,1.45-6.19,2.97-9.37,4.25-1.34.54-2.91.72-4.37.74-5.74.08-11.48-.02-17.22.05-3.58.04-5.72-3.33-4.49-6.27.42-1,.3-1.6-.46-2.37-1.8-1.84-1.83-4.75-.3-6.85.23-.31.35-1.05.15-1.28-1.85-2.26-1.45-4.49-.16-6.81.18-.32.19-.93,0-1.23-1.78-2.84-1.28-5.38.55-7.13,1.05-1,2.33-1.39,3.78-1.26.63.06,1.26,0,1.9,0Zm6.06,8.23c0,1.94,0,3.88,0,5.82,0,1.52.61,1.98,2.03,1.52,2.38-.78,3.34-2.72,3.76-4.95.29-1.54.35-3.13.5-4.69.05-.56.04-1.09.85-1.12.67-.02,1.08.14,1.37.8,1.04,2.36,2.85,4.16,4.79,5.71,1.24.99,2.89,1.53,4.42,2.08.83.3,1.81.19,2.71.3.75.09,1.34.3,1.35,1.28,0,1.05-.63.99-1.34,1-4.02.02-7.43-1.41-10.34-4.17-.42-.4-1.21-.95-1.5-.8-.48.25-.73.99-1.01,1.56-.46.92-.68,2.04-1.34,2.75-.93.97-.74,1.69-.11,2.62,1.37,2.03,1.35,4.09.06,6.17-.2.32-.42.97-.28,1.11,1.33,1.32,1.12,2.96,1.21,4.58.02.39.57,1.03.92,1.06,2.47.2,4.93.05,7.21-1,2.63-1.21,5.22-2.52,7.83-3.77,2-.96,4.11-1.55,6.34-1.5,2.9.06,5.79.21,8.69.24,9.77.11,19.55.2,29.32.25,2.88.01,5.41-1.1,7.57-2.98,4.45-3.86,7.28-8.83,9.51-14.16,2.73-6.56,4.64-13.38,6.35-20.27.22-.88.46-1.77.51-2.67.06-1.1-.7-1.49-1.64-.91-.28.17-.54.38-.82.56-3.79,2.45-7.94,3.96-12.43,4.19-3.6.19-7.06-.76-10.35-2.23-1.77-.79-1.98-.73-2.85,1.05-2.19,4.5-4.35,9.02-6.56,13.52-.37.75-.3,1.27.32,1.87,1.97,1.9,3.89,3.86,5.83,5.8.69.69,1.46,1.31,2.02,2.09.27.38.38,1.31.14,1.51-.36.31-1.09.3-1.63.22-.36-.05-.68-.45-.98-.73-2.1-2.08-4.18-4.18-6.27-6.26-.89-.89-1.33-.88-1.97.15-.47.76-1.04,1.05-1.95,1.05-7.09-.03-14.18.02-21.27-.05-1.42-.01-2.87-.33-4.26-.7-2.94-.79-4.99-2.9-7.04-5-2.04-2.1-4.6-3.06-7.48-3.11-2.57-.05-5.16.16-7.72-.06-2.7-.22-4.6,2-4.51,4.6.07,1.9.01,3.8.01,5.7Zm97.57-44.62c-.22-.94-.43-2.78-1.07-4.45-2.19-5.77-5.83-10.72-9.19-15.83-3.51-5.35-6.92-10.76-10.39-16.14-.28-.43-.78-1.12-1.04-1.07-.47.1-.93.62-1.22,1.07-1.47,2.35-2.82,4.77-4.31,7.09-4.39,6.8-8.92,13.51-13.2,20.37-2.21,3.53-3.66,7.36-3.01,11.75.37,2.52.83,4.98,1.96,7.25,2.73,5.45,6.89,9.41,12.63,11.56,3.3,1.23,6.76,1.8,10.27,1.07,4.73-.99,8.81-3.17,12.22-6.7,4.11-4.24,6.08-9.27,6.35-15.98Zm-50.49,17.41c-.32-.58-.49-1.09-.82-1.46-.67-.76-1.46-1.4-2.12-2.17-.67-.78-1.15-.84-1.91-.04-2.09,2.2-4.27,4.32-6.43,6.46-.29.29-.62.68-.98.73-.54.08-1.27.08-1.63-.22-.23-.2,0-1.02.13-1.53.07-.25.39-.43.6-.63,2.18-2.18,4.34-4.37,6.54-6.53.69-.67.76-1.21.02-1.88-.99-.92-1.94-1.88-2.87-2.86-.62-.66-1.14-.7-1.79-.02-1.07,1.13-2.23,2.18-3.3,3.33-.65.7-1.4,1.14-2.17.52-.96-.77-.08-1.53.33-2.24.1-.18.29-.3.44-.45,1.04-1.04,2.07-2.11,3.14-3.13.52-.49.51-.87,0-1.36-.98-.93-1.95-1.87-2.86-2.87-.74-.82-1.31-.78-2.07,0-2.2,2.27-4.46,4.49-6.7,6.72-.64.63-1.44,1.07-2.13.29-.6-.67-.3-1.43.36-2.08,2.32-2.27,4.58-4.61,6.92-6.87.69-.67.66-1.11-.02-1.73-1-.91-1.96-1.86-2.86-2.86-.68-.76-1.17-.87-1.91-.04-1.12,1.26-2.34,2.43-3.57,3.59-.51.48-1.25,1.02-1.81.23-.27-.38-.23-1.33.07-1.7,1.07-1.34,2.28-2.57,3.5-3.78.71-.71.84-1.26.04-1.98-.97-.88-1.9-1.8-2.77-2.78-.66-.74-1.1-.61-1.73.04-2.15,2.21-4.34,4.37-6.52,6.54-.26.26-.55.63-.87.68-.55.08-1.13-.05-1.7-.09.05-.56.04-1.14.17-1.69.06-.25.39-.43.6-.64,2.15-2.15,4.28-4.31,6.46-6.43.72-.7.84-1.27.04-1.98-.69-.61-1.32-1.31-1.98-1.96-1.25-1.23-2.29-1.23-3.55.03-3.58,3.58-7.16,7.16-10.74,10.74-1.28,1.28-1.28,2.52,0,3.81,11.01,11.01,22.02,22.02,33.02,33.04,1.2,1.2,2.38,1,3.33.03,3.72-3.8,7.51-7.53,11.25-11.31.37-.38.56-.93.87-1.49ZM13.12,96.91c-1.81,0-3.62-.01-5.43,0-1.42.01-2.63,1.31-2.64,2.77,0,1.25,1.46,2.79,2.69,2.79,3.54,0,7.07.02,10.61-.02.5,0,1.07-.2,1.48-.49,1.08-.78,1.53-2.25,1.14-3.34-.31-.86-1.77-1.71-2.93-1.71-1.64,0-3.28,0-4.93,0Zm.7,12.66c1.6,0,3.2.01,4.79,0,1.4-.02,2.39-.98,2.39-2.29,0-1.54-.93-2.51-2.45-2.51-3.11-.01-6.22,0-9.34,0-1.27,0-1.98.76-2.49,1.77-.52,1.02,0,1.79.81,2.34.48.33,1.06.64,1.62.68,1.55.09,3.11.03,4.67.03Zm1.85-78.65c.3-.18.54-.27.71-.43,1.35-1.33,2.67-2.68,4.03-4,.56-.55.31-.91-.14-1.35-1.41-1.38-2.82-2.77-4.19-4.2-.63-.66-1.14-.69-1.78-.02-1.19,1.25-2.41,2.47-3.66,3.66-.57.54-.68.94-.05,1.54,1.46,1.39,2.86,2.85,4.3,4.27.22.22.52.36.79.54Zm-5.4,63.71c.8,0,1.6,0,2.4,0,.82.01,1.25-.36,1.25-1.21,0-1.14,0-2.27,0-3.41,0-.84-.41-1.22-1.24-1.21-1.64,0-3.29-.04-4.93.02-1.34.04-2.11,1.03-2.58,2.08-.42.96-.01,1.92.74,2.71,1.24,1.31,2.83.98,4.35,1.02Zm-.13-8.1c.8,0,1.6-.02,2.4,0,.95.03,1.4-.37,1.38-1.34-.03-.97-.03-1.94,0-2.91.03-.97-.43-1.36-1.38-1.34-1.47.03-2.95,0-4.43,0-1.77,0-3.03,1.12-3.06,2.73-.03,1.43,1.48,2.83,3.07,2.84.67,0,1.35,0,2.02,0Zm54.04-17.16c-.19-.32-.3-.59-.49-.79-.61-.64-1.27-1.24-1.87-1.89-.47-.51-.86-.55-1.36-.02-.72.77-1.49,1.49-2.22,2.24-2.8,2.86-2.8,1.95.14,5,.52.54.9.59,1.45.02,1.22-1.28,2.49-2.51,3.74-3.77.22-.22.39-.5.62-.8Z"/>
      <path class="cls-2" d="m91.85,58.52c-1.07-.11-2.18-.1-3.21-.37-1.65-.42-2.53-1.68-2.56-3.39-.02-1.05-.02-2.11,0-3.16.02-.89-.39-1.32-1.29-1.3-.84.02-1.69-.06-2.53.02-2.39.22-4.13-1.07-4.26-3.89-.07-1.62.05-3.26.24-4.87.21-1.79,1.48-2.83,3.29-2.9.59-.02,1.18-.01,1.77,0,2.88.04,2.82.11,2.78-2.71,0-.46,0-.93,0-1.39,0-2.31,1.13-3.78,3.41-3.95,1.86-.14,3.77,0,5.62.23,1.76.23,2.59,1.4,2.61,3.2.01,1.01.05,2.03-.01,3.04-.08,1.23.47,1.67,1.65,1.59.92-.06,1.85-.03,2.78,0,1.81.03,3.17.82,3.39,2.57.27,2.2.28,4.5-.03,6.69-.25,1.78-1.4,2.37-3.27,2.38-1.05,0-2.11.02-3.16,0-.96-.03-1.38.41-1.35,1.36.03,1.01.01,2.02,0,3.04-.02,2.64-1.26,3.36-3.59,3.69-.74.11-1.52.02-2.27.02,0,.04,0,.07,0,.11Zm-3.5-6.58c0,.89-.01,1.77,0,2.66.02,1.01.55,1.53,1.56,1.54,1.31,0,2.62,0,3.92,0,1.09,0,1.61-.54,1.6-1.63,0-1.6,0-3.21,0-4.81,0-1.14.55-1.68,1.69-1.67,1.6.01,3.21,0,4.81,0,1.09,0,1.62-.53,1.61-1.62,0-1.27-.01-2.53,0-3.8,0-1.14-.54-1.69-1.68-1.68-1.6.01-3.21-.06-4.81.02-1.26.06-1.62-.56-1.62-1.65,0-1.6,0-3.21,0-4.81,0-1.07-.48-1.65-1.57-1.66-1.27,0-2.53-.03-3.8,0-1.21.03-1.72.58-1.72,1.79,0,1.6-.04,3.21.01,4.81.03,1.07-.37,1.54-1.47,1.51-1.6-.05-3.21.04-4.81-.03-1.23-.05-1.65.47-1.6,1.65.06,1.35.04,2.7,0,4.05-.03,1.03.41,1.44,1.43,1.42,1.64-.04,3.29-.02,4.94,0,.96.01,1.6.35,1.5,1.5-.07.8-.01,1.6-.01,2.4Z"/>
    </g>
  </g>
</svg>