<?xml version="1.0" encoding="UTF-8"?>
<svg id="Layer_2" data-name="Layer 2" xmlns="http://www.w3.org/2000/svg" viewBox="0 0 121.4 108.26">
  <defs>
    <style>
      .cls-1 {
        stroke: #eb8467;
      }

      .cls-1, .cls-2 {
        fill: none;
        stroke-linejoin: round;
        stroke-width: 2.11px;
      }

      .cls-2 {
        stroke: #0092ce;
      }
    </style>
  </defs>
  <g id="Layer_1-2" data-name="Layer 1">
    <g>
      <path class="cls-2" d="m48.9,94.07h-6.76c-11.8,0-23.6,0-35.4,0-3.56,0-5.9-2.53-5.66-6.05.15-2.23,2.22-4.46,4.45-4.66,3.74-.34,7.48-.6,11.23-.91,6.27-.51,12.54-1.03,18.81-1.54,2.45-.2,4.9-.38,7.57-.58-.23-.43-.37-.75-.55-1.04-2.04-3.1-4.11-6.19-6.13-9.3-.4-.62-.85-.83-1.58-.82-5.77.03-11.54.03-17.3,0-3.69-.02-6.16-2.82-5.61-6.28.4-2.5,2.46-4.42,5.15-4.45,6.15-.09,12.29-.06,18.44-.07.1,0,.2.06.16.05-.26,1.4-.72,2.75-.73,4.1-.04,5.33,5.3,9.13,10.38,7.45,1.51-.5,3.01-1.04,4.49-1.63.66-.26,1.08-.18,1.59.33,1.9,1.91,3.89,3.72,5.76,5.66.76.79,1.54,1.03,2.6,1.03,9.83-.03,19.66-.03,29.48-.01,4.62,0,8.28,2.96,9.25,7.38,1.27,5.82-3.05,11.3-9,11.33-8.27.04-16.54.01-24.82.01-3.07,0-6.15.04-9.22-.02-2.01-.04-3.53-1.55-3.79-3.57-.24-1.82.94-3.72,2.71-4.25.6-.18,1.27-.21,1.91-.21,4.44-.01,8.88-.08,13.32.03,2.73.07,5.34-.43,7.97-.99,3.22-.69,6.44-1.35,9.78-2.05-.25-1.23-.47-2.35-.74-3.68-1.81.37-3.55.66-5.26,1.08-5.43,1.35-10.91,2.1-16.53,1.81-2.91-.15-5.84-.03-8.76-.03-6.17,0-9.87,5.69-7.38,11.32.06.13.1.27.21.57Z"/>
      <path class="cls-2" d="m60.6,107.21c-17.99,0-35.97,0-53.96,0-.53,0-1.06.01-1.59-.01-2.44-.11-3.92-1.62-3.97-4.07-.02-1.1-.02-2.2,0-3.3.02-1.22.55-1.82,1.75-1.96.41-.05.83-.04,1.25-.04,28.76,0,57.53-.03,86.29.03,3.73,0,7.01-.97,9.7-3.45,2.59-2.4,5.43-3.48,8.97-3.14,2.48.24,5,.03,7.51.05,2.24.02,3.54,1.32,3.55,3.53,0,2.62,0,5.24,0,7.85-.01,3.17-1.35,4.51-4.52,4.51-18.33,0-36.65,0-54.98,0Z"/>
      <path class="cls-2" d="m62.04,41.03c-.33-.15-.59-.3-.87-.4-.71-.26-1.42-.51-2.27-.81-.79,1.84-1.55,3.64-2.32,5.44-.35.84-.81,1.65-1.03,2.52-.39,1.59-1.44,2.29-2.91,2.78-3.05,1.02-6.05,2.19-9.08,3.29-.24.09-.5.12-.84.2v-11.91c-.38.32-.61.47-.79.67-3.36,3.66-6.73,7.3-10.05,11-.7.77-1.41,1.07-2.45,1.05-3.45-.07-6.9-.02-10.36-.02h-1.36c.61-.72,1.02-1.23,1.46-1.72,7.1-7.74,14.26-15.43,21.26-23.26,2.38-2.66,5.21-3.78,8.62-3.79,4.89-.02,9.79-.03,14.68,0,6.79.04,11.1,6.16,8.65,12.51-2.49,6.46-5.23,12.83-7.89,19.23-.49,1.18-1.41,1.97-2.6,2.41-5.72,2.1-11.44,4.21-17.17,6.27-1.73.62-3.36.4-4.71-1-1.27-1.32-1.47-2.87-.92-4.53.45-1.37,1.52-2.12,2.82-2.61,4.75-1.77,9.5-3.56,14.26-5.31.69-.25,1.13-.6,1.42-1.3,1.37-3.33,2.79-6.63,4.19-9.95.1-.23.16-.48.25-.77Z"/>
      <path class="cls-1" d="m57.99,23.05c-6.2,0-11.05-4.82-11.06-11-.01-6.12,4.95-11.04,11.09-10.99,6.1.04,10.98,4.89,11.05,10.97.07,6.06-4.93,11.03-11.08,11.03Z"/>
      <path class="cls-1" d="m110.45,87.75c-5.7-.06-10.15-4.5-10.03-10.03.12-5.54,4.64-9.93,10.14-9.83,5.53.1,9.84,4.59,9.78,10.17-.06,5.33-4.57,9.75-9.89,9.69Z"/>
      <path class="cls-2" d="m72.73,47.81v22.05c-.43,0-.83,0-1.23,0-4.13,0-8.27-.01-12.4.02-.86,0-1.49-.2-2.1-.85-.74-.79-1.63-1.45-2.66-2.34,2.92-1.08,5.37-2.09,7.88-2.9,2.84-.91,4.71-2.68,5.8-5.46,1.39-3.56,2.98-7.04,4.48-10.55.08.01.15.02.23.03Z"/>
    </g>
  </g>
</svg>