<?xml version="1.0" encoding="UTF-8"?>
<svg id="Layer_2" data-name="Layer 2" xmlns="http://www.w3.org/2000/svg" viewBox="0 0 85.78 118.17">
  <defs>
    <style>
      .cls-1 {
        stroke: #eb8467;
        stroke-width: 2.11px;
      }

      .cls-1, .cls-2, .cls-3, .cls-4 {
        fill: none;
        stroke-linejoin: round;
      }

      .cls-5 {
        fill: #fff;
      }

      .cls-2 {
        stroke-width: 1.5px;
      }

      .cls-2, .cls-3, .cls-4 {
        stroke: #0092ce;
      }

      .cls-4 {
        stroke-width: 1.8px;
      }
    </style>
  </defs>
  <g id="Layer_1-2" data-name="Layer 1">
    <g>
      <path class="cls-5" d="m47.77,69.51c-.19.24-.32.47-.5.65-1.01,1.03-2.05,2.03-3.05,3.07-.44.46-.75.43-1.18-.02-2.4-2.49-2.39-1.74-.11-4.07.6-.61,1.23-1.2,1.81-1.83.4-.43.72-.4,1.11.02.49.53,1.03,1.01,1.52,1.54.15.16.24.38.4.64Z"/>
      <path class="cls-1" d="m52.59,1.05c.75.24,1.51.44,2.24.73,4.6,1.84,7.2,6.81,6.1,11.62-1.14,4.97-5.62,8.22-10.85,7.85-4.67-.33-8.73-4.38-9.1-9.08-.4-5.22,2.82-9.71,7.79-10.87.29-.07.57-.16.86-.25.98,0,1.97,0,2.95,0Z"/>
      <path class="cls-4" d="m66.23,76.31q-2.21.11-2.73,2.07c-.59,2.23-1.08,4.48-1.79,6.67-.9,2.76-.73,5.61-.88,8.43-.31,5.93-.52,11.86-.76,17.79-.14,3.51-2.73,6.08-6.08,5.98-3.33-.1-5.82-2.88-5.67-6.37.35-8.16.61-16.33,1.13-24.48.15-2.34,1.06-4.62,1.62-6.93.13-.54.28-1.08.46-1.8-1.16.11-2.17.21-3.17.29-2.1.17-3.4-1.12-3.22-3.21.64-7.5,1.31-14.99,1.96-22.48.01-.15.04-.3.08-.55,2.57-.31,5.14-.64,7.72-.94,2.44-.28,4.02-1.57,4.75-3.91,1.26-4.02,2.54-8.04,3.62-12.15-.6.99-1.21,1.97-1.8,2.96-1.51,2.49-3.03,4.97-4.52,7.47-.87,1.46-2.09,2.33-3.8,2.53-6.12.71-12.23,1.45-18.35,2.18-.86.1-1.73.23-2.59.25-2.42.04-4.43-1.77-4.61-4.1-.2-2.52,1.47-4.68,3.94-4.98,5.78-.71,11.56-1.39,17.34-2.04.83-.09,1.36-.38,1.78-1.12,1.52-2.61,3.1-5.17,4.49-7.9-.99.98-1.97,1.95-2.96,2.93-.75.75-1.47,1.53-2.26,2.23-.32.29-.8.4-1.44.71.36-4.12.7-7.93,1-11.44,2.14-.39,4.06-.58,5.89-1.1,2.23-.64,3.99-2.08,5.53-3.81.36-.4.95-.7,1.49-.82.92-.19,1.87-.24,2.82-.28,2.72-.11,5.09,1.8,5.95,4.82,1.38,4.83,2.74,9.66,4.11,14.49,3.06,10.79,6.12,21.57,9.17,32.36.16.58.34,1.17.39,1.76.13,1.54-.74,2.64-2.27,2.86-1.49.21-2.99.32-4.6.48,0,1.6.08,3.15-.02,4.68-.36,5.53.5,10.89,1.94,16.22,1.27,4.7,2.3,9.47,3.36,14.22.59,2.64-.77,5.24-3.17,6.4-2.38,1.15-5.21.62-6.91-1.41-.59-.7-1.08-1.59-1.29-2.47-1.86-7.59-3.67-15.2-5.42-22.81-.27-1.16-.23-2.4-.24-3.61-.03-3.32-.01-6.64-.01-10.06Z"/>
      <path class="cls-4" d="m18.75,45.8c-3.09,2.9-5.3,6.3-6.77,10.15-.14.37-.01.89.11,1.31,1.25,4.24,2.55,8.46,3.78,12.7.63,2.17-.62,4.3-2.73,4.87-2.01.54-4.12-.45-4.75-2.46-1.55-4.94-3.06-9.88-4.41-14.88-.29-1.08-.05-2.44.33-3.54,1.92-5.51,4.99-10.3,9.17-14.4,2.39-2.34,5.31-2.47,8.35-2.27.17.01.36.11.51.21,1.29.91,2.57,1.82,3.69,2.61-.53,1.43-1.34,2.87-1.6,4.41-.83,5.01,3.58,9.45,8.62,8.86,3.41-.41,6.83-.81,10.58-1.25-.18,5.69-.36,11.29-.54,16.87-1.33,0-2.38-.13-3.4.02-3.69.55-6.14,3.14-6.82,7.04-.29,1.67-.59,3.34-.88,5.05h-3.21c-.31-1.77-.63-3.55-.94-5.32-.72-4.1-3.8-6.79-7.94-6.84-.77,0-1.01-.33-1.09-.95-.05-.37-.04-.75-.04-1.13,0-6.62,0-13.24,0-19.86v-1.21Z"/>
      <path class="cls-2" d="m30.74,105.81c.42-2.4.92-5.23,1.42-8.06,1.28-7.21,2.54-14.43,3.85-21.64.51-2.8,2.87-4.44,5.61-4.04.76.11,1.06.38.91,1.18-.12.63-.14,1.28-.15,1.92-.03,1.86.74,3.34,2.13,4.56.31.28.57.89.5,1.29-1.47,8.56-2.99,17.11-4.51,25.66-.56,3.14-2.78,4.92-5.58,4.53-2.51-.35-4.26-2.43-4.18-5.4Z"/>
      <path class="cls-2" d="m28.47,109.95c-1.48,1.28-3.08,1.63-4.82,1.06-1.85-.6-2.96-1.92-3.3-3.83-1.22-6.8-2.42-13.6-3.62-20.4-.49-2.75-.94-5.51-1.46-8.25-.11-.6-.08-.93.52-1.26,1.76-1,2.87-2.55,3.34-4.51.15-.64.45-.75,1.01-.74,2.19.04,4.11,1.58,4.54,3.87.95,5.01,1.81,10.03,2.7,15.04.22,1.23.36,2.47.68,3.67.84,3.15.66,6.26-.13,9.38-.5,2-.44,3.97.54,5.95Z"/>
      <path class="cls-1" d="m21.48,28.17c0-5.3,4.31-9.64,9.57-9.62,5.39.02,9.71,4.31,9.71,9.63,0,5.28-4.33,9.62-9.6,9.63-5.36.01-9.68-4.29-9.68-9.64Z"/>
      <path class="cls-2" d="m14,112.09c0,.56.03.97,0,1.37-.14,1.74-1.65,3.11-3.34,3.07-1.68-.04-3.09-1.38-3.23-3.07-.02-.26-.02-.53-.02-.79,0-11.61,0-23.22,0-34.84,0-.32.03-.65.04-.85,1.54.53,3.05,1.06,4.55,1.58.65,7.61,1.64,19.9,2.05,29.92.91,0,1.73.03,2.55-.01.61-.03.92.16,1.18.76.41.95,1,1.83,1.58,2.87h-5.35Z"/>
      <path class="cls-2" d="m4.95,92.18c0,4.84,0,9.68,0,14.52,0,1.54-1.07,2.56-2.39,2.35-1.01-.16-1.78-.93-1.78-2.04-.03-9.91-.03-19.81,0-29.72,0-1.28.9-2.06,2.09-2.06,1.22,0,2.07.86,2.08,2.2.02,4.92,0,9.83.01,14.75Z"/>
      <path class="cls-3" d="m41.44,111.99c.54-.94,1.14-1.77,1.51-2.7.31-.78.7-.96,1.47-.7v3.4h-2.97Z"/>
    </g>
  </g>
</svg>