<?xml version="1.0" encoding="UTF-8"?>
<svg id="Layer_2" data-name="Layer 2" xmlns="http://www.w3.org/2000/svg" viewBox="0 0 111.04 116.12">
  <defs>
    <style>
      .cls-1, .cls-2 {
        stroke: #0092ce;
      }

      .cls-1, .cls-2, .cls-3, .cls-4 {
        fill: none;
        stroke-linejoin: round;
      }

      .cls-1, .cls-4 {
        stroke-width: 1.36px;
      }

      .cls-2 {
        stroke-width: 1.54px;
      }

      .cls-3 {
        stroke-width: 1.76px;
      }

      .cls-3, .cls-4 {
        stroke: #eb8467;
      }
    </style>
  </defs>
  <g id="Layer_1-2" data-name="Layer 1">
    <g>
      <g>
        <path class="cls-1" d="m.7,105.2c0-.37,0-.67,0-.97,0-28.89,0-57.78-.02-86.67,0-1.7.71-2.61,2.54-2.45.26.02.52.03.89.05,0,.25,0,.5,0,.75,0,17.6,0,35.2,0,52.8,0,2.46,2.14,4.77,4.61,4.79,4.65.05,9.29.05,13.94,0,2.61-.03,4.67-2.19,4.77-4.88.02-.57.01-1.14.01-1.71,0-16.86,0-33.73,0-50.59,0-.35,0-.71,0-1.14.7,0,1.39-.07,2.05.02.72.1,1.19.71,1.23,1.45.03.57.04,1.14.04,1.71,0,28.53,0,57.07,0,85.6,0,1.3,0,1.29-1.27,1.29-9.39,0-18.78,0-28.17-.01-.16,0-.33-.02-.61-.03Z"/>
        <path class="cls-4" d="m7.43,13.46h16.61c.02.33.05.63.05.93,0,17.38-.01,34.77-.01,52.15,0,.59.06,1.19.05,1.78-.01,1.22-.69,1.88-1.92,1.88-4.17,0-8.35,0-12.52,0-1.8,0-2.31-.52-2.3-2.34.02-9.51.04-19.02.05-28.53,0-8.06,0-16.13-.01-24.19,0-.54,0-1.08,0-1.69Z"/>
        <path class="cls-4" d="m35.04,93.58c.29-.01.52-.04.74-.04,9.91.01,19.82.03,29.73.03.6,0,.73.13.73.75-.03,3.37,0,6.73.03,10.1,0,.59-.1.84-.77.84-8.13-.02-16.26-.03-24.39,0-.68,0-1-.22-1.27-.83-1.53-3.46-3.1-6.91-4.65-10.36-.06-.12-.08-.26-.15-.48Z"/>
        <path class="cls-1" d="m30.74,113.59H.73v-5.04c.18-.01.36-.04.54-.04,9.6,0,19.2,0,28.8.02.29,0,.67-.11.67.39,0,1.54,0,3.07,0,4.67Z"/>
        <path class="cls-1" d="m34.09,86.91h32.15c0,.98.03,1.95-.03,2.91,0,.15-.38.41-.58.41-10,.02-20,.02-29.99.02q-1.57,0-1.56-1.62c0-.54,0-1.09,0-1.72Z"/>
        <path class="cls-1" d="m66.27,108.55c0,1.04.03,2.03-.03,3.02,0,.14-.43.36-.66.37-2.63.02-5.26,0-7.89,0-5.36,0-10.72,0-16.07,0-.26,0-.51,0-.82,0,0-1.06-.02-2.05.02-3.04,0-.13.29-.34.45-.34,8.2-.03,16.4-.03,24.61-.04.09,0,.19.02.41.04Z"/>
        <path class="cls-4" d="m34.1,36.84c0-3.63.01-7.26-.01-10.89,0-.64.15-.92.83-.85.59.06,1.19.05,1.78,0,.62-.06.77.2.76.77-.03,1.61-.02,3.23-.02,4.84,0,5.69.01,11.38.04,17.08,0,.61-.22.79-.8.76-.64-.03-1.28-.04-1.92.01-.56.05-.68-.19-.68-.7.02-3.68,0-7.35,0-11.03,0,0,0,0,0,0Z"/>
        <path class="cls-1" d="m51.33,83.47c-.39.03-.74.08-1.08.08-5.17,0-10.33,0-15.5.01-.49,0-.68-.14-.66-.65.03-.73.02-1.47,0-2.2,0-.38.12-.54.54-.53,5.24.02,10.48.01,15.71.02.96,0,.97.03.99,1.01.01.73,0,1.46,0,2.26Z"/>
      </g>
      <g>
        <path class="cls-2" d="m80.01,32.28h-3.83v8.39c-1.47-.56-2.82-1.06-4.15-1.61-.14-.06-.25-.46-.2-.66.71-2.86,1.46-5.71,2.18-8.56.57-2.25,1.88-3.9,3.98-4.87,2.52-1.17,5.06-2.28,7.66-3.45.1.31.14.55.25.75.53,1.04.94,2.18,1.66,3.08,1,1.25,2.24,2.3,3.37,3.45.31.32.58.3.89,0,1.15-1.17,2.42-2.23,3.43-3.51.69-.87,1.08-1.99,1.51-3.05.19-.46.33-.62.79-.41,3,1.35,6.03,2.66,9,4.07,2.7,1.28,3.62,3.67,3.69,6.48.05,2.25.02,4.51.04,6.76,0,.48-.18.67-.67.66-.83-.03-1.67-.05-2.49,0-.6.03-.72-.23-.71-.76.02-2.23,0-4.45,0-6.74h-3.73c0,.49,0,.99,0,1.49,0,7.25,0,14.49.01,21.74,0,1.23.01,1.24-1.19,1.24-6.87,0-13.74,0-20.61,0-.26,0-.53-.02-.87-.04v-24.44Z"/>
        <path class="cls-2" d="m93.22,107.72c0-1.47,0-2.8,0-4.14,0-11.57,0-23.14,0-34.71,0-.54-.11-.78-.7-.76-.99.04-1.97.01-3.02.01-.02.25-.05.46-.05.66,0,12.7,0,25.4.03,38.09,0,.71-.22.94-.93.92-1.66-.05-3.33-.08-4.99-.02-.73.03-.9-.23-.95-.89-.27-3.8-.57-7.6-.86-11.4-.36-4.74-.65-9.48-1.07-14.21-.61-6.77-.82-13.55-.7-20.35,0-.08.02-.15.05-.31h22.55c.03.17.08.35.08.52,0,3.49.08,6.98-.03,10.47-.1,3.11-.41,6.21-.64,9.32-.4,5.22-.82,10.43-1.23,15.65-.28,3.53-.54,7.06-.83,10.59-.02.2-.27.53-.42.53-2.08.04-4.16.02-6.31.02Z"/>
        <path class="cls-3" d="m99.93,9.64c-.19,2.84-1.24,5.46-4.28,7.38-2.5,1.58-6.21,1.54-8.71-.04-5.24-3.31-5.56-10.85-.62-14.42,3.23-2.33,7.33-2.24,10.38.25,2.33,1.91,3.09,4.25,3.24,6.82Z"/>
        <path class="cls-2" d="m106.4,64.31v-.84c0-6.33.01-12.67-.02-19,0-.76.24-1,.95-.95.72.05,1.45.06,2.17.01.7-.04.77.32.76.89-.01,5.72,0,11.43,0,17.15,0,.7-.02,1.4,0,2.09.01.46-.11.68-.63.66-1.04-.04-2.08-.01-3.23-.01Z"/>
        <path class="cls-2" d="m67.32,60.84c-.17-.06-.24-.09-.32-.12-.81-.35-1.61-.71-2.43-1.05-.43-.18-.55-.43-.35-.88,1.03-2.27,2.11-4.51,3.03-6.82.95-2.38,1.72-4.83,2.57-7.26.18-.5.36-1.01.46-1.53.11-.53.4-.59.81-.43.92.35,1.85.7,2.75,1.11.15.07.28.5.21.69-1.39,4.1-2.63,8.26-4.65,12.13-.61,1.16-1.11,2.38-1.67,3.56-.11.22-.29.41-.42.6Z"/>
        <path class="cls-2" d="m80.95,115.35c.51-1.25.97-2.41,1.47-3.55.07-.16.38-.29.57-.29,1.96-.02,3.91,0,5.87-.02.44,0,.63.15.62.6-.02.88.03,1.77-.02,2.65-.01.21-.29.58-.46.58-2.67.04-5.34.03-8.06.03Z"/>
        <path class="cls-2" d="m101.7,115.31h-8.41v-3.82c.3,0,.63,0,.96,0,1.74,0,3.48,0,5.22.02.25,0,.63.14.72.32.53,1.13,1,2.29,1.51,3.48Z"/>
        <path class="cls-2" d="m65.82,64.36c-.76,1.66-1.44,3.25-2.2,4.8-.4.81-1.55,1.07-2.39.65-.81-.4-1.21-1.38-.86-2.23.58-1.41,1.19-2.8,1.83-4.18.08-.18.48-.39.64-.34.99.38,1.95.84,2.98,1.3Z"/>
        <path class="cls-2" d="m110.26,70.36c0,.59.03,1.18,0,1.76-.06.91-.8,1.68-1.67,1.81-.83.12-1.84-.4-1.97-1.28-.2-1.39-.16-2.81-.19-4.23,0-.1.25-.28.38-.29,1.01-.03,2.03-.04,3.04,0,.14,0,.37.34.39.53.05.56.02,1.12.02,1.68h0Z"/>
        <path class="cls-2" d="m91.33,23.85c-.99-.89-1.76-1.77-1.86-3.08h3.75c-.22,1.34-.89,2.27-1.89,3.08Z"/>
      </g>
    </g>
  </g>
</svg>