<?xml version="1.0" encoding="UTF-8"?>
<svg id="Layer_2" data-name="Layer 2" xmlns="http://www.w3.org/2000/svg" viewBox="0 0 109.1 117.65">
  <defs>
    <style>
      .cls-1 {
        stroke: #0092ce;
        stroke-width: 1.97px;
      }

      .cls-1, .cls-2 {
        fill: none;
        stroke-linejoin: round;
      }

      .cls-3 {
        fill: #0092ce;
      }

      .cls-2 {
        stroke: #eb8467;
        stroke-width: 2.07px;
      }

      .cls-4 {
        fill: #eb8467;
      }
    </style>
  </defs>
  <g id="Layer_1-2" data-name="Layer 1">
    <g>
      <path class="cls-1" d="m26.25,33.74c2.19-2.27,4.31-4.54,5.93-7.21.35-.58.75-.84,1.44-.78,1.45.13,2.91.09,4.34.33.96.16,1.87.66,2.79,1.05.11.05.22.32.19.47-.72,4-1.14,8.03-1.14,12.1,0,6.43-.03,12.87.04,19.3.02,2.06.31,4.12.48,6.19.18,2.17.36,4.35.55,6.52.29,3.49.59,6.99.88,10.48.36,4.17.72,8.34,1.08,12.51.33,3.91.67,7.83.99,11.74.11,1.27.17,2.55.28,3.82.27,3.13-2.11,5.81-5.11,6.31-2.82.47-5.6-.99-6.73-3.63-.37-.85-.49-1.84-.58-2.78-.32-3.43-.59-6.86-.87-10.29-.16-1.93-.29-3.87-.45-5.8-.26-3.11-.53-6.22-.79-9.32-.34-4.04-.68-8.08-1.02-12.13-.15-1.82-.32-3.64-.46-5.46-.03-.42-.17-.58-.62-.57-.97.04-1.94.01-2.98.01-.06.42-.14.82-.17,1.23-.27,3.3-.53,6.6-.81,9.91-.3,3.56-.63,7.11-.94,10.67-.21,2.46-.41,4.93-.61,7.39-.26,3.22-.52,6.44-.78,9.66-.17,2-.28,4-.55,5.98-.36,2.64-2.41,4.65-5.02,5.1-3.31.58-6.54-1.62-7.16-4.92-.12-.61-.1-1.26-.05-1.88.37-4.59.76-9.18,1.14-13.77.37-4.43.72-8.86,1.1-13.29.33-3.85.7-7.69,1.02-11.54.26-3.09.45-6.19.73-9.28.55-5.99.16-11.99.27-17.98.03-1.6,0-3.2,0-4.8,0-3.48-.4-6.93-.92-10.37-.03-.18-.04-.35-.07-.53-.16-1-.15-.97.73-1.44,1.74-.92,3.63-.9,5.52-1.02,1.33-.08,2.14.3,2.86,1.5,1.43,2.37,3.35,4.39,5.3,6.35.04.04.1.08.18.14Z"/>
      <path class="cls-2" d="m37.56,12.06c-.06,4.98-3.57,9.31-8.6,10.54-5.75,1.41-11.72-1.72-13.5-7.35-1.36-4.31-.23-8.57,3.61-11.69,1.86-1.51,4.02-2.37,6.39-2.51,5.68-.33,10.45,3.29,11.75,8.37.22.85.24,1.75.35,2.63Z"/>
      <path class="cls-1" d="m9.84,28.39c.2,1.54.44,2.91.56,4.29.21,2.53.32,5.06.54,7.59.11,1.31-.25,2.52-.52,3.76-.62,2.88-1.03,5.79-1.13,8.73-.1,3.07-.2,6.13-.21,9.2,0,1.9.09,3.81.27,5.71.27,2.85-1.5,4.29-3.15,4.66-2.35.54-4.67-1.06-4.85-3.48-.32-4.17-.45-8.36-.3-12.55.08-2.31.22-4.62.47-6.91.54-4.95,1.35-9.85,3.48-14.43,1.04-2.24,2.31-4.33,4.17-6.01.18-.17.38-.32.68-.56Z"/>
      <path class="cls-1" d="m42.59,28.41c.23.17.41.28.56.42,2.15,1.96,3.57,4.39,4.71,7.03,1.12,2.61,1.83,5.34,2.31,8.13,1.13,6.6,1.49,13.26,1.2,19.95-.07,1.71-.11,3.43-.31,5.13-.24,2.11-2.19,3.56-4.32,3.37-2.04-.18-3.67-1.97-3.61-4.04.07-2.36.24-4.71.3-7.07.1-3.79-.08-7.57-.45-11.33-.24-2.49-.63-4.96-1.26-7.39-.23-.9-.2-1.89-.15-2.84.15-2.64.34-5.29.56-7.93.09-1.1.29-2.2.46-3.43Z"/>
      <path class="cls-3" d="m95.29,39.61c-.08,9.63-7.74,17.42-17.46,17.41-9.73,0-17.43-7.96-17.43-17.45,0-9.7,8.17-17.4,17.32-17.42,9.84-.02,17.58,8.08,17.57,17.46Zm-17.36-16.19c-9.17-.02-16.12,7.33-16.21,15.95-.1,9.68,7.77,16.38,16.11,16.38,8.37,0,16.2-6.67,16.15-16.33-.05-8.86-7.24-15.95-16.05-16Z"/>
      <path class="cls-4" d="m75.92,43.29c1.34.67,2.62.64,4.02-.04,1.66,2.87,3.35,5.77,5.1,8.79-1.17.41-2.26.84-3.38,1.17-3.64,1.07-7.11.52-10.47-1.14-.4-.2-.2-.39-.07-.61,1.29-2.2,2.59-4.39,3.89-6.59.3-.51.59-1.03.91-1.58Z"/>
      <path class="cls-4" d="m80.02,35.82c1.52-2.63,3.02-5.22,4.52-7.82.53-.92.44-.77,1.17-.25,3.46,2.48,5.5,5.83,6.19,10.02.06.4.06.81.13,1.2.08.44-.09.53-.49.52-2.26-.04-4.52-.05-6.78-.08-.79,0-1.58-.02-2.37-.02-.24,0-.42-.03-.42-.33,0-1.27-.74-2.12-1.6-2.92-.09-.09-.2-.17-.29-.26-.03-.03-.05-.08-.05-.08Z"/>
      <path class="cls-4" d="m75.73,36.02c-1.22.7-1.71,1.8-1.93,3.05-.07.39-.22.48-.6.48-3-.02-6-.02-9.01-.02-.16,0-.31,0-.58,0,.14-.95.23-1.85.42-2.72.86-3.99,3.12-7.02,6.45-9.31.29-.2.38-.07.51.16,1.38,2.46,2.77,4.92,4.16,7.37.18.32.37.64.58.99Z"/>
      <path class="cls-3" d="m75.13,39.75c-.01-1.43,1.22-2.7,2.66-2.73,1.42-.03,2.78,1.3,2.79,2.74.01,1.41-1.32,2.75-2.74,2.73-1.14-.02-2.74-1.01-2.72-2.74Z"/>
      <path class="cls-3" d="m98.55,92.33s4.54,16.28,4.56,16.28c.13.48.28.95.38,1.44.05.21.12.27.32.27,1.41-.01,2.81,0,4.22-.01.14,0,.27,0,.41.01.37.03.63.3.66.67.03.35-.19.66-.53.75-.13.03-.27.03-.4.03-15.38,0-30.77,0-46.15,0-3.08,0-6.16,0-9.24,0-.12,0-.25,0-.37,0-.38-.03-.68-.35-.68-.73,0-.37.3-.7.68-.72.24-.02.48-.01.72-.01,2.98,0,5.95,0,8.93,0,.16,0,.29.01.29-.21,0-1.2,0-2.41,0-3.66-.4,0-.76,0-1.12,0-1.14,0-1.27-.13-1.27-1.28,0-1.18,0-2.37,0-3.55,0-.68.27-.95.95-.95,4.65,0,9.31,0,13.96,0,.35,0,.7.07,1.05.13.09.02.19.11.22.2.07.2.15.42.16.63.01,1.3,0,2.6,0,3.9,0,.54-.15.75-.67.82-.55.08-1.11.09-1.7.14,0,.07-.02.16-.02.25,0,1.1,0,2.2,0,3.3,0,.19.03.29.25.29,1.37,0,2.75,0,4.12,0,.1,0,.2-.02.33-.02,0-.34,0-.65,0-.96,0-2.08,0-4.17,0-6.25,0-.62.22-.87.84-.94.32-.03.65-.02.96-.07,1.56-.23,2.56-1.21,3.3-2.52.32-.57.46-1.16.46-1.83-.02-5.44-.01-10.87-.01-16.31,0-.1,0-.2,0-.33h-10.8c0,.53.04,1.07-.01,1.59-.03.34-.15.69-.33.98-.28.46-.76.65-1.28.65-2.4,0-4.81.01-7.21,0-.97,0-1.62-.66-1.65-1.64-.02-.52,0-1.04,0-1.62-.54,0-1.05.04-1.55,0-1.41-.14-2.51-1.39-2.51-2.82,0-1.73.05-3.46-.02-5.19-.05-1.43.99-3.12,3.08-3.1,2.22.02,4.43,0,6.65,0,5.45,0,10.91,0,16.36,0,1.46,0,2.81.32,4.18.86,1.9.75,3.22,2.06,4.16,3.81.29.55.45,1.17.66,1.75.03.07,4.66,16.13,4.68,15.97Zm-18.5,11.23v6.72h21.72c-1.07-4.12-8.68-31.18-9.07-32.76-.57-2.34-1.63-4.26-3.96-5.28-1.1-.48-2.21-.82-3.39-.82-7.85-.01-15.7,0-23.54,0-.06,0-.13,0-.19,0-.64.05-1.21.45-1.29,1.04-.08.58-.02,1.18-.02,1.77.08,0,.13,0,.18,0,8.09,0,16.17,0,24.26,0,.16,0,.31,0,.47.01.37.05.65.37.65.73,0,.38-.3.69-.69.71-.27.02-.54,0-.81,0-7.93,0-15.86,0-23.79,0-.09,0-.18.01-.28.02,0,.89-.02,1.75,0,2.61.02.65.59,1.22,1.25,1.27.2.01.4.01.59.01,7.59,0,15.18,0,22.76,0,.74,0,1,.26.99,1,0,5.8,0,11.61,0,17.41,0,.7-.17,1.32-.49,1.92-.12.23-.24.47-.39.68-.07.1-.21.16-.31.24-1.13,1.62-2.66,2.53-4.66,2.72Zm-18.64,1.35h13.1v-2.78c-.29,0-.57,0-.85,0-2.65,0-5.31,0-7.96,0-1.33,0-2.66,0-4,0-.14,0-.3-.04-.3.2,0,.86,0,1.71,0,2.58Zm2.41,1.54s-.03.05-.03.07c0,1.19,0,2.39,0,3.58,0,.23.13.21.29.21,2.66,0,5.33,0,7.99,0,.3,0,.36-.1.36-.38-.01-.97,0-1.95,0-2.92,0-.18,0-.37,0-.57h-8.59Zm.52-23.66h7.55c0-.53,0-1.04-.01-1.55,0-.06-.15-.16-.23-.16-2.27,0-4.53,0-6.8,0-.17,0-.34,0-.51,0v1.71Z"/>
      <path class="cls-4" d="m64.2,93.75c-.23-.68-.34-1.33-.23-2.01.23-1.38.94-2.44,2.23-2.96,1.66-.67,3.28-.64,4.65.74.04.04,1.28,1.15,1.32,3.76,0,.48-.12.47.36.61,1.78.52,2.98,2.16,2.94,4.01-.02.81-.62,1.49-1.42,1.57-.31.03-.62.02-.93.02-3.65,0-7.3,0-10.96,0-1.07,0-1.8-.88-1.67-2.03.11-.99.45-1.92,1.24-2.52.63-.47,1.42-.74,2.13-1.09.09-.04.2-.06.33-.1Zm3.87,4.27h0c1.84,0,3.68,0,5.52,0,.4,0,.46-.05.43-.35-.13-1.43-1.25-2.63-3.1-2.47-.09,0-.2.07-.27.13-1.43,1.35-3.89,1.08-5.26.04-.14-.1-.34-.17-.51-.17-1.36,0-2.47.98-2.67,2.34-.07.49-.07.49.43.49,1.81,0,3.62,0,5.43,0Zm-2.67-5.95c0,.91.25,1.47.67,1.99.28.34.66.55,1.01.64.91.21,1.69.17,2.44-.36.83-.6,1.2-1.44,1.01-2.47-.18-.95-.71-1.64-1.67-1.93-1.06-.31-2,0-2.79.69-.47.41-.67,1.02-.66,1.43Z"/>
    </g>
  </g>
</svg>