<?xml version="1.0" encoding="UTF-8"?>
<svg id="Layer_2" data-name="Layer 2" xmlns="http://www.w3.org/2000/svg" viewBox="0 0 90.27 116.28">
  <defs>
    <style>
      .cls-1 {
        stroke: #0092ce;
        stroke-width: 1.54px;
      }

      .cls-1, .cls-2 {
        fill: none;
        stroke-linejoin: round;
      }

      .cls-3 {
        fill: #0092ce;
      }

      .cls-2 {
        stroke: #eb8467;
        stroke-width: 1.72px;
      }

      .cls-4 {
        fill: #eb8467;
      }
    </style>
  </defs>
  <g id="Layer_1-2" data-name="Layer 1">
    <g>
      <g>
        <path class="cls-1" d="m59.14,32.16h-3.84v8.42c-1.67-.19-4.44.3-4.37-.27-.14-.06-.18-8.08.54-10.95.57-2.26,3.55-3.55,5.66-4.53,2.53-1.17,5.08-2.29,7.68-3.46.1.31.14.55.25.75.53,1.04.94,2.19,1.66,3.09,1,1.25,2.25,2.31,3.38,3.46.31.32.58.3.89,0,1.15-1.17,2.42-2.24,3.44-3.52.69-.87,1.09-2,1.51-3.06.19-.47.33-.62.79-.42,3.01,1.36,6.05,2.67,9.03,4.08,2.71,1.28,3.63,3.69,3.7,6.5.05,2.26.02,4.52.04,6.79,0,.48-.18.68-.67.66-.83-.03-1.67-.05-2.5,0-.6.03-.72-.23-.71-.76.02-2.23,0-4.47,0-6.76h-3.75c0,.49,0,.99,0,1.49,0,7.27,0,14.54.01,21.82,0,1.24.01,1.24-1.19,1.24-6.89,0-13.78,0-20.68,0-.26,0-.53-.02-.87-.04v-24.52Z"/>
        <path class="cls-1" d="m72.39,107.85c0-1.47,0-2.81,0-4.16,0-11.61,0-23.22,0-34.83,0-.55-.11-.78-.7-.76-.99.04-1.98.01-3.03.01-.02.25-.05.46-.05.66,0,12.74,0,25.48.03,38.22,0,.71-.22.95-.93.93-1.67-.05-3.34-.08-5.01-.02-.73.03-.91-.23-.95-.9-.27-3.81-.57-7.62-.86-11.44-.36-4.75-.65-9.51-1.08-14.26-.61-6.79-.83-13.6-.7-20.41,0-.08.02-.15.05-.31h22.63c.03.17.08.35.08.52,0,3.5.08,7-.03,10.5-.1,3.12-.41,6.23-.65,9.35-.4,5.23-.82,10.47-1.23,15.7-.28,3.54-.54,7.09-.83,10.63-.02.2-.27.53-.42.53-2.09.04-4.18.02-6.33.02Z"/>
        <path class="cls-2" d="m78.91,9.44c-.19,2.78-1.21,5.34-4.2,7.23-2.45,1.55-6.08,1.51-8.53-.04-5.13-3.24-5.45-10.62-.61-14.12,3.16-2.28,7.18-2.19,10.16.25,2.28,1.87,3.02,4.16,3.17,6.68Z"/>
        <path class="cls-1" d="m85.61,64.3v-.85c0-6.35.01-12.71-.02-19.06,0-.76.24-1,.96-.95.72.05,1.46.06,2.18.01.71-.04.77.32.77.89-.01,5.74,0,11.47,0,17.21,0,.7-.02,1.4,0,2.1.01.46-.11.69-.64.67-1.04-.04-2.09-.01-3.24-.01Z"/>
        <path class="cls-1" d="m60.08,115.51c.51-1.25.97-2.42,1.48-3.56.07-.16.38-.29.58-.29,1.96-.02,3.93,0,5.89-.02.44,0,.63.15.62.61-.02.89.03,1.78-.02,2.66-.01.21-.3.58-.46.58-2.68.04-5.35.03-8.08.03Z"/>
        <path class="cls-1" d="m80.9,115.47h-8.44v-3.83c.3,0,.63,0,.97,0,1.75,0,3.49,0,5.24.02.25,0,.63.14.72.32.53,1.13,1,2.29,1.51,3.49Z"/>
        <path class="cls-1" d="m89.48,70.37c0,.59.03,1.18,0,1.77-.06.91-.81,1.69-1.67,1.81-.83.12-1.85-.4-1.97-1.28-.2-1.39-.16-2.82-.19-4.24,0-.1.25-.28.39-.29,1.02-.03,2.04-.04,3.05,0,.14,0,.37.34.39.53.05.56.02,1.13.02,1.69h0Z"/>
        <path class="cls-1" d="m50.94,64.76v-.85c0-6.35.01-12.71-.02-19.06,0-.76.24-1,.96-.95.72.05,1.46.06,2.18.01.71-.04.77.32.77.89-.01,5.74,0,11.47,0,17.21,0,.7-.02,1.4,0,2.1.01.46-.11.69-.64.67-1.04-.04-2.09-.01-3.24-.01Z"/>
        <path class="cls-1" d="m54.81,70.82c0,.59.03,1.18,0,1.77-.06.91-.81,1.69-1.67,1.81-.83.12-1.85-.4-1.97-1.28-.2-1.39-.16-2.82-.19-4.24,0-.1.25-.28.39-.29,1.02-.03,2.04-.04,3.05,0,.14,0,.37.34.39.53.05.56.02,1.13.02,1.69h0Z"/>
        <path class="cls-1" d="m70.5,23.7c-.99-.9-1.77-1.78-1.87-3.09h3.77c-.22,1.35-.89,2.28-1.9,3.09Z"/>
      </g>
      <g>
        <path class="cls-3" d="m.02,32.47c0-.4,0-.66,0-.92,0-6.63.01-13.26-.02-19.89,0-.68.19-.84.84-.84,11.12.02,22.24.01,33.36.01.24,0,.47.02.75.03v21.57h-16.66v5.16c.26.01.52.04.77.04,2.74,0,5.48,0,8.21,0,1.91,0,2.71.8,2.71,2.72,0,6.08.01,12.15-.02,18.23,0,.72.21.89.89.87,1.41-.05,2.82-.01,4.31-.01,0-1.21,0-2.34,0-3.46,0-.24,0-.48,0-.72.02-.5.24-.83.79-.82.52.01.71.35.71.81.01,1.13,0,2.26,0,3.39,0,.24,0,.47,0,.69.62.28,1.68-.21,1.62.91-.05.96-.97.6-1.63.75,0,.29,0,.57,0,.85,0,3.24,0,6.48,0,9.73,0,6.35-4.58,11.03-10.93,11.15-.23,0-.46,0-.73,0v18.56c.26,0,.52,0,.77,0,1.49,0,2.98-.02,4.47,0,1.87.03,3.05,1.22,3.07,3.08.01,1.25-.03,2.5.02,3.75.01.36.18.79.43,1.06,1.18,1.27,1.54,2.72.96,4.32-.58,1.61-1.79,2.52-3.52,2.66-1.56.13-2.83-.47-3.7-1.76-.91-1.35-.95-2.78-.23-4.23.08-.17.19-.33.28-.5,0-.02,0-.04,0-.13H7.6c.2.89.54,1.79.57,2.71.07,1.8-1.27,3.37-3.03,3.82-1.82.46-3.69-.34-4.61-1.97-.87-1.54-.62-3.55.64-4.79.39-.38.55-.77.54-1.32-.04-1.2-.02-2.4-.01-3.6,0-1.86,1.19-3.06,3.06-3.09,1.73-.02,3.45,0,5.24,0v-38.65h-4.91c-.02-.32-.05-.55-.05-.78,0-7.25,0-14.51,0-21.76,0-1.56.88-2.44,2.48-2.45,2.81-.02,5.62,0,8.43,0,.26,0,.52,0,.82,0v-5.17H.02ZM33.48,12.41H1.59v18.5h31.89V12.41ZM11.6,62.66v38.57h11.83v-18.5c-.3,0-.55,0-.81,0-1.63,0-3.27,0-4.9,0-.5,0-.93-.14-.92-.76,0-.62.42-.73.93-.73,1.18,0,2.35,0,3.53,0,.71,0,1.43,0,2.16,0v-18.58h-11.82Zm1.78-1.59c0-.35,0-.61,0-.87,0-2.09,0-4.18,0-6.27,0-.55.03-1.13.75-1.16.76-.02.76.55.76,1.11,0,2.14,0,4.27,0,6.41,0,.25.02.51.04.75h5.2c0-.34,0-.63,0-.91,0-2.19,0-4.37,0-6.56,0-.48.18-.81.7-.82.49-.01.75.27.78.75.01.19.01.38.01.58,0,2.07,0,4.13,0,6.2,0,.25,0,.51,0,.78h6.87c0-.29,0-.55,0-.81,0-6.6,0-13.21,0-19.81,0-1.15-.14-1.28-1.28-1.28-6.46,0-12.92,0-19.38,0-1.17,0-1.29.12-1.29,1.27,0,6.63,0,13.26,0,19.88,0,.25.03.5.04.75h6.8Zm21.79-.1h-5.14c-.02.54-.05,1.06-.07,1.67h-4.9v18.63c.66-.04,1.26-.06,1.85-.12,4.59-.45,8.26-4.49,8.27-9.11,0-3.41,0-6.82,0-10.22,0-.26,0-.52,0-.84Zm-3.34,47.04c0-1.36.04-2.63-.01-3.9-.03-.69-.46-1.15-1.16-1.27-.33-.06-.67-.05-1-.05-8.17,0-16.33,0-24.5,0-.26,0-.53.01-.79.06-.61.1-1.08.47-1.1,1.07-.06,1.36-.02,2.72-.02,4.09h28.59Zm-30.31,4.11c.02,1.42,1.22,2.6,2.63,2.59,1.41-.02,2.58-1.23,2.56-2.65-.02-1.37-1.22-2.55-2.59-2.56-1.4,0-2.61,1.21-2.59,2.62Zm29.33,2.58c1.39.04,2.65-1.17,2.67-2.57.02-1.35-1.18-2.59-2.55-2.63-1.38-.04-2.61,1.13-2.64,2.51-.03,1.46,1.08,2.65,2.52,2.69Z"/>
        <path class="cls-4" d="m25.5,25.15c-.27.21-.54.59-.79.57-.27-.02-.66-.38-.73-.66-.12-.45.22-.82.69-.76.29.03.55.34.83.52,0,.11,0,.22,0,.33Z"/>
        <path class="cls-4" d="m18.8,19.16c-.21-.27-.54-.52-.58-.81-.06-.44.25-.84.73-.73.28.07.65.44.68.71.03.25-.32.55-.51.83-.11,0-.21,0-.32,0Z"/>
        <path class="cls-4" d="m19.78,25.22c-.29.18-.56.49-.87.52-.48.06-.8-.33-.68-.78.08-.28.48-.62.75-.63.26-.01.54.36.81.57,0,.1-.01.21-.02.31Z"/>
        <path class="cls-4" d="m22.87,18.33c-.5.34-.76.64-1.07.7-.42.08-.73-.22-.74-.67,0-.48.29-.81.76-.74.3.05.56.37,1.05.72Z"/>
        <path class="cls-4" d="m21.67,25.88c-.21-.27-.54-.53-.59-.82-.08-.45.25-.84.72-.73.29.07.66.43.7.7.03.26-.33.56-.52.85-.1,0-.21,0-.31,0Z"/>
        <path class="cls-4" d="m28.36,18.51c-.28.18-.59.54-.83.5-.28-.05-.67-.41-.72-.69-.08-.44.27-.81.75-.71.3.06.54.36.81.56,0,.11,0,.23,0,.34Z"/>
        <path class="cls-4" d="m13.31,17.47c.21.26.53.51.59.8.09.46-.22.77-.7.78-.45,0-.76-.27-.69-.71.05-.3.31-.57.48-.86.11,0,.22-.01.33-.02Z"/>
        <path class="cls-4" d="m16.91,25.17c-.27.2-.52.52-.82.57-.47.08-.75-.27-.76-.74,0-.44.27-.77.72-.69.3.06.57.34.85.52,0,.11,0,.22,0,.33Z"/>
        <path class="cls-4" d="m12.36,24.85c.27-.19.56-.55.81-.52.28.03.67.38.73.66.09.43-.24.82-.71.75-.3-.04-.55-.36-.83-.55,0-.11,0-.23,0-.34Z"/>
        <path class="cls-4" d="m10.21,25.89c-.2-.27-.52-.52-.58-.82-.1-.48.26-.83.71-.74.28.05.65.43.69.7.03.26-.31.57-.49.86-.11,0-.21,0-.32.01Z"/>
        <path class="cls-4" d="m8.31,25.17c-.27.2-.53.52-.83.57-.46.08-.83-.28-.72-.73.06-.28.44-.65.71-.68.25-.03.55.33.83.52,0,.11,0,.22,0,.32Z"/>
        <path class="cls-4" d="m25.49,18.52c-.28.18-.54.47-.84.51-.41.05-.72-.21-.71-.69.01-.49.29-.81.76-.72.29.05.53.36.8.56,0,.12,0,.23-.01.35Z"/>
        <path class="cls-4" d="m16.28,17.48c.17.28.51.6.47.85-.05.27-.42.64-.7.69-.46.08-.78-.3-.69-.76.06-.29.37-.54.57-.8.11,0,.22.01.34.02Z"/>
        <path class="cls-4" d="m11.19,18.47c-.28.19-.53.48-.84.55-.43.09-.74-.19-.75-.65-.01-.47.25-.83.73-.75.3.05.57.35.85.53,0,.11,0,.22,0,.33Z"/>
        <path class="cls-4" d="m8.31,18.47c-.27.19-.56.55-.81.53-.28-.03-.71-.39-.73-.64-.02-.24.37-.7.62-.73.28-.03.6.31.91.48,0,.12,0,.24.01.35Z"/>
        <path class="cls-4" d="m28.37,25.18c-.27.2-.53.52-.82.56-.46.07-.77-.26-.75-.75.01-.45.31-.76.74-.69.3.05.56.35.84.53,0,.11,0,.22,0,.34Z"/>
        <path class="cls-4" d="m17.52,45.83c-1.08,0-2.15-.01-3.23,0-.53,0-.85-.23-.85-.74,0-.48.32-.71.81-.71,2.18,0,4.36,0,6.53,0,.48,0,.79.21.81.71.01.55-.32.74-.84.74-1.08,0-2.15,0-3.23,0Z"/>
      </g>
    </g>
  </g>
</svg>