<?xml version="1.0" encoding="UTF-8"?>
<svg id="Layer_2" data-name="Layer 2" xmlns="http://www.w3.org/2000/svg" viewBox="0 0 84.12 112.19">
  <defs>
    <style>
      .cls-1 {
        stroke-width: .81px;
      }

      .cls-1, .cls-2, .cls-3 {
        fill: none;
        stroke-linejoin: round;
      }

      .cls-1, .cls-3 {
        stroke: #0092ce;
      }

      .cls-2 {
        stroke: #eb8467;
      }

      .cls-2, .cls-3 {
        stroke-width: 1.62px;
      }
    </style>
  </defs>
  <g id="Layer_1-2" data-name="Layer 1">
    <g>
      <path class="cls-3" d="m6.65,26.3c-.37.4-.7.83-1.11,1.19-1.49,1.31-2.02,3.1-2.15,4.93-.11,1.72.57,3.35,1.63,4.74.97,1.29,2,2.53,3.04,3.77.65.78,1.39,1.49,2.04,2.26.71.85,1.34,1.75,2.04,2.61.56.69,1.15,1.35,1.73,2.03.41.47.84.93,1.23,1.42.7.86,1.29,1.84,2.08,2.59,1.28,1.2,2.83,1.97,4.68,2.16,0,.37,0,.74,0,1.1,0,17.37,0,34.74,0,52.1,0,2.26-.97,3.79-2.89,4.07-1.26.18-2.59.24-3.85-.24-.93-.36-1.88-1.93-1.88-3.08,0-5.09,0-10.19,0-15.28,0-7.45-.01-14.9.02-22.35,0-.74-.18-1.01-.94-.93-.69.07-1.39.04-2.09.02-.52-.02-.74.2-.71.72.01.21,0,.43,0,.64,0,12.11,0,24.23,0,36.34,0,.84,0,1.66-.45,2.47-.62,1.12-1.65,1.7-2.73,1.75-1.2.05-2.49.24-3.68-.4-1.16-.62-1.9-1.8-1.79-3.09.04-.51.01-1.02.01-1.53,0-24.61.02-49.21-.04-73.81,0-1.71.41-3.1,1.46-4.37.86-1.04,2-1.58,3.32-1.8.32-.05.63-.14.95-.21.02.07.05.13.07.2Z"/>
      <path class="cls-3" d="m83.23,54.32c0,.68,0,1.35,0,2.03,0,16.61,0,33.23,0,49.84,0,.8.07,1.59.05,2.39-.04,1.77-1.25,2.81-3.02,2.74-.84-.03-1.68.07-2.4-.52-.73-.6-1.29-1.26-1.05-2.3.05-.2.01-.43.01-.64,0-8.95,0-17.9,0-26.85,0-.24,0-.47,0-.78h-2.68c0,.28,0,.56,0,.85,0,9.03-.03,18.06.02,27.09,0,1.85-1.43,3.31-3.2,3.12-.69-.07-1.41-.12-2.07-.33-.94-.3-1.28-1.08-1.28-2.02-.02-9.7-.03-19.4-.04-29.1,0-3.16,0-6.32,0-9.48,0-.4.03-.7.54-.66,1.86.17,3.31-.7,4.53-1.93.95-.96,1.72-2.09,2.6-3.12.69-.8,1.45-1.54,2.15-2.34.62-.71,1.21-1.44,1.79-2.18.64-.81,1.19-1.71,1.91-2.44.82-.83,1.35-1.78,1.75-2.84.08-.2.18-.39.28-.59.04.02.07.03.11.05Z"/>
      <path class="cls-3" d="m10.16,27.93c.68,0,1.37-.07,2.04.02.92.12,1.56.77,2.14,1.44.88,1.02,1.72,2.07,2.6,3.09.66.75,1.39,1.44,2.03,2.21.94,1.14,1.81,2.33,2.72,3.49.57.72,1.13,1.47,1.8,2.09.17.16.8-.04,1.14-.23,1.35-.75,2.67-1.58,4.01-2.36,1.82-1.06,3.64-2.11,5.48-3.13.94-.52,1.87-1.13,2.88-1.44,1.76-.54,3.42-.28,4.81,1.05,1.4,1.34,1.6,2.93,1.29,4.65-.22,1.23-1.03,2.13-2.1,2.77-1.32.78-2.63,1.58-3.96,2.34-1.88,1.07-3.77,2.11-5.65,3.19-2.07,1.19-4.15,2.36-6.19,3.61-1.76,1.08-4.29.82-5.75-.72-1.09-1.15-2.19-2.3-3.22-3.51-.7-.81-1.27-1.73-1.95-2.55-.67-.8-1.43-1.53-2.11-2.33-.67-.78-1.28-1.61-1.92-2.41-.62-.76-1.22-1.54-1.88-2.26-1.07-1.17-2.12-2.38-2.2-4.04-.04-.78.15-1.65.5-2.35.71-1.41,1.85-2.39,3.49-2.62Z"/>
      <path class="cls-2" d="m12.81,23.03c-3.21.47-6.05-.42-8.46-2.47-2.09-1.79-3.36-4.17-3.52-6.93C.37,5.59,6.67,2.12,10.64,2.01c7.65-.22,10.91,5.64,11.22,9.27.26,2.99-.32,5.81-2.37,8.11-1.78,1.98-3.94,3.4-6.69,3.65Z"/>
      <path class="cls-3" d="m52.79,56.85c.05-2,.96-3.29,2.62-3.6.78-.14,1.61-.22,2.42.28,1.47.91,3.06,1.63,4.57,2.48,1.33.74,2.62,1.55,3.92,2.34.79.48,1.03.39,1.63-.38.61-.79,1.34-1.47,1.99-2.23.7-.81,1.36-1.65,2.04-2.47.42-.5.85-.98,1.28-1.47.43-.49.83-.99,1.28-1.46,1.29-1.37,3.6-1.28,4.82.17,1.47,1.75,1.48,3.16.02,4.93-1.32,1.6-2.64,3.2-3.96,4.79-1.38,1.65-2.81,3.27-4.13,4.97-.4.51-.73.94-1.34,1.26-1.63.85-3.08.51-4.53-.37-1.67-1.01-3.33-2.04-5.02-3.01-1.95-1.12-3.96-2.13-5.87-3.31-1.08-.67-2.01-1.59-1.73-2.92Z"/>
      <path class="cls-2" d="m75.4,29.17c4.55.14,7.64,3.4,7.88,7.05.38,5.67-3.61,8.28-6.47,8.71-2.47.38-4.74-.19-6.63-1.82-1.46-1.26-2.46-2.89-2.61-4.86-.47-6.21,4.04-9,7.82-9.08Z"/>
      <path class="cls-2" d="m46.62,21.22c-.47,1.13-1.03,2.24-1.71,3.26-.59.88-1.37,1.64-2.14,2.38-.52.51-1.11.98-1.75,1.33-.58.32-1.26.6-1.89.59-.42,0-1.04-.46-1.19-.86-.17-.45-.1-1.23.2-1.57.56-.64,1.31-1.16,2.07-1.56.87-.77,1.8-1.71,2.33-2.76.8-1.57,1.19-3.02,1.58-4.73.29-1.25.33-2.86.31-4.17-.02-1.47-.42-2.87-1-4.2-.4-.9-.6-1.02-1.09-1.89-.69-1.22-2.22-2.59-3.4-3.23-.54-.29-.81-1.53-.43-2.1.45-.68,1.14-1.16,1.96-.74,1.45.76,2.66,1.75,3.77,3.04,6.09,7.12,3.13,15.36,2.37,17.2Z"/>
      <path class="cls-2" d="m38.88,19.16c-.41,1.09-1.01,2.13-1.66,3.1-.81,1.2-1.91,2.15-3.24,2.76-.77.35-1.85.06-2.15-.51-.44-.85-.2-1.98.75-2.43,1.65-.78,2.49-2.23,3.18-3.72.55-1.17.69-2.53.69-3.89-.01-1.75-.49-3.32-1.36-4.81-.54-.93-1.18-1.74-2.17-2.28-1.11-.6-1.35-2.03-.07-2.85.38-.24,1.16-.14,1.62.08,2.71,1.31,4,3.72,4.79,6.47.18.61.95,4.56-.38,8.07Z"/>
      <path class="cls-2" d="m27.58,6.83c1.02.22,2.03.87,2.62,1.84,3.4,4.78,1.14,10.07.24,11.35-.68.96-1.53,1.85-2.68,2.35-.82.36-1.79.09-2.19-.68-.33-.63,0-1.83.64-2.17,1.21-.63,1.91-1.61,2.32-2.9.55-1.73.39-3.4-.29-5.02-.33-.79-.87-1.48-1.73-1.82-.74-.29-.85-1-.73-1.58.1-.47.22-1.41,1.81-1.36Z"/>
      <path class="cls-1" d="m15.32,26.2c3.85-.51,7.45,3.02,6.39,7.54-2.16-2.55-4.26-5.03-6.39-7.54Z"/>
      <path class="cls-1" d="m72.76,47.99c-1.71,2.07-3.36,4.08-5.07,6.15-.71-3.42,1.03-6.85,5.07-6.15Z"/>
    </g>
  </g>
</svg>