<?xml version="1.0" encoding="UTF-8"?>
<svg id="Layer_2" data-name="Layer 2" xmlns="http://www.w3.org/2000/svg" viewBox="0 0 120.75 110.35">
  <defs>
    <style>
      .cls-1, .cls-2, .cls-3 {
        fill: none;
        stroke-linejoin: round;
      }

      .cls-1, .cls-3 {
        stroke: #eb8467;
      }

      .cls-4 {
        fill: #eb8467;
      }

      .cls-2 {
        stroke: #0092ce;
      }

      .cls-2, .cls-3 {
        stroke-width: 1.8px;
      }
    </style>
  </defs>
  <g id="Layer_1-2" data-name="Layer 1">
    <g>
      <path class="cls-2" d="m119.85,51.22c-1.57,4.76-4.56,8.7-7.47,12.67-3.83,5.22-8.26,9.89-13.31,13.96-5.73,4.62-12.03,8.22-19.08,10.42-2.98.92-6.02,1.56-9.13,1.89-.66.07-1.32.15-1.98.22-.02-.05-.03-.11-.05-.16.45-.31.89-.63,1.34-.94,4.43-3.09,8.72-6.38,12.76-9.96,3.74-3.32,7.26-6.85,10.2-10.94.23-.31.49-.61.66-.95.87-1.67,2.15-3,3.45-4.34,3.35-3.43,6.25-7.23,8.8-11.29.84-1.34,1.62-2.72,2.4-4.1,1.25-2.22,3.14-3.35,5.67-3.23,2.51.12,4.27,1.44,5.24,3.77.12.3.16.64.26.94.04.11.16.19.24.29v1.74Z"/>
      <path class="cls-2" d="m5.06,91.21c.93.04,1.81.12,2.7.12,12.37,0,24.75,0,37.12,0,3.72,0,7.44-.01,11.15.02.3,0,.62.24.89.44,1.12.82,2.18,1.72,3.34,2.48.84.56,1.75.44,2.62-.14,1.32-.88,2.65-1.74,4-2.58.25-.15.57-.24.87-.26,3.75-.25,7.46-.78,11.08-1.81,3.79-1.07,7.44-2.48,10.89-4.39.63-.35,1.25-.53,1.98-.52,6.27.02,12.55,0,18.82,0,1.63,0,2.25.63,2.25,2.24,0,5.03,0,10.07,0,15.1,0,.29,0,.58,0,.87-.03,1.1-.67,1.78-1.77,1.82-1.04.04-2.08,0-3.21,0,0,.73,0,1.44,0,2.15,0,1.17-.66,1.86-1.82,1.86-3.68,0-7.36,0-11.04,0-1.13,0-1.8-.68-1.82-1.81-.01-.56-.01-1.12.01-1.68.02-.4-.12-.54-.54-.54-6.66.01-13.32.01-19.98.01-8.44,0-16.88,0-25.32,0-2.57,0-5.15,0-7.72-.02-.37,0-.5.14-.57.49-.33,1.64-1.29,2.81-2.73,3.63-1.58.89-3.13,1.04-4.79.17-1.6-.84-2.65-2.04-3.03-3.8-.07-.35-.19-.49-.56-.48-.87.02-1.74,0-2.61-.01-.32,0-.46.08-.46.42.01.6,0,1.2,0,1.8-.02,1.09-.73,1.83-1.83,1.83-3.7,0-7.4,0-11.1,0-1,0-1.63-.57-1.74-1.58-.07-.63-.07-1.28-.04-1.91.02-.42-.14-.55-.53-.54-.81.01-1.63.02-2.44.01-1.33-.02-1.96-.55-1.99-1.88-.06-3.39-.05-6.77-.06-10.16,0-.44,0-.88,0-1.35Z"/>
      <path class="cls-2" d="m59.8,57.06c.7-.93.97-1.95.9-3.16.66.1,1.26.24,1.87.27,1.23.07,2.47.15,3.69.07.53-.04,1.03-.48,1.55-.73,3.86-1.82,7.81-3.37,11.98-4.32,2.79-.64,5.61-.97,8.47-.55,4.3.64,7.39,3.49,8.07,7.53.43,2.57-.21,4.99-1.31,7.31-1.83,3.86-4.5,7.12-7.43,10.18-4.78,4.98-10.11,9.31-15.71,13.31-3.07,2.2-6.25,4.23-9.36,6.36-.81.56-1.55.49-2.32.01-1.6-.99-2.89-2.33-4.1-3.74-4.19-4.88-7.76-10.19-10.5-16.02-.65-1.39-1.1-2.88-1.54-4.36-.31-1.03-.07-1.91.98-2.52,1-.58,1.92-1.3,2.89-1.94.35-.23.48-.48.43-.91-.18-1.69.16-3.31.68-4.91.13-.41.41-.32.7-.31,1.95.03,3.91.07,5.86.08.45,0,.9-.06,1.42-.1-.25.52-.5.93-.65,1.37-.68,1.97.13,4.14,1.96,5.14,3.19,1.75,6.52,3.12,10.11,3.77,5.59,1.02,10.82.19,15.56-3.09,2.45-1.7,4.48-3.83,5.88-6.48,1.13-2.15.35-4.62-1.72-5.76-2.08-1.15-4.59-.45-5.84,1.65-.78,1.32-1.78,2.43-3.01,3.34-2.21,1.65-4.72,2.25-7.44,2.08-3.09-.19-5.92-1.28-8.63-2.68-1.06-.55-2.12-1.03-3.42-.95Z"/>
      <path class="cls-2" d="m74.93,26.9c-5.71,0-11.42,0-17.14,0-2.12,0-2.61-.52-2.6-2.65.02-5.25,0-10.49-.01-15.74,0-1.8,0-3.6,0-5.4,0-1.49.65-2.19,2.14-2.2,4.74-.02,9.49,0,14.23,0,3.56,0,7.13,0,10.69-.01,3.23,0,6.47,0,9.7,0,.33,0,.66,0,.99.02,1.19.1,1.81.79,1.81,1.98,0,7.28,0,14.56,0,21.84,0,1.49-.62,2.13-2.11,2.14-2.21.02-4.41.01-6.62.01-3.7,0-7.4,0-11.09,0Z"/>
      <path class="cls-2" d="m45.81,66.24c-.54.38-1.06.75-1.57,1.18-.16.13-3.21.22-3.41.22-6.35.01-10.8-.16-17.16-.16-1.82,0-3.64,0-5.46.02-.61,0-1.23.09-1.97.14.14-1.84.2-3.64.43-5.42.41-3.16.8-6.34,1.41-9.46,1.01-5.22,2.52-10.29,5.1-14.99,1.32-2.41,2.9-4.62,5.09-6.33,1.8-1.4,3.82-2.19,6.11-2.18,1.2,0,2.4,0,3.59.11,2.01.18,3.51,1.25,4.36,3.04.81,1.7,1.7,3.33,2.95,4.76,3.79,4.34,8.51,7.11,14.05,8.57.71.19,1.43.34,2.15.48,1.37.28,2.49,1.24,2.68,2.33-.8-.18-1.58-.41-2.39-.52-1.41-.19-2.82-.19-4.17.36-.71.29-1.31.69-1.78,1.33-.18.25-.31,1-.64,1.03"/>
      <path class="cls-2" d="m55.62,90.42c-.29.03-.45.06-.61.06-15.92,0-31.84,0-47.76,0-3.59,0-6.12-2.25-6.34-5.81-.21-3.48,2.38-6.02,5.32-6.23,2.64-.19,5.3-.06,7.96-.06.18,0,.4.05.54.16,1.1.81,2.37,1.01,3.68,1.01,5.89,0,11.77,0,17.66,0,3.72,0,7.44,0,11.16-.02.42,0,.66.16.88.51,2.03,3.35,4.26,6.55,6.8,9.54.21.24.42.48.71.83Z"/>
      <path class="cls-2" d="m43.05,68.33c.14,1.92.82,3.64,1.61,5.32.78,1.66,1.64,3.27,2.5,4.98-.26.02-.51.07-.77.07-6.87,0-13.75,0-20.62-.01-2.63,0-5.27.04-7.9-.02-2.45-.05-4.58-1.96-4.94-4.29-.39-2.58.98-4.95,3.41-5.78.57-.2,1.21-.3,1.82-.3,8.11-.02,16.23-.01,24.34-.01.17,0,.34.02.54.03Z"/>
      <path class="cls-3" d="m40.52,8.55c5.21-.05,9.67,4.37,9.72,9.62.04,5.37-4.3,9.77-9.69,9.82-5.28.05-9.74-4.29-9.8-9.53-.06-5.49,4.25-9.86,9.77-9.92Z"/>
      <path class="cls-3" d="m107.08,39.53c-.02,5.34-4.36,9.68-9.69,9.68-5.4,0-9.78-4.38-9.75-9.75.03-5.38,4.4-9.73,9.79-9.71,5.34.01,9.67,4.4,9.65,9.78Z"/>
      <path class="cls-2" d="m53,58.01c-3.49.03-6.87-.52-10.06-1.95-4.93-2.2-8.12-5.99-9.88-11.03-.88-2.52-1.34-5.12-1.29-7.8.04-2.11,1.52-3.66,3.49-3.64,1.99.03,3.46,1.56,3.46,3.67,0,2.27.39,4.47,1.31,6.55,1.74,3.99,4.88,6.18,9.09,6.93,2.18.39,4.39.45,6.59.16,2.39-.31,3.86,1.35,4.11,2.73.4,2.18-1.01,3.98-3.33,4.18-1.16.1-2.32.13-3.48.19Z"/>
      <path class="cls-4" d="m56.72,49.94c.94-.85,1.98-1.09,3.07-1.15,2.09-.12,4.02.36,5.75,1.6.18.13.56.13.78.04,2.9-1.22,5.27-3.13,7.16-5.64,2.25-3,3.53-6.42,4.3-10.05.48-2.26.73-4.54.71-6.86,0-.13.02-.26.03-.39.74-.18.88-.1.87.53-.14,4.82-.95,9.5-3.12,13.86-1.56,3.14-3.73,5.78-6.66,7.74-.83.55-1.74,1-2.64,1.45-.36.18-.5.3-.31.73.49,1.08.27,1.57-.91,1.64-1.24.07-2.5-.1-3.75-.18-.29-.02-.57-.12-.86-.15-.6-.06-.92-.25-1.11-.96-.26-.94-1.14-1.47-2.05-1.83-.37-.14-.76-.24-1.26-.39Z"/>
      <path class="cls-1" d="m69.59,15.56c.62-.22,1.18-.41,1.82-.63-.29-.35-.53-.64-.76-.93-.6-.77-.53-1.72.16-2.34.68-.6,1.69-.57,2.33.16,1.07,1.22,2.14,2.45,3.11,3.75,1.33,1.78.6,4.11-1.49,4.88-1.41.52-2.83,1.04-4.28,1.41-1.37.34-3-.65-3.37-2.02-.43-1.56-.76-3.15-1.06-4.74-.19-1.03.37-1.82,1.3-1.99.91-.17,1.7.37,1.97,1.37.09.35.17.7.27,1.11Z"/>
      <path class="cls-1" d="m78.65,15.02c-1.98-.04-3.56-1.65-3.53-3.62.03-1.97,1.67-3.51,3.72-3.49,1.81.02,3.46,1.68,3.45,3.47-.01,2.05-1.64,3.67-3.64,3.63Z"/>
    </g>
  </g>
</svg>